Bungee_Layers-Shade.ufo
<glyph name="quotesingle" format="1">
  <advance width="356"/>
  <unicode hex="0027"/>
  <outline>
    <contour>
      <point x="121.0" y="226" type="line" smooth="yes"/>
      <point x="141.0" y="226"/>
      <point x="152.0" y="229"/>
      <point x="160.0" y="235" type="curve" smooth="yes"/>
      <point x="289.0" y="343" type="line" smooth="yes"/>
      <point x="297.0" y="351"/>
      <point x="301.0" y="362"/>
      <point x="302.0" y="385" type="curve" smooth="yes"/>
      <point x="310.0" y="679" type="line" smooth="yes"/>
      <point x="311.0" y="723"/>
      <point x="304.0" y="730"/>
      <point x="261.0" y="730" type="curve" smooth="yes"/>
      <point x="96.0" y="730" type="line" smooth="yes"/>
      <point x="77.0" y="730"/>
      <point x="65.0" y="728"/>
      <point x="58.0" y="722" type="curve" smooth="yes"/>
      <point x="-72.0" y="613" type="line" smooth="yes"/>
      <point x="-81.0" y="605"/>
      <point x="-84.0" y="594"/>
      <point x="-83.0" y="569" type="curve" smooth="yes"/>
      <point x="-75.0" y="277" type="line" smooth="yes"/>
      <point x="-74.0" y="233"/>
      <point x="-66.0" y="226"/>
      <point x="-23.0" y="226" type="curve" smooth="yes"/>
    </contour>
  </outline>
</glyph>
<glyph name="slash" format="2">
  <advance width="347"/>
  <unicode hex="002F"/>
  <outline>
    <contour>
      <point x="57.0" y="-209" type="line" smooth="yes"/>
      <point x="71.0" y="-209"/>
      <point x="79.0" y="-205"/>
      <point x="87.0" y="-200" type="curve" smooth="yes"/>
      <point x="216.0" y="-91" type="line"/>
      <point x="225.0" y="-85"/>
      <point x="229.0" y="-73"/>
      <point x="232.0" y="-55" type="curve" smooth="yes"/>
      <point x="352.0" y="773" type="line" smooth="yes"/>
      <point x="356.0" y="805"/>
      <point x="339.0" y="820"/>
      <point x="306.0" y="820" type="curve" smooth="yes"/>
      <point x="161.0" y="820" type="line" smooth="yes"/>
      <point x="147.0" y="820"/>
      <point x="137.0" y="817"/>
      <point x="130.0" y="811" type="curve"/>
      <point x="1.0" y="703" type="line" smooth="yes"/>
      <point x="-8.0" y="695"/>
      <point x="-13.0" y="683"/>
      <point x="-14.0" y="666" type="curve"/>
      <point x="-134.0" y="-162" type="line" smooth="yes"/>
      <point x="-138.0" y="-194"/>
      <point x="-121.0" y="-209"/>
      <point x="-88.0" y="-209" type="curve" smooth="yes"/>
    </contour>
  </outline>
</glyph>
<glyph name="one" format="2">
  <advance width="601"/>
  <unicode hex="0031"/>
  <outline>
    <contour>
      <point x="397.0" y="-119" type="line" smooth="yes"/>
      <point x="411.0" y="-119"/>
      <point x="422.0" y="-115"/>
      <point x="428.0" y="-109" type="curve"/>
      <point x="558.0" y="-1" type="line" smooth="yes"/>
      <point x="567.0" y="7"/>
      <point x="572.0" y="18"/>
      <point x="572.0" y="36" type="curve" smooth="yes"/>
      <point x="572.0" y="157" type="line" smooth="yes"/>
      <point x="572.0" y="189"/>
      <point x="558.0" y="203"/>
      <point x="526.0" y="203" type="curve" smooth="yes"/>
      <point x="440.0" y="203" type="line"/>
      <point x="440.0" y="684" type="line" smooth="yes"/>
      <point x="440.0" y="716"/>
      <point x="426.0" y="730"/>
      <point x="394.0" y="730" type="curve" smooth="yes"/>
      <point x="104.0" y="730" type="line" smooth="yes"/>
      <point x="90.0" y="730"/>
      <point x="79.0" y="727"/>
      <point x="72.0" y="721" type="curve" smooth="yes"/>
      <point x="-57.0" y="612" type="line" smooth="yes"/>
      <point x="-66.0" y="604"/>
      <point x="-71.0" y="593"/>
      <point x="-71.0" y="575" type="curve" smooth="yes"/>
      <point x="-71.0" y="454" type="line" smooth="yes"/>
      <point x="-71.0" y="422"/>
      <point x="-57.0" y="408"/>
      <point x="-25.0" y="408" type="curve" smooth="yes"/>
      <point x="57.0" y="408" type="line"/>
      <point x="57.0" y="197" type="line"/>
      <point x="56.0" y="196"/>
      <point x="54.0" y="195"/>
      <point x="52.0" y="194" type="curve" smooth="yes"/>
      <point x="-77.0" y="85" type="line" smooth="yes"/>
      <point x="-86.0" y="77"/>
      <point x="-91.0" y="66"/>
      <point x="-91.0" y="48" type="curve" smooth="yes"/>
      <point x="-91.0" y="-73" type="line" smooth="yes"/>
      <point x="-91.0" y="-105"/>
      <point x="-77.0" y="-119"/>
      <point x="-45.0" y="-119" type="curve" smooth="yes"/>
    </contour>
  </outline>
</glyph>
<glyph name="two" format="2">
  <advance width="639"/>
  <unicode hex="0032"/>
  <outline>
    <contour>
      <point x="423.0" y="-119" type="line" smooth="yes"/>
      <point x="437.0" y="-119"/>
      <point x="448.0" y="-115"/>
      <point x="454.0" y="-109" type="curve"/>
      <point x="584.0" y="-1" type="line" smooth="yes"/>
      <point x="593.0" y="7"/>
      <point x="598.0" y="18"/>
      <point x="598.0" y="36" type="curve" smooth="yes"/>
      <point x="598.0" y="153" type="line" smooth="yes"/>
      <point x="598.0" y="185"/>
      <point x="584.0" y="199"/>
      <point x="552.0" y="199" type="curve" smooth="yes"/>
      <point x="382.0" y="199" type="line"/>
      <point x="392.0" y="205"/>
      <point x="400.0" y="211"/>
      <point x="408.0" y="217" type="curve" smooth="yes"/>
      <point x="537.0" y="325" type="line" smooth="yes"/>
      <point x="575.0" y="356"/>
      <point x="595.0" y="398"/>
      <point x="595.0" y="460" type="curve" smooth="yes"/>
      <point x="595.0" y="554" type="line" smooth="yes"/>
      <point x="595.0" y="668"/>
      <point x="530.0" y="730"/>
      <point x="409.0" y="730" type="curve" smooth="yes"/>
      <point x="114.0" y="730" type="line" smooth="yes"/>
      <point x="100.0" y="730"/>
      <point x="89.0" y="727"/>
      <point x="82.0" y="721" type="curve" smooth="yes"/>
      <point x="-47.0" y="612" type="line" smooth="yes"/>
      <point x="-56.0" y="604"/>
      <point x="-61.0" y="593"/>
      <point x="-61.0" y="575" type="curve" smooth="yes"/>
      <point x="-61.0" y="458" type="line" smooth="yes"/>
      <point x="-61.0" y="426"/>
      <point x="-47.0" y="412"/>
      <point x="-15.0" y="412" type="curve" smooth="yes"/>
      <point x="130.0" y="412" type="line"/>
      <point x="117.0" y="405"/>
      <point x="105.0" y="398"/>
      <point x="94.0" y="389" type="curve" smooth="yes"/>
      <point x="-35.0" y="280" type="line" smooth="yes"/>
      <point x="-75.0" y="247"/>
      <point x="-99.0" y="196"/>
      <point x="-99.0" y="99" type="curve" smooth="yes"/>
      <point x="-99.0" y="-73" type="line" smooth="yes"/>
      <point x="-99.0" y="-105"/>
      <point x="-85.0" y="-119"/>
      <point x="-53.0" y="-119" type="curve" smooth="yes"/>
    </contour>
  </outline>
</glyph>
<glyph name="four" format="2">
  <advance width="709"/>
  <unicode hex="0034"/>
  <outline>
    <contour>
      <point x="475.0" y="-119" type="line" smooth="yes"/>
      <point x="489.0" y="-119"/>
      <point x="500.0" y="-115"/>
      <point x="506.0" y="-109" type="curve"/>
      <point x="636.0" y="-1" type="line" smooth="yes"/>
      <point x="645.0" y="7"/>
      <point x="650.0" y="18"/>
      <point x="650.0" y="36" type="curve" smooth="yes"/>
      <point x="650.0" y="684" type="line" smooth="yes"/>
      <point x="650.0" y="716"/>
      <point x="636.0" y="730"/>
      <point x="604.0" y="730" type="curve" smooth="yes"/>
      <point x="450.0" y="730" type="line" smooth="yes"/>
      <point x="436.0" y="730"/>
      <point x="425.0" y="727"/>
      <point x="418.0" y="721" type="curve" smooth="yes"/>
      <point x="300.0" y="621" type="line"/>
      <point x="300.0" y="684" type="line" smooth="yes"/>
      <point x="300.0" y="716"/>
      <point x="286.0" y="730"/>
      <point x="254.0" y="730" type="curve" smooth="yes"/>
      <point x="99.0" y="730" type="line" smooth="yes"/>
      <point x="85.0" y="730"/>
      <point x="74.0" y="727"/>
      <point x="67.0" y="721" type="curve" smooth="yes"/>
      <point x="-62.0" y="612" type="line" smooth="yes"/>
      <point x="-71.0" y="604"/>
      <point x="-76" y="593"/>
      <point x="-76.0" y="575" type="curve" smooth="yes"/>
      <point x="-76" y="254" type="line" smooth="yes"/>
      <point x="-76" y="134"/>
      <point x="-22.0" y="48"/>
      <point x="116.0" y="48" type="curve" smooth="yes"/>
      <point x="275.0" y="48" type="line"/>
      <point x="275.0" y="-73" type="line" smooth="yes"/>
      <point x="275.0" y="-105"/>
      <point x="289.0" y="-119"/>
      <point x="321.0" y="-119" type="curve" smooth="yes"/>
    </contour>
  </outline>
</glyph>
<glyph name="seven" format="1">
  <advance width="627"/>
  <unicode hex="0037"/>
  <outline>
    <contour>
      <point x="180.0" y="-119" type="line" smooth="yes"/>
      <point x="194.0" y="-119"/>
      <point x="205.0" y="-115"/>
      <point x="211.0" y="-109" type="curve"/>
      <point x="341.0" y="-1" type="line" smooth="yes"/>
      <point x="350.0" y="7"/>
      <point x="355.0" y="18"/>
      <point x="355.0" y="36" type="curve" smooth="yes"/>
      <point x="355.0" y="138" type="line"/>
      <point x="372.0" y="146"/>
      <point x="386.0" y="155"/>
      <point x="398.0" y="165" type="curve" smooth="yes"/>
      <point x="528.0" y="273" type="line" smooth="yes"/>
      <point x="566.0" y="306"/>
      <point x="585.0" y="352"/>
      <point x="585.0" y="431" type="curve" smooth="yes"/>
      <point x="585.0" y="684" type="line" smooth="yes"/>
      <point x="585.0" y="716"/>
      <point x="571.0" y="730"/>
      <point x="539.0" y="730" type="curve" smooth="yes"/>
      <point x="74.0" y="730" type="line" smooth="yes"/>
      <point x="60.0" y="730"/>
      <point x="49.0" y="727"/>
      <point x="42.0" y="721" type="curve" smooth="yes"/>
      <point x="-87.0" y="612" type="line" smooth="yes"/>
      <point x="-96.0" y="604"/>
      <point x="-101.0" y="593"/>
      <point x="-101.0" y="575" type="curve" smooth="yes"/>
      <point x="-101.0" y="454" type="line" smooth="yes"/>
      <point x="-101.0" y="422"/>
      <point x="-87.0" y="408"/>
      <point x="-55.0" y="408" type="curve" smooth="yes"/>
      <point x="209.0" y="408" type="line"/>
      <point x="209.0" y="405" type="line"/>
      <point x="189.0" y="396"/>
      <point x="172.0" y="386"/>
      <point x="158.0" y="375" type="curve" smooth="yes"/>
      <point x="29.0" y="266" type="line" smooth="yes"/>
      <point x="-9.0" y="234"/>
      <point x="-28.0" y="187"/>
      <point x="-28.0" y="108" type="curve" smooth="yes"/>
      <point x="-28.0" y="-73" type="line"/>
      <point x="-28.0" y="-105"/>
      <point x="-14.0" y="-119"/>
      <point x="18.0" y="-119" type="curve" smooth="yes"/>
    </contour>
  </outline>
</glyph>
<glyph name="question" format="2">
  <advance width="656"/>
  <unicode hex="003F"/>
  <outline>
    <contour>
      <point x="215.0" y="-119" type="line" smooth="yes"/>
      <point x="229.0" y="-119"/>
      <point x="240.0" y="-115"/>
      <point x="246.0" y="-109" type="curve"/>
      <point x="376.0" y="-1" type="line" smooth="yes"/>
      <point x="385.0" y="7"/>
      <point x="390.0" y="18"/>
      <point x="390.0" y="36" type="curve" smooth="yes"/>
      <point x="390.0" y="169" type="line"/>
      <point x="409.0" y="176"/>
      <point x="425.0" y="185"/>
      <point x="440.0" y="197" type="curve" smooth="yes"/>
      <point x="569.0" y="305" type="line" smooth="yes"/>
      <point x="602.0" y="333"/>
      <point x="621.0" y="375"/>
      <point x="621.0" y="439" type="curve" smooth="yes"/>
      <point x="621.0" y="544" type="line" smooth="yes"/>
      <point x="621.0" y="664"/>
      <point x="541.0" y="730"/>
      <point x="404.0" y="730" type="curve" smooth="yes"/>
      <point x="81.0" y="730" type="line" smooth="yes"/>
      <point x="67.0" y="730"/>
      <point x="56.0" y="727"/>
      <point x="49.0" y="721" type="curve" smooth="yes"/>
      <point x="-80.0" y="612" type="line" smooth="yes"/>
      <point x="-89.0" y="604"/>
      <point x="-94.0" y="593"/>
      <point x="-94.0" y="575" type="curve" smooth="yes"/>
      <point x="-94.0" y="454" type="line" smooth="yes"/>
      <point x="-94.0" y="421"/>
      <point x="-80.0" y="408"/>
      <point x="-48.0" y="408" type="curve" smooth="yes"/>
      <point x="90.0" y="408" type="line"/>
      <point x="-2.0" y="331" type="line" smooth="yes"/>
      <point x="-13.0" y="322"/>
      <point x="-18.0" y="308"/>
      <point x="-14.0" y="288" type="curve" smooth="yes"/>
      <point x="7.0" y="156" type="line" smooth="yes"/>
      <point x="10.0" y="136"/>
      <point x="17.0" y="125"/>
      <point x="28.0" y="120" type="curve"/>
      <point x="-1.0" y="95" type="line"/>
      <point x="-10.0" y="89"/>
      <point x="-14.0" y="77"/>
      <point x="-14.0" y="58" type="curve" smooth="yes"/>
      <point x="-14.0" y="-73" type="line"/>
      <point x="-14.0" y="-105"/>
      <point x="-1.0" y="-119"/>
      <point x="32.0" y="-119" type="curve" smooth="yes"/>
    </contour>
  </outline>
</glyph>
<glyph name="B" format="1">
  <advance width="725"/>
  <unicode hex="0042"/>
  <outline>
    <contour>
      <point x="-24.0" y="-119" type="curve" smooth="yes"/>
      <point x="360.0" y="-119" type="line" smooth="yes"/>
      <point x="429.0" y="-119"/>
      <point x="479.0" y="-105"/>
      <point x="512.0" y="-77" type="curve" smooth="yes"/>
      <point x="641.0" y="32" type="line" smooth="yes"/>
      <point x="676.0" y="61"/>
      <point x="693.0" y="104"/>
      <point x="693.0" y="164" type="curve" smooth="yes"/>
      <point x="693.0" y="256" type="line" smooth="yes"/>
      <point x="693.0" y="350"/>
      <point x="658.0" y="401"/>
      <point x="585.0" y="417" type="curve"/>
      <point x="588.0" y="419" type="line"/>
      <point x="613.0" y="439"/>
      <point x="626.0" y="472"/>
      <point x="626.0" y="519" type="curve" smooth="yes"/>
      <point x="626.0" y="567" type="line" smooth="yes"/>
      <point x="626.0" y="677"/>
      <point x="564.0" y="730"/>
      <point x="424.0" y="730" type="curve" smooth="yes"/>
      <point x="105.0" y="730" type="line" smooth="yes"/>
      <point x="91.0" y="730"/>
      <point x="80.0" y="727"/>
      <point x="73.0" y="721" type="curve" smooth="yes"/>
      <point x="-56.0" y="612" type="line" smooth="yes"/>
      <point x="-65.0" y="604"/>
      <point x="-70.0" y="593"/>
      <point x="-70.0" y="575" type="curve" smooth="yes"/>
      <point x="-70.0" y="-73" type="line" smooth="yes"/>
      <point x="-70.0" y="-105"/>
      <point x="-56.0" y="-119"/>
    </contour>
  </outline>
</glyph>
<glyph name="M" format="1">
  <advance width="849"/>
  <unicode hex="004D"/>
  <outline>
    <contour>
      <point x="286.0" y="-1" type="line" smooth="yes"/>
      <point x="295.0" y="7"/>
      <point x="300.0" y="18"/>
      <point x="300.0" y="36" type="curve" smooth="yes"/>
      <point x="300.0" y="128" type="line"/>
      <point x="313.0" y="128" type="line" smooth="yes"/>
      <point x="332.0" y="128"/>
      <point x="345.0" y="133"/>
      <point x="356.0" y="142" type="curve" smooth="yes"/>
      <point x="415.0" y="191" type="line"/>
      <point x="415.0" y="-73" type="line" smooth="yes"/>
      <point x="415.0" y="-105"/>
      <point x="428.0" y="-119"/>
      <point x="461.0" y="-119" type="curve" smooth="yes"/>
      <point x="615.0" y="-119" type="line" smooth="yes"/>
      <point x="629.0" y="-119"/>
      <point x="640.0" y="-115"/>
      <point x="646.0" y="-109" type="curve"/>
      <point x="776.0" y="-1" type="line" smooth="yes"/>
      <point x="785.0" y="7"/>
      <point x="790.0" y="18"/>
      <point x="790.0" y="36" type="curve" smooth="yes"/>
      <point x="790.0" y="684" type="line" smooth="yes"/>
      <point x="790.0" y="716"/>
      <point x="776.0" y="730"/>
      <point x="744.0" y="730" type="curve" smooth="yes"/>
      <point x="582.0" y="730" type="line" smooth="yes"/>
      <point x="566.0" y="730"/>
      <point x="556.0" y="726"/>
      <point x="545.0" y="718" type="curve" smooth="yes"/>
      <point x="416.0" y="610" type="line" smooth="yes"/>
      <point x="409.0" y="604"/>
      <point x="403.0" y="596"/>
      <point x="398.0" y="586" type="curve"/>
      <point x="389.0" y="570" type="line"/>
      <point x="321.0" y="695" type="line" smooth="yes"/>
      <point x="306.0" y="721"/>
      <point x="291.0" y="730"/>
      <point x="266.0" y="730" type="curve" smooth="yes"/>
      <point x="105.0" y="730" type="line" smooth="yes"/>
      <point x="91.0" y="730"/>
      <point x="80.0" y="727"/>
      <point x="73.0" y="721" type="curve" smooth="yes"/>
      <point x="-56.0" y="612" type="line" smooth="yes"/>
      <point x="-65.0" y="604"/>
      <point x="-70.0" y="593"/>
      <point x="-70.0" y="575" type="curve" smooth="yes"/>
      <point x="-70.0" y="-73" type="line" smooth="yes"/>
      <point x="-70.0" y="-105"/>
      <point x="-56.0" y="-119"/>
      <point x="-24.0" y="-119" type="curve" smooth="yes"/>
      <point x="125.0" y="-119" type="line" smooth="yes"/>
      <point x="139.0" y="-119"/>
      <point x="150.0" y="-115"/>
      <point x="156.0" y="-109" type="curve"/>
    </contour>
  </outline>
</glyph>
<glyph name="O" format="1">
  <advance width="737"/>
  <unicode hex="004F"/>
  <outline>
    <contour>
      <point x="500.0" y="-71" type="curve" smooth="yes"/>
      <point x="629.0" y="37" type="line" smooth="yes"/>
      <point x="674.0" y="75"/>
      <point x="689.0" y="127"/>
      <point x="689.0" y="189" type="curve" smooth="yes"/>
      <point x="689.0" y="530" type="line" smooth="yes"/>
      <point x="689.0" y="656"/>
      <point x="631.0" y="745"/>
      <point x="369.0" y="745" type="curve" smooth="yes"/>
      <point x="235.0" y="745"/>
      <point x="156.0" y="722"/>
      <point x="109.0" y="682" type="curve" smooth="yes"/>
      <point x="-21.0" y="574" type="line" smooth="yes"/>
      <point x="-66.0" y="536"/>
      <point x="-81.0" y="483"/>
      <point x="-81.0" y="421" type="curve" smooth="yes"/>
      <point x="-81.0" y="80" type="line" smooth="yes"/>
      <point x="-81.0" y="-46"/>
      <point x="-22.0" y="-134"/>
      <point x="240.0" y="-134" type="curve" smooth="yes"/>
      <point x="373.0" y="-134"/>
      <point x="453.0" y="-111"/>
    </contour>
    <contour>
      <point x="295.0" y="225" type="curve" smooth="yes"/>
      <point x="295.0" y="414" type="line"/>
      <point x="310.0" y="408"/>
      <point x="314.0" y="398"/>
      <point x="314.0" y="385" type="curve" smooth="yes"/>
      <point x="314.0" y="195" type="line"/>
      <point x="299.0" y="202"/>
      <point x="295.0" y="212"/>
    </contour>
  </outline>
</glyph>
<glyph name="R" format="1">
  <advance width="743"/>
  <unicode hex="0052"/>
  <outline>
    <contour>
      <point x="291.0" y="-1" type="line" smooth="yes"/>
      <point x="300.0" y="7"/>
      <point x="305.0" y="18"/>
      <point x="305.0" y="36" type="curve" smooth="yes"/>
      <point x="305.0" y="113" type="line"/>
      <point x="306.0" y="113" type="line" smooth="yes"/>
      <point x="327.0" y="113"/>
      <point x="334.0" y="102"/>
      <point x="334.0" y="80" type="curve" smooth="yes"/>
      <point x="334.0" y="-73" type="line" smooth="yes"/>
      <point x="334.0" y="-105"/>
      <point x="348.0" y="-119"/>
      <point x="380.0" y="-119" type="curve" smooth="yes"/>
      <point x="535.0" y="-119" type="line" smooth="yes"/>
      <point x="549.0" y="-119"/>
      <point x="560.0" y="-115"/>
      <point x="566.0" y="-109" type="curve"/>
      <point x="696.0" y="-1" type="line" smooth="yes"/>
      <point x="705.0" y="7"/>
      <point x="710.0" y="18"/>
      <point x="710.0" y="36" type="curve" smooth="yes"/>
      <point x="710.0" y="248" type="line" smooth="yes"/>
      <point x="710.0" y="327"/>
      <point x="669.0" y="380"/>
      <point x="606.0" y="398" type="curve"/>
      <point x="607.0" y="398" type="line" smooth="yes"/>
      <point x="634.0" y="421"/>
      <point x="645.0" y="458"/>
      <point x="645.0" y="507" type="curve" smooth="yes"/>
      <point x="645.0" y="553" type="line" smooth="yes"/>
      <point x="645.0" y="657"/>
      <point x="597.0" y="730"/>
      <point x="438.0" y="730" type="curve" smooth="yes"/>
      <point x="105.0" y="730" type="line" smooth="yes"/>
      <point x="91.0" y="730"/>
      <point x="80.0" y="727"/>
      <point x="73.0" y="721" type="curve" smooth="yes"/>
      <point x="-56.0" y="612" type="line" smooth="yes"/>
      <point x="-65.0" y="604"/>
      <point x="-70.0" y="593"/>
      <point x="-70.0" y="575" type="curve" smooth="yes"/>
      <point x="-70.0" y="-73" type="line" smooth="yes"/>
      <point x="-70.0" y="-105"/>
      <point x="-56.0" y="-119"/>
      <point x="-24.0" y="-119" type="curve" smooth="yes"/>
      <point x="130.0" y="-119" type="line" smooth="yes"/>
      <point x="144.0" y="-119"/>
      <point x="155.0" y="-115"/>
      <point x="161.0" y="-109" type="curve"/>
    </contour>
  </outline>
</glyph>
<glyph name="S" format="2">
  <advance width="650"/>
  <unicode hex="0053"/>
  <outline>
    <contour>
      <point x="-42.0" y="-119" type="curve" smooth="yes"/>
      <point x="274.0" y="-119" type="line" smooth="yes"/>
      <point x="341.0" y="-119"/>
      <point x="395.0" y="-102"/>
      <point x="432.0" y="-71" type="curve" smooth="yes"/>
      <point x="561.0" y="37" type="line" smooth="yes"/>
      <point x="600.0" y="69"/>
      <point x="620.0" y="116"/>
      <point x="620.0" y="176" type="curve" smooth="yes"/>
      <point x="620.0" y="281" type="line" smooth="yes"/>
      <point x="620.0" y="389"/>
      <point x="565.0" y="434"/>
      <point x="480.0" y="453" type="curve"/>
      <point x="570.0" y="528" type="line" smooth="yes"/>
      <point x="579.0" y="536"/>
      <point x="584.0" y="547"/>
      <point x="584.0" y="565" type="curve" smooth="yes"/>
      <point x="584.0" y="684" type="line" smooth="yes"/>
      <point x="584.0" y="716"/>
      <point x="570.0" y="730"/>
      <point x="538.0" y="730" type="curve" smooth="yes"/>
      <point x="258.0" y="730" type="line" smooth="yes"/>
      <point x="190.0" y="730"/>
      <point x="136.0" y="713"/>
      <point x="100.0" y="683" type="curve" smooth="yes"/>
      <point x="-30.0" y="574" type="line" smooth="yes"/>
      <point x="-68.0" y="542"/>
      <point x="-88.0" y="495"/>
      <point x="-88.0" y="435" type="curve" smooth="yes"/>
      <point x="-88.0" y="330" type="line" smooth="yes"/>
      <point x="-88.0" y="233"/>
      <point x="-45.0" y="187"/>
      <point x="26.0" y="165" type="curve"/>
      <point x="-74.0" y="81" type="line" smooth="yes"/>
      <point x="-83.0" y="73"/>
      <point x="-88.0" y="62"/>
      <point x="-88.0" y="44" type="curve" smooth="yes"/>
      <point x="-88.0" y="-73" type="line" smooth="yes"/>
      <point x="-88.0" y="-105"/>
      <point x="-74.0" y="-119"/>
    </contour>
  </outline>
</glyph>
<glyph name="V" format="2">
  <advance width="730"/>
  <unicode hex="0056"/>
  <anchor x="365.0" y="747.0" name="top"/>
  <anchor x="365.0" y="0.0" name="bottom"/>
  <outline>
    <contour>
      <point x="106.0" y="-119" type="curve" smooth="yes"/>
      <point x="366.0" y="-119" type="line" smooth="yes"/>
      <point x="384.0" y="-119"/>
      <point x="397.0" y="-115"/>
      <point x="408.0" y="-105" type="curve" smooth="yes"/>
      <point x="537.0" y="2" type="line" smooth="yes"/>
      <point x="544.0" y="8"/>
      <point x="551.0" y="17"/>
      <point x="555.0" y="29" type="curve" smooth="yes"/>
      <point x="653.0" y="274" type="line" smooth="yes"/>
      <point x="678.0" y="336"/>
      <point x="686.0" y="355"/>
      <point x="686.0" y="420" type="curve" smooth="yes"/>
      <point x="686.0" y="684" type="line" smooth="yes"/>
      <point x="686.0" y="716"/>
      <point x="673.0" y="730"/>
      <point x="640.0" y="730" type="curve" smooth="yes"/>
      <point x="483.0" y="730" type="line" smooth="yes"/>
      <point x="469.0" y="730"/>
      <point x="458.0" y="727"/>
      <point x="451.0" y="721" type="curve" smooth="yes"/>
      <point x="322.0" y="612" type="line" smooth="yes"/>
      <point x="313.0" y="604"/>
      <point x="308.0" y="593"/>
      <point x="308.0" y="575" type="curve" smooth="yes"/>
      <point x="308.0" y="363" type="line"/>
      <point x="305.0" y="370" type="line" smooth="yes"/>
      <point x="301.0" y="384"/>
      <point x="298.0" y="395"/>
      <point x="298.0" y="408" type="curve" smooth="yes"/>
      <point x="298.0" y="684" type="line" smooth="yes"/>
      <point x="298.0" y="715"/>
      <point x="281.0" y="730"/>
      <point x="249.0" y="730" type="curve" smooth="yes"/>
      <point x="90.0" y="730" type="line" smooth="yes"/>
      <point x="76.0" y="730"/>
      <point x="65.0" y="727"/>
      <point x="58.0" y="721" type="curve" smooth="yes"/>
      <point x="-71.0" y="612" type="line" smooth="yes"/>
      <point x="-80.0" y="604"/>
      <point x="-85.0" y="593"/>
      <point x="-85.0" y="575" type="curve" smooth="yes"/>
      <point x="-85.0" y="311" type="line" smooth="yes"/>
      <point x="-85.0" y="246"/>
      <point x="-77.0" y="227"/>
      <point x="-52.0" y="165" type="curve" smooth="yes"/>
      <point x="46.0" y="-80" type="line" smooth="yes"/>
      <point x="58.0" y="-109"/>
      <point x="75.0" y="-119"/>
    </contour>
  </outline>
</glyph>
<glyph name="X" format="2">
  <advance width="737"/>
  <unicode hex="0058"/>
  <anchor x="368.0" y="747.0" name="top"/>
  <anchor x="368.0" y="0.0" name="bottom"/>
  <outline>
    <contour>
      <point x="280.0" y="-1" type="line" smooth="yes"/>
      <point x="289.0" y="7"/>
      <point x="294.0" y="18"/>
      <point x="294.0" y="36" type="curve" smooth="yes"/>
      <point x="294.0" y="80" type="line"/>
      <point x="307.0" y="62" type="line" smooth="yes"/>
      <point x="315.0" y="50"/>
      <point x="314.0" y="38"/>
      <point x="314.0" y="26" type="curve" smooth="yes"/>
      <point x="314.0" y="-73" type="line" smooth="yes"/>
      <point x="314.0" y="-105"/>
      <point x="328.0" y="-119"/>
      <point x="360.0" y="-119" type="curve" smooth="yes"/>
      <point x="512.0" y="-119" type="line" smooth="yes"/>
      <point x="526.0" y="-119"/>
      <point x="537.0" y="-115"/>
      <point x="543.0" y="-109" type="curve"/>
      <point x="673.0" y="-1" type="line" smooth="yes"/>
      <point x="682.0" y="7"/>
      <point x="687.0" y="18"/>
      <point x="687.0" y="36" type="curve" smooth="yes"/>
      <point x="687.0" y="143" type="line" smooth="yes"/>
      <point x="687.0" y="208"/>
      <point x="679.0" y="229"/>
      <point x="647.0" y="272" type="curve" smooth="yes"/>
      <point x="570.0" y="374" type="line"/>
      <point x="647.0" y="478" type="line" smooth="yes"/>
      <point x="679.0" y="521"/>
      <point x="687.0" y="542"/>
      <point x="687.0" y="607" type="curve" smooth="yes"/>
      <point x="687.0" y="684" type="line" smooth="yes"/>
      <point x="687.0" y="716"/>
      <point x="673.0" y="730"/>
      <point x="641.0" y="730" type="curve" smooth="yes"/>
      <point x="489.0" y="730" type="line" smooth="yes"/>
      <point x="475.0" y="730"/>
      <point x="464.0" y="727"/>
      <point x="457.0" y="721" type="curve" smooth="yes"/>
      <point x="328.0" y="612" type="line" smooth="yes"/>
      <point x="319.0" y="604"/>
      <point x="314.0" y="593"/>
      <point x="314.0" y="575" type="curve" smooth="yes"/>
      <point x="314.0" y="563" type="line"/>
      <point x="303.0" y="579" type="line" smooth="yes"/>
      <point x="295.0" y="590"/>
      <point x="296.0" y="603"/>
      <point x="296.0" y="615" type="curve" smooth="yes"/>
      <point x="296.0" y="684" type="line" smooth="yes"/>
      <point x="296.0" y="716"/>
      <point x="282.0" y="730"/>
      <point x="250.0" y="730" type="curve" smooth="yes"/>
      <point x="96.0" y="730" type="line" smooth="yes"/>
      <point x="82.0" y="730"/>
      <point x="71.0" y="727"/>
      <point x="64.0" y="721" type="curve" smooth="yes"/>
      <point x="-65.0" y="612" type="line" smooth="yes"/>
      <point x="-74.0" y="604"/>
      <point x="-79.0" y="593"/>
      <point x="-79.0" y="575" type="curve" smooth="yes"/>
      <point x="-79.0" y="498" type="line" smooth="yes"/>
      <point x="-79.0" y="433"/>
      <point x="-71.0" y="412"/>
      <point x="-39.0" y="369" type="curve" smooth="yes"/>
      <point x="38.0" y="266" type="line"/>
      <point x="-39.0" y="163" type="line" smooth="yes"/>
      <point x="-71.0" y="120"/>
      <point x="-79.0" y="99"/>
      <point x="-79.0" y="34" type="curve" smooth="yes"/>
      <point x="-79.0" y="-73" type="line" smooth="yes"/>
      <point x="-79.0" y="-105"/>
      <point x="-65.0" y="-119"/>
      <point x="-33.0" y="-119" type="curve" smooth="yes"/>
      <point x="119.0" y="-119" type="line" smooth="yes"/>
      <point x="133.0" y="-119"/>
      <point x="144.0" y="-115"/>
      <point x="150.0" y="-109" type="curve"/>
    </contour>
  </outline>
</glyph>
<glyph name="Z" format="2">
  <advance width="660"/>
  <unicode hex="005A"/>
  <anchor x="330.0" y="747.0" name="top"/>
  <anchor x="330.0" y="0.0" name="bottom"/>
  <outline>
    <contour>
      <point x="449.0" y="-119" type="line" smooth="yes"/>
      <point x="463.0" y="-119"/>
      <point x="474.0" y="-115"/>
      <point x="480.0" y="-109" type="curve"/>
      <point x="610.0" y="-1" type="line" smooth="yes"/>
      <point x="619.0" y="7"/>
      <point x="624.0" y="18"/>
      <point x="624.0" y="36" type="curve" smooth="yes"/>
      <point x="624.0" y="155" type="line" smooth="yes"/>
      <point x="624.0" y="187"/>
      <point x="610.0" y="201"/>
      <point x="578.0" y="201" type="curve" smooth="yes"/>
      <point x="360.0" y="201" type="line"/>
      <point x="579.0" y="466" type="line"/>
      <point x="598.0" y="486"/>
      <point x="606.0" y="505"/>
      <point x="606.0" y="535" type="curve" smooth="yes"/>
      <point x="606.0" y="684" type="line" smooth="yes"/>
      <point x="606.0" y="716"/>
      <point x="592.0" y="730"/>
      <point x="560.0" y="730" type="curve" smooth="yes"/>
      <point x="100.0" y="730" type="line" smooth="yes"/>
      <point x="86.0" y="730"/>
      <point x="75.0" y="727"/>
      <point x="68.0" y="721" type="curve" smooth="yes"/>
      <point x="-61.0" y="612" type="line" smooth="yes"/>
      <point x="-70.0" y="604"/>
      <point x="-75.0" y="593"/>
      <point x="-75.0" y="575" type="curve" smooth="yes"/>
      <point x="-75.0" y="454" type="line" smooth="yes"/>
      <point x="-75.0" y="422"/>
      <point x="-61.0" y="408"/>
      <point x="-29.0" y="408" type="curve" smooth="yes"/>
      <point x="164.0" y="408" type="line"/>
      <point x="-66.0" y="129" type="line"/>
      <point x="-85.0" y="109"/>
      <point x="-93.0" y="90"/>
      <point x="-93.0" y="61" type="curve" smooth="yes"/>
      <point x="-93.0" y="-73" type="line" smooth="yes"/>
      <point x="-93.0" y="-105"/>
      <point x="-79.0" y="-119"/>
      <point x="-47.0" y="-119" type="curve" smooth="yes"/>
    </contour>
  </outline>
</glyph>
<glyph name="grave" format="2">
  <advance width="500"/>
  <unicode hex="0060"/>
  <anchor x="250.0" y="747.0" name="_top"/>
  <anchor x="250.0" y="0.0" name="_bottom"/>
  <outline>
    <contour>
      <point x="326.0" y="642" type="curve" smooth="yes"/>
      <point x="455.0" y="750" type="line" smooth="yes"/>
      <point x="464.0" y="758"/>
      <point x="469.0" y="769"/>
      <point x="469.0" y="786" type="curve" smooth="yes"/>
      <point x="469.0" y="882" type="line" smooth="yes"/>
      <point x="469.0" y="913"/>
      <point x="456.0" y="924"/>
      <point x="424.0" y="928" type="curve" smooth="yes"/>
      <point x="75.0" y="971" type="line" smooth="yes"/>
      <point x="62.0" y="972"/>
      <point x="52.0" y="969"/>
      <point x="44.0" y="964" type="curve" smooth="yes"/>
      <point x="-85.0" y="855" type="line" smooth="yes"/>
      <point x="-94.0" y="847"/>
      <point x="-99.0" y="836"/>
      <point x="-99.0" y="819" type="curve" smooth="yes"/>
      <point x="-99.0" y="723" type="line" smooth="yes"/>
      <point x="-99.0" y="692"/>
      <point x="-86.0" y="681"/>
      <point x="-54.0" y="677" type="curve"/>
      <point x="295.0" y="634" type="line" smooth="yes"/>
      <point x="308.0" y="633"/>
      <point x="319.0" y="636"/>
    </contour>
  </outline>
</glyph>
<glyph name="braceleft" format="2">
  <advance width="455"/>
  <unicode hex="007B"/>
  <outline>
    <contour>
      <point x="245.0" y="-199" type="line" smooth="yes"/>
      <point x="259.0" y="-199"/>
      <point x="270.0" y="-195"/>
      <point x="276.0" y="-189" type="curve"/>
      <point x="406.0" y="-81" type="line" smooth="yes"/>
      <point x="415.0" y="-73"/>
      <point x="420.0" y="-62"/>
      <point x="420.0" y="-44" type="curve" smooth="yes"/>
      <point x="420.0" y="75" type="line" smooth="yes"/>
      <point x="420.0" y="107"/>
      <point x="406.0" y="121"/>
      <point x="374.0" y="121" type="curve" smooth="yes"/>
      <point x="353.0" y="121" type="line" smooth="yes"/>
      <point x="327.0" y="121"/>
      <point x="322.0" y="135"/>
      <point x="322.0" y="161" type="curve" smooth="yes"/>
      <point x="322.0" y="276" type="line" smooth="yes"/>
      <point x="322.0" y="323"/>
      <point x="309.0" y="341"/>
      <point x="269.0" y="348" type="curve" smooth="yes"/>
      <point x="264.0" y="349" type="line"/>
      <point x="303.0" y="382" type="line" smooth="yes"/>
      <point x="316.0" y="393"/>
      <point x="322.0" y="411"/>
      <point x="322.0" y="440" type="curve" smooth="yes"/>
      <point x="322.0" y="536" type="line"/>
      <point x="406.0" y="606" type="line" smooth="yes"/>
      <point x="415.0" y="614"/>
      <point x="420.0" y="625"/>
      <point x="420.0" y="643" type="curve" smooth="yes"/>
      <point x="420.0" y="764" type="line" smooth="yes"/>
      <point x="420.0" y="796"/>
      <point x="406.0" y="810"/>
      <point x="374.0" y="810" type="curve" smooth="yes"/>
      <point x="330.0" y="810" type="line" smooth="yes"/>
      <point x="238.0" y="810"/>
      <point x="176.0" y="791"/>
      <point x="137.0" y="758" type="curve" smooth="yes"/>
      <point x="8.0" y="649" type="line" smooth="yes"/>
      <point x="-38.0" y="611"/>
      <point x="-55.0" y="554"/>
      <point x="-55.0" y="486" type="curve" smooth="yes"/>
      <point x="-55.0" y="371" type="line"/>
      <point x="-89.0" y="342" type="line" smooth="yes"/>
      <point x="-109.0" y="326"/>
      <point x="-119.0" y="302"/>
      <point x="-119.0" y="267" type="curve" smooth="yes"/>
      <point x="-119.0" y="232" type="line" smooth="yes"/>
      <point x="-119.0" y="181"/>
      <point x="-98.0" y="153"/>
      <point x="-55.0" y="138" type="curve"/>
      <point x="-55.0" y="15" type="line" smooth="yes"/>
      <point x="-55.0" y="-111"/>
      <point x="3.0" y="-199"/>
      <point x="201.0" y="-199" type="curve" smooth="yes"/>
    </contour>
  </outline>
</glyph>
<glyph name="exclamdown" format="2">
  <advance width="423"/>
  <unicode hex="00A1"/>
  <outline>
    <contour>
      <point x="-13.0" y="-119" type="curve" smooth="yes"/>
      <point x="178.0" y="-119" type="line" smooth="yes"/>
      <point x="192.0" y="-119"/>
      <point x="202.0" y="-115"/>
      <point x="208.0" y="-110" type="curve" smooth="yes"/>
      <point x="338.0" y="-1" type="line" smooth="yes"/>
      <point x="348.0" y="7"/>
      <point x="352.0" y="18"/>
      <point x="351.0" y="37" type="curve" smooth="yes"/>
      <point x="337.0" y="422" type="line" smooth="yes"/>
      <point x="336.0" y="454"/>
      <point x="321.0" y="468"/>
      <point x="289.0" y="468" type="curve" smooth="yes"/>
      <point x="279.0" y="468" type="line"/>
      <point x="336.0" y="516" type="line" smooth="yes"/>
      <point x="345.0" y="524"/>
      <point x="350.0" y="535"/>
      <point x="350.0" y="553" type="curve" smooth="yes"/>
      <point x="350.0" y="684" type="line" smooth="yes"/>
      <point x="350.0" y="716"/>
      <point x="336.0" y="730"/>
      <point x="304.0" y="730" type="curve" smooth="yes"/>
      <point x="120.0" y="730" type="line" smooth="yes"/>
      <point x="106.0" y="730"/>
      <point x="95.0" y="727"/>
      <point x="88.0" y="721" type="curve" smooth="yes"/>
      <point x="-41.0" y="612" type="line" smooth="yes"/>
      <point x="-50.0" y="604"/>
      <point x="-55.0" y="593"/>
      <point x="-55.0" y="575" type="curve" smooth="yes"/>
      <point x="-55.0" y="444" type="line" smooth="yes"/>
      <point x="-55.0" y="411"/>
      <point x="-41.0" y="398"/>
      <point x="-9.0" y="398" type="curve" smooth="yes"/>
      <point x="29.0" y="398" type="line"/>
      <point x="-28.0" y="350" type="line" smooth="yes"/>
      <point x="-37.0" y="342"/>
      <point x="-42.0" y="331"/>
      <point x="-42.0" y="313" type="curve"/>
      <point x="-57.0" y="-73" type="line" smooth="yes"/>
      <point x="-58.0" y="-105"/>
      <point x="-45.0" y="-119"/>
    </contour>
  </outline>
</glyph>
<glyph name="section" format="2">
  <advance width="650"/>
  <unicode hex="00A7"/>
  <outline>
    <contour>
      <point x="-31.0" y="-119" type="curve" smooth="yes"/>
      <point x="235.0" y="-119" type="line" smooth="yes"/>
      <point x="326.0" y="-119"/>
      <point x="388.0" y="-99"/>
      <point x="427.0" y="-66" type="curve" smooth="yes"/>
      <point x="557.0" y="42" type="line" smooth="yes"/>
      <point x="603.0" y="81"/>
      <point x="620.0" y="137"/>
      <point x="620.0" y="205" type="curve" smooth="yes"/>
      <point x="620.0" y="311" type="line" smooth="yes"/>
      <point x="620.0" y="402"/>
      <point x="589.0" y="473"/>
      <point x="497.0" y="506" type="curve"/>
      <point x="570.0" y="566" type="line" smooth="yes"/>
      <point x="579.0" y="574"/>
      <point x="584.0" y="585"/>
      <point x="584.0" y="603" type="curve" smooth="yes"/>
      <point x="584.0" y="684" type="line" smooth="yes"/>
      <point x="584.0" y="716"/>
      <point x="570.0" y="730"/>
      <point x="538.0" y="730" type="curve" smooth="yes"/>
      <point x="298.0" y="730" type="line" smooth="yes"/>
      <point x="206.0" y="730"/>
      <point x="144.0" y="711"/>
      <point x="105.0" y="678" type="curve" smooth="yes"/>
      <point x="-24.0" y="569" type="line" smooth="yes"/>
      <point x="-70.0" y="531"/>
      <point x="-87.0" y="474"/>
      <point x="-87.0" y="406" type="curve" smooth="yes"/>
      <point x="-87.0" y="300" type="line" smooth="yes"/>
      <point x="-87.0" y="215"/>
      <point x="-60.0" y="148"/>
      <point x="18.0" y="113" type="curve"/>
      <point x="-63.0" y="45" type="line" smooth="yes"/>
      <point x="-72.0" y="37"/>
      <point x="-77.0" y="26"/>
      <point x="-77.0" y="8" type="curve" smooth="yes"/>
      <point x="-77.0" y="-73" type="line" smooth="yes"/>
      <point x="-77.0" y="-105"/>
      <point x="-63.0" y="-119"/>
    </contour>
  </outline>
</glyph>
<glyph name="threesuperior" format="2">
  <advance width="484"/>
  <unicode hex="00B3"/>
  <outline>
    <contour>
      <point x="-54.0" y="83" type="curve" smooth="yes"/>
      <point x="174.0" y="83" type="line" smooth="yes"/>
      <point x="222.0" y="83"/>
      <point x="258.0" y="95"/>
      <point x="283.0" y="116" type="curve" smooth="yes"/>
      <point x="412.0" y="224" type="line" smooth="yes"/>
      <point x="439.0" y="247"/>
      <point x="453.0" y="280"/>
      <point x="453.0" y="321" type="curve" smooth="yes"/>
      <point x="453.0" y="393" type="line" smooth="yes"/>
      <point x="453.0" y="455"/>
      <point x="433.0" y="490"/>
      <point x="378.0" y="503" type="curve"/>
      <point x="397.0" y="519"/>
      <point x="404.0" y="544"/>
      <point x="404.0" y="575" type="curve" smooth="yes"/>
      <point x="404.0" y="617" type="line" smooth="yes"/>
      <point x="404.0" y="686"/>
      <point x="364.0" y="730"/>
      <point x="276.0" y="730" type="curve" smooth="yes"/>
      <point x="75.0" y="730" type="line" smooth="yes"/>
      <point x="65.0" y="730"/>
      <point x="57.0" y="727"/>
      <point x="51.0" y="724" type="curve" smooth="yes"/>
      <point x="50.0" y="723" type="line"/>
      <point x="-79.0" y="614" type="line" smooth="yes"/>
      <point x="-86.0" y="608"/>
      <point x="-90.0" y="599"/>
      <point x="-90.0" y="585" type="curve" smooth="yes"/>
      <point x="-90.0" y="500" type="line" smooth="yes"/>
      <point x="-90.0" y="475"/>
      <point x="-79.0" y="464"/>
      <point x="-54.0" y="464" type="curve" smooth="yes"/>
      <point x="29.0" y="464" type="line"/>
      <point x="-20.0" y="423" type="line" smooth="yes"/>
      <point x="-27.0" y="417"/>
      <point x="-31.0" y="408"/>
      <point x="-31.0" y="394" type="curve" smooth="yes"/>
      <point x="-31.0" y="317" type="line"/>
      <point x="-31.0" y="301"/>
      <point x="-26.0" y="290"/>
      <point x="-16.0" y="285" type="curve"/>
      <point x="-79.0" y="232" type="line" smooth="yes"/>
      <point x="-86.0" y="226"/>
      <point x="-90.0" y="217"/>
      <point x="-90.0" y="203" type="curve" smooth="yes"/>
      <point x="-90.0" y="119" type="line" smooth="yes"/>
      <point x="-90.0" y="94"/>
      <point x="-79.0" y="83"/>
    </contour>
  </outline>
</glyph>
<glyph name="acute" format="2">
  <advance width="500"/>
  <unicode hex="00B4"/>
  <anchor x="250.0" y="747.0" name="_top"/>
  <anchor x="250.0" y="0.0" name="_bottom"/>
  <outline>
    <contour>
      <point x="-54.0" y="634" type="curve" smooth="yes"/>
      <point x="295.0" y="677" type="line"/>
      <point x="309.0" y="680"/>
      <point x="319.0" y="682"/>
      <point x="326.0" y="688" type="curve" smooth="yes"/>
      <point x="455.0" y="797" type="line"/>
      <point x="464.0" y="803"/>
      <point x="469.0" y="815"/>
      <point x="469.0" y="832" type="curve" smooth="yes"/>
      <point x="469.0" y="928" type="line" smooth="yes"/>
      <point x="469.0" y="959"/>
      <point x="454.0" y="975"/>
      <point x="424.0" y="971" type="curve" smooth="yes"/>
      <point x="75.0" y="928" type="line" smooth="yes"/>
      <point x="61.0" y="927"/>
      <point x="50.0" y="923"/>
      <point x="44.0" y="917" type="curve"/>
      <point x="-86.0" y="808" type="line" smooth="yes"/>
      <point x="-94.0" y="801"/>
      <point x="-99.0" y="791"/>
      <point x="-99.0" y="773" type="curve" smooth="yes"/>
      <point x="-99.0" y="677" type="line" smooth="yes"/>
      <point x="-99.0" y="646"/>
      <point x="-84.0" y="630"/>
    </contour>
  </outline>
</glyph>
<glyph name="Eth" format="1">
  <advance width="756"/>
  <unicode hex="00D0"/>
  <outline>
    <contour>
      <point x="-14.0" y="-119" type="curve" smooth="yes"/>
      <point x="323.0" y="-119" type="line" smooth="yes"/>
      <point x="415.0" y="-119"/>
      <point x="476.0" y="-99"/>
      <point x="516.0" y="-66" type="curve" smooth="yes"/>
      <point x="645.0" y="43" type="line" smooth="yes"/>
      <point x="691.0" y="81"/>
      <point x="708.0" y="137"/>
      <point x="708.0" y="204" type="curve" smooth="yes"/>
      <point x="708.0" y="516" type="line" smooth="yes"/>
      <point x="708.0" y="642"/>
      <point x="650.0" y="730"/>
      <point x="452.0" y="730" type="curve" smooth="yes"/>
      <point x="115.0" y="730" type="line" smooth="yes"/>
      <point x="101.0" y="730"/>
      <point x="90.0" y="727"/>
      <point x="83.0" y="721" type="curve" smooth="yes"/>
      <point x="-46.0" y="612" type="line" smooth="yes"/>
      <point x="-55.0" y="604"/>
      <point x="-60.0" y="593"/>
      <point x="-60.0" y="575" type="curve" smooth="yes"/>
      <point x="-60.0" y="374" type="line"/>
      <point x="-105.0" y="336" type="line" smooth="yes"/>
      <point x="-114.0" y="328"/>
      <point x="-119.0" y="317"/>
      <point x="-119.0" y="299" type="curve" smooth="yes"/>
      <point x="-119.0" y="192" type="line" smooth="yes"/>
      <point x="-119.0" y="159"/>
      <point x="-105.0" y="146"/>
      <point x="-73.0" y="146" type="curve" smooth="yes"/>
      <point x="-60.0" y="146" type="line"/>
      <point x="-60.0" y="-73" type="line" smooth="yes"/>
      <point x="-60.0" y="-105"/>
      <point x="-46.0" y="-119"/>
    </contour>
  </outline>
</glyph>
<glyph name="IJ" format="1">
  <advance width="744.0"/>
  <unicode hex="0132"/>
  <outline>
    <contour>
      <point x="338.0" y="-119" type="line" smooth="yes"/>
      <point x="401.0" y="-119"/>
      <point x="453.0" y="-101"/>
      <point x="490.0" y="-70" type="curve" smooth="yes"/>
      <point x="619.0" y="39" type="line" smooth="yes"/>
      <point x="664.0" y="77"/>
      <point x="690.0" y="134"/>
      <point x="690.0" y="210" type="curve" smooth="yes"/>
      <point x="690.0" y="684" type="line" smooth="yes"/>
      <point x="690.0" y="716"/>
      <point x="676.0" y="730"/>
      <point x="644.0" y="730" type="curve" smooth="yes"/>
      <point x="489.0" y="730" type="line" smooth="yes"/>
      <point x="475.0" y="730"/>
      <point x="464.0" y="727"/>
      <point x="457.0" y="721" type="curve" smooth="yes"/>
      <point x="306.0" y="593" type="line" smooth="yes"/>
      <point x="306.0" y="684" type="line" smooth="yes"/>
      <point x="306.0" y="716"/>
      <point x="292.0" y="730"/>
      <point x="260.0" y="730" type="curve" smooth="yes"/>
      <point x="105.0" y="730" type="line" smooth="yes"/>
      <point x="91.0" y="730"/>
      <point x="80.0" y="727"/>
      <point x="73.0" y="721" type="curve" smooth="yes"/>
      <point x="-56.0" y="612" type="line" smooth="yes"/>
      <point x="-65.0" y="604"/>
      <point x="-70.0" y="593"/>
      <point x="-70.0" y="575" type="curve" smooth="yes"/>
      <point x="-70.0" y="237" type="line" smooth="yes"/>
      <point x="-70.0" y="205"/>
      <point x="-56.0" y="191"/>
      <point x="-24.0" y="191" type="curve" smooth="yes"/>
      <point x="69.0" y="191" type="line"/>
      <point x="-56.0" y="85" type="line" smooth="yes"/>
      <point x="-65.0" y="77"/>
      <point x="-70.0" y="66"/>
      <point x="-70.0" y="48" type="curve" smooth="yes"/>
      <point x="-70.0" y="-73" type="line" smooth="yes"/>
      <point x="-70.0" y="-105"/>
      <point x="-56.0" y="-119"/>
      <point x="-24.0" y="-119" type="curve" smooth="yes"/>
    </contour>
    <contour>
      <point x="164.0" y="203" type="line"/>
      <point x="292.0" y="309" type="line" smooth="yes"/>
      <point x="292.0" y="203" type="line"/>
    </contour>
  </outline>
</glyph>
<glyph name="Eng" format="2">
  <advance width="746"/>
  <unicode hex="014A"/>
  <outline>
    <contour>
      <point x="307.0" y="-209" type="line" smooth="yes"/>
      <point x="399.0" y="-209"/>
      <point x="460.0" y="-189"/>
      <point x="500.0" y="-156" type="curve" smooth="yes"/>
      <point x="629.0" y="-47" type="line" smooth="yes"/>
      <point x="675.0" y="-9"/>
      <point x="692.0" y="47"/>
      <point x="692.0" y="114" type="curve" smooth="yes"/>
      <point x="692.0" y="531" type="line" smooth="yes"/>
      <point x="692.0" y="657"/>
      <point x="633.0" y="745"/>
      <point x="373.0" y="745" type="curve" smooth="yes"/>
      <point x="240.0" y="745"/>
      <point x="161.0" y="722"/>
      <point x="114.0" y="683" type="curve" smooth="yes"/>
      <point x="-15.0" y="574" type="line" smooth="yes"/>
      <point x="-60.0" y="537"/>
      <point x="-75.0" y="484"/>
      <point x="-75.0" y="422" type="curve" smooth="yes"/>
      <point x="-75.0" y="-73" type="line" smooth="yes"/>
      <point x="-75.0" y="-105"/>
      <point x="-61.0" y="-119"/>
      <point x="-29.0" y="-119" type="curve" smooth="yes"/>
      <point x="123.0" y="-119" type="line" smooth="yes"/>
      <point x="136.0" y="-119"/>
      <point x="147.0" y="-115"/>
      <point x="155.0" y="-110" type="curve" smooth="yes"/>
      <point x="216.0" y="-59" type="line"/>
      <point x="216.0" y="-163" type="line" smooth="yes"/>
      <point x="216.0" y="-195"/>
      <point x="230.0" y="-209"/>
      <point x="262.0" y="-209" type="curve" smooth="yes"/>
    </contour>
    <contour>
      <point x="314.0" y="383" type="curve" smooth="yes"/>
      <point x="314.0" y="64" type="line"/>
      <point x="298.0" y="50" type="line"/>
      <point x="298.0" y="412" type="line"/>
      <point x="310.0" y="405"/>
      <point x="314.0" y="395"/>
    </contour>
  </outline>
</glyph>
<glyph name="ringhalfright" format="2">
  <advance width="312"/>
  <unicode hex="02BE"/>
  <outline>
    <contour>
      <point x="-74.0" y="264" type="curve" smooth="yes"/>
      <point x="35.0" y="264" type="line" smooth="yes"/>
      <point x="77.0" y="264"/>
      <point x="108.0" y="273"/>
      <point x="128.0" y="290" type="curve" smooth="yes"/>
      <point x="257.0" y="399" type="line" smooth="yes"/>
      <point x="278.0" y="416"/>
      <point x="289.0" y="442"/>
      <point x="289.0" y="478" type="curve" smooth="yes"/>
      <point x="289.0" y="624" type="line" smooth="yes"/>
      <point x="289.0" y="695"/>
      <point x="250.0" y="730"/>
      <point x="164.0" y="730" type="curve" smooth="yes"/>
      <point x="55.0" y="730" type="line" smooth="yes"/>
      <point x="45.0" y="730"/>
      <point x="39.0" y="727"/>
      <point x="33.0" y="723" type="curve"/>
      <point x="-96.0" y="615" type="line" smooth="yes"/>
      <point x="-103.0" y="609"/>
      <point x="-106.0" y="601"/>
      <point x="-106.0" y="589" type="curve" smooth="yes"/>
      <point x="-106.0" y="512" type="line" smooth="yes"/>
      <point x="-106.0" y="492"/>
      <point x="-97.0" y="480"/>
      <point x="-74.0" y="480" type="curve" smooth="yes"/>
      <point x="-25.0" y="480" type="line" smooth="yes"/>
      <point x="-16.0" y="480"/>
      <point x="-10.0" y="478"/>
      <point x="-8.0" y="471" type="curve"/>
      <point x="-97.0" y="397" type="line"/>
      <point x="-103.0" y="393"/>
      <point x="-106.0" y="385"/>
      <point x="-106.0" y="371" type="curve" smooth="yes"/>
      <point x="-106.0" y="296" type="line" smooth="yes"/>
      <point x="-106.0" y="273"/>
      <point x="-97.0" y="264"/>
    </contour>
  </outline>
</glyph>
<glyph name="dotaccent" format="2">
  <advance width="500"/>
  <unicode hex="02D9"/>
  <anchor x="250.0" y="747.0" name="_top"/>
  <anchor x="250.0" y="0.0" name="_bottom"/>
  <outline>
    <contour>
      <point x="201.0" y="641" type="line" smooth="yes"/>
      <point x="215.0" y="641"/>
      <point x="226.0" y="645"/>
      <point x="232.0" y="651" type="curve"/>
      <point x="362.0" y="759" type="line" smooth="yes"/>
      <point x="371.0" y="767"/>
      <point x="376.0" y="778"/>
      <point x="376.0" y="796" type="curve" smooth="yes"/>
      <point x="376.0" y="923" type="line" smooth="yes"/>
      <point x="376.0" y="955"/>
      <point x="362.0" y="969"/>
      <point x="330.0" y="969" type="curve" smooth="yes"/>
      <point x="172.0" y="969" type="line" smooth="yes"/>
      <point x="158.0" y="969"/>
      <point x="147.0" y="966"/>
      <point x="140.0" y="960" type="curve" smooth="yes"/>
      <point x="11.0" y="851" type="line" smooth="yes"/>
      <point x="2.0" y="843"/>
      <point x="-3.0" y="832"/>
      <point x="-3.0" y="814" type="curve"/>
      <point x="-3.0" y="687" type="line"/>
      <point x="-3.0" y="655"/>
      <point x="11.0" y="641"/>
      <point x="43.0" y="641" type="curve" smooth="yes"/>
    </contour>
  </outline>
</glyph>
<glyph name="ring" format="1">
  <advance width="500"/>
  <unicode hex="02DA"/>
  <outline>
    <contour>
      <point x="304.0" y="680" type="curve" smooth="yes"/>
      <point x="433.0" y="788" type="line" smooth="yes"/>
      <point x="466.0" y="815"/>
      <point x="477.0" y="853"/>
      <point x="477.0" y="897" type="curve" smooth="yes"/>
      <point x="477.0" y="995" type="line" smooth="yes"/>
      <point x="477.0" y="1084"/>
      <point x="436.0" y="1148"/>
      <point x="250.0" y="1148" type="curve" smooth="yes"/>
      <point x="157.0" y="1148"/>
      <point x="100.0" y="1131"/>
      <point x="67.0" y="1104" type="curve" smooth="yes"/>
      <point x="-63.0" y="995" type="line" smooth="yes"/>
      <point x="-96.0" y="968"/>
      <point x="-106.0" y="930"/>
      <point x="-106.0" y="886" type="curve" smooth="yes"/>
      <point x="-106.0" y="788" type="line" smooth="yes"/>
      <point x="-106.0" y="699"/>
      <point x="-65.0" y="635"/>
      <point x="121.0" y="635" type="curve" smooth="yes"/>
      <point x="215.0" y="635"/>
      <point x="271.0" y="652"/>
    </contour>
    <contour>
      <point x="250.0" y="747.0" type="move" name="_top"/>
    </contour>
    <contour>
      <point x="250.0" y="0.0" type="move" name="_bottom"/>
    </contour>
  </outline>
</glyph>
<glyph name="ogonek" format="2">
  <advance width="500"/>
  <unicode hex="02DB"/>
  <anchor x="250.0" y="747.0" name="_top"/>
  <anchor x="250.0" y="0.0" name="_bottom"/>
  <outline>
    <contour>
      <point x="105.0" y="-305" type="curve" smooth="yes"/>
      <point x="216.0" y="-305" type="line" smooth="yes"/>
      <point x="230.0" y="-305"/>
      <point x="240.0" y="-302"/>
      <point x="246.0" y="-297" type="curve" smooth="yes"/>
      <point x="377.0" y="-188" type="line" smooth="yes"/>
      <point x="384.0" y="-181"/>
      <point x="388.0" y="-170"/>
      <point x="388.0" y="-152" type="curve" smooth="yes"/>
      <point x="388.0" y="-80" type="line" smooth="yes"/>
      <point x="388.0" y="-47"/>
      <point x="378.0" y="-36"/>
      <point x="342.0" y="-36" type="curve" smooth="yes"/>
      <point x="313.0" y="-36" type="line"/>
      <point x="329.0" y="77" type="line"/>
      <point x="150.0" y="77" type="line"/>
      <point x="16.0" y="-37" type="line"/>
      <point x="-6.0" y="-158" type="line" smooth="yes"/>
      <point x="-21.0" y="-261"/>
      <point x="12.0" y="-305"/>
    </contour>
  </outline>
</glyph>
<glyph name="tilde" format="2">
  <advance width="500"/>
  <unicode hex="02DC"/>
  <anchor x="250.0" y="747.0" name="_top"/>
  <anchor x="250.0" y="0.0" name="_bottom"/>
  <outline>
    <contour>
      <point x="296.0" y="648" type="curve" smooth="yes"/>
      <point x="296.0" y="649" type="line"/>
      <point x="297.0" y="649" type="line" smooth="yes"/>
      <point x="308.0" y="653"/>
      <point x="317.0" y="658"/>
      <point x="323.0" y="663" type="curve" smooth="yes"/>
      <point x="453.0" y="772" type="line" smooth="yes"/>
      <point x="462.0" y="780"/>
      <point x="468.0" y="790"/>
      <point x="468.0" y="808" type="curve" smooth="yes"/>
      <point x="468.0" y="909" type="line" smooth="yes"/>
      <point x="468.0" y="943"/>
      <point x="452.0" y="954"/>
      <point x="419.0" y="945" type="curve" smooth="yes"/>
      <point x="362.0" y="927"/>
      <point x="358.0" y="924"/>
      <point x="272.0" y="937" type="curve" smooth="yes"/>
      <point x="250.0" y="940" type="line"/>
      <point x="233.0" y="942" type="line" smooth="yes"/>
      <point x="151.0" y="954"/>
      <point x="138.0" y="956"/>
      <point x="73.0" y="937" type="curve" smooth="yes"/>
      <point x="73.0" y="936" type="line"/>
      <point x="72.0" y="936" type="line" smooth="yes"/>
      <point x="61.0" y="932"/>
      <point x="51.0" y="927"/>
      <point x="45.0" y="922" type="curve" smooth="yes"/>
      <point x="-84.0" y="814" type="line" smooth="yes"/>
      <point x="-95.0" y="805"/>
      <point x="-99.0" y="795"/>
      <point x="-99.0" y="777" type="curve" smooth="yes"/>
      <point x="-99.0" y="676" type="line" smooth="yes"/>
      <point x="-99.0" y="642"/>
      <point x="-83.0" y="631"/>
      <point x="-50.0" y="640" type="curve" smooth="yes"/>
      <point x="1.0" y="656"/>
      <point x="17.0" y="660"/>
      <point x="91.0" y="649" type="curve" smooth="yes"/>
      <point x="119.0" y="645" type="line"/>
      <point x="135.0" y="643" type="line"/>
      <point x="217.0" y="631"/>
      <point x="231.0" y="629"/>
    </contour>
  </outline>
</glyph>
<glyph name="quoteright" format="2">
  <advance width="384"/>
  <unicode hex="2019"/>
  <outline>
    <contour>
      <point x="-25.0" y="226" type="curve" smooth="yes"/>
      <point x="52.0" y="226" type="line" smooth="yes"/>
      <point x="96.0" y="226"/>
      <point x="133.0" y="238"/>
      <point x="159.0" y="260" type="curve" smooth="yes"/>
      <point x="289.0" y="369" type="line" smooth="yes"/>
      <point x="320.0" y="396"/>
      <point x="339.0" y="437"/>
      <point x="339.0" y="496" type="curve" smooth="yes"/>
      <point x="339.0" y="684" type="line" smooth="yes"/>
      <point x="339.0" y="716"/>
      <point x="325.0" y="730"/>
      <point x="293.0" y="730" type="curve" smooth="yes"/>
      <point x="91.0" y="730" type="line" smooth="yes"/>
      <point x="77.0" y="730"/>
      <point x="66.0" y="727"/>
      <point x="59.0" y="721" type="curve" smooth="yes"/>
      <point x="-70.0" y="612" type="line" smooth="yes"/>
      <point x="-79.0" y="604"/>
      <point x="-84.0" y="593"/>
      <point x="-84.0" y="575" type="curve" smooth="yes"/>
      <point x="-84.0" y="427" type="line" smooth="yes"/>
      <point x="-84.0" y="395"/>
      <point x="-70.0" y="381"/>
      <point x="-38.0" y="381" type="curve" smooth="yes"/>
      <point x="-19.0" y="381" type="line"/>
      <point x="-57.0" y="349" type="line" smooth="yes"/>
      <point x="-66.0" y="341"/>
      <point x="-71.0" y="330"/>
      <point x="-71.0" y="312" type="curve" smooth="yes"/>
      <point x="-71.0" y="272" type="line" smooth="yes"/>
      <point x="-71.0" y="239"/>
      <point x="-57.0" y="226"/>
    </contour>
  </outline>
</glyph>
<glyph name="quotedblright" format="1">
  <advance width="684"/>
  <unicode hex="201D"/>
  <outline>
    <contour>
      <point x="149.0" y="260" type="curve"/>
      <point x="246.0" y="342" type="line"/>
      <point x="241.0" y="335"/>
      <point x="239.0" y="325"/>
      <point x="239.0" y="312" type="curve" smooth="yes"/>
      <point x="239.0" y="272" type="line" smooth="yes"/>
      <point x="239.0" y="239"/>
      <point x="253.0" y="226"/>
      <point x="285.0" y="226" type="curve" smooth="yes"/>
      <point x="362.0" y="226" type="line" smooth="yes"/>
      <point x="406.0" y="226"/>
      <point x="443.0" y="238"/>
      <point x="469.0" y="260" type="curve" smooth="yes"/>
      <point x="599.0" y="369" type="line" smooth="yes"/>
      <point x="630.0" y="396"/>
      <point x="649.0" y="437"/>
      <point x="649.0" y="496" type="curve" smooth="yes"/>
      <point x="649.0" y="684" type="line" smooth="yes"/>
      <point x="649.0" y="716"/>
      <point x="635.0" y="730"/>
      <point x="603.0" y="730" type="curve" smooth="yes"/>
      <point x="401.0" y="730" type="line" smooth="yes"/>
      <point x="387.0" y="730"/>
      <point x="376.0" y="727"/>
      <point x="369.0" y="721" type="curve" smooth="yes"/>
      <point x="329.0" y="687" type="line"/>
      <point x="328.0" y="717"/>
      <point x="313.0" y="730"/>
      <point x="283.0" y="730" type="curve" smooth="yes"/>
      <point x="81.0" y="730" type="line" smooth="yes"/>
      <point x="67.0" y="730"/>
      <point x="56.0" y="727"/>
      <point x="49.0" y="721" type="curve" smooth="yes"/>
      <point x="-80.0" y="612" type="line" smooth="yes"/>
      <point x="-89.0" y="604"/>
      <point x="-94.0" y="593"/>
      <point x="-94.0" y="575" type="curve" smooth="yes"/>
      <point x="-94.0" y="427" type="line" smooth="yes"/>
      <point x="-94.0" y="395"/>
      <point x="-80.0" y="381"/>
      <point x="-48.0" y="381" type="curve" smooth="yes"/>
      <point x="-29.0" y="381" type="line"/>
      <point x="-67.0" y="349" type="line" smooth="yes"/>
      <point x="-76.0" y="341"/>
      <point x="-81.0" y="330"/>
      <point x="-81.0" y="312" type="curve" smooth="yes"/>
      <point x="-81.0" y="272" type="line" smooth="yes"/>
      <point x="-81.0" y="239"/>
      <point x="-67.0" y="226"/>
      <point x="-35.0" y="226" type="curve" smooth="yes"/>
      <point x="42.0" y="226" type="line" smooth="yes"/>
      <point x="86.0" y="226"/>
      <point x="123.0" y="238"/>
    </contour>
  </outline>
</glyph>
<glyph name="quotedblbase" format="2">
  <advance width="684"/>
  <unicode hex="201E"/>
  <outline>
    <contour>
      <point x="149.0" y="-185" type="curve"/>
      <point x="246.0" y="-103" type="line"/>
      <point x="241.0" y="-110"/>
      <point x="239.0" y="-120"/>
      <point x="239.0" y="-133" type="curve" smooth="yes"/>
      <point x="239.0" y="-173" type="line" smooth="yes"/>
      <point x="239.0" y="-206"/>
      <point x="253.0" y="-219"/>
      <point x="285.0" y="-219" type="curve" smooth="yes"/>
      <point x="362.0" y="-219" type="line" smooth="yes"/>
      <point x="406.0" y="-219"/>
      <point x="443.0" y="-207"/>
      <point x="469.0" y="-185" type="curve" smooth="yes"/>
      <point x="599.0" y="-76" type="line" smooth="yes"/>
      <point x="630.0" y="-49"/>
      <point x="649.0" y="-8"/>
      <point x="649.0" y="51" type="curve" smooth="yes"/>
      <point x="649.0" y="239" type="line" smooth="yes"/>
      <point x="649.0" y="271"/>
      <point x="635.0" y="285"/>
      <point x="603.0" y="285" type="curve" smooth="yes"/>
      <point x="401.0" y="285" type="line" smooth="yes"/>
      <point x="387.0" y="285"/>
      <point x="376.0" y="282"/>
      <point x="369.0" y="276" type="curve" smooth="yes"/>
      <point x="329.0" y="242" type="line"/>
      <point x="328.0" y="272"/>
      <point x="313.0" y="285"/>
      <point x="283.0" y="285" type="curve" smooth="yes"/>
      <point x="81.0" y="285" type="line" smooth="yes"/>
      <point x="67.0" y="285"/>
      <point x="56.0" y="282"/>
      <point x="49.0" y="276" type="curve" smooth="yes"/>
      <point x="-80.0" y="167" type="line" smooth="yes"/>
      <point x="-89.0" y="159"/>
      <point x="-94.0" y="148"/>
      <point x="-94.0" y="130" type="curve" smooth="yes"/>
      <point x="-94.0" y="-18" type="line" smooth="yes"/>
      <point x="-94.0" y="-50"/>
      <point x="-80.0" y="-64"/>
      <point x="-48.0" y="-64" type="curve" smooth="yes"/>
      <point x="-29.0" y="-64" type="line"/>
      <point x="-67.0" y="-96" type="line" smooth="yes"/>
      <point x="-76.0" y="-104"/>
      <point x="-81.0" y="-115"/>
      <point x="-81.0" y="-133" type="curve" smooth="yes"/>
      <point x="-81.0" y="-173" type="line" smooth="yes"/>
      <point x="-81.0" y="-206"/>
      <point x="-67.0" y="-219"/>
      <point x="-35.0" y="-219" type="curve" smooth="yes"/>
      <point x="42.0" y="-219" type="line" smooth="yes"/>
      <point x="86.0" y="-219"/>
      <point x="123.0" y="-207"/>
    </contour>
  </outline>
</glyph>
<glyph name="ellipsis" format="2">
  <advance width="1110"/>
  <unicode hex="2026"/>
  <outline>
    <contour>
      <point x="279.0" y="-39" type="line"/>
      <point x="279.0" y="-73" type="line" smooth="yes"/>
      <point x="279.0" y="-105"/>
      <point x="293.0" y="-119"/>
      <point x="325.0" y="-119" type="curve" smooth="yes"/>
      <point x="527.0" y="-119" type="line" smooth="yes"/>
      <point x="541.0" y="-119"/>
      <point x="552.0" y="-115"/>
      <point x="558.0" y="-109" type="curve"/>
      <point x="642.0" y="-39" type="line"/>
      <point x="642.0" y="-73" type="line" smooth="yes"/>
      <point x="642.0" y="-105"/>
      <point x="656.0" y="-119"/>
      <point x="688.0" y="-119" type="curve" smooth="yes"/>
      <point x="890.0" y="-119" type="line" smooth="yes"/>
      <point x="904.0" y="-119"/>
      <point x="915.0" y="-115"/>
      <point x="921.0" y="-109" type="curve"/>
      <point x="1051.0" y="-1" type="line" smooth="yes"/>
      <point x="1060.0" y="7"/>
      <point x="1065.0" y="18"/>
      <point x="1065.0" y="36" type="curve" smooth="yes"/>
      <point x="1065.0" y="239" type="line" smooth="yes"/>
      <point x="1065.0" y="272"/>
      <point x="1051.0" y="285"/>
      <point x="1019.0" y="285" type="curve" smooth="yes"/>
      <point x="817.0" y="285" type="line" smooth="yes"/>
      <point x="802.0" y="285"/>
      <point x="792.0" y="282"/>
      <point x="785.0" y="276" type="curve" smooth="yes"/>
      <point x="702.0" y="206" type="line"/>
      <point x="702.0" y="239" type="line" smooth="yes"/>
      <point x="702.0" y="272"/>
      <point x="688.0" y="285"/>
      <point x="656.0" y="285" type="curve" smooth="yes"/>
      <point x="454.0" y="285" type="line" smooth="yes"/>
      <point x="439.0" y="285"/>
      <point x="429.0" y="282"/>
      <point x="422.0" y="276" type="curve" smooth="yes"/>
      <point x="339.0" y="206" type="line"/>
      <point x="339.0" y="239" type="line" smooth="yes"/>
      <point x="339.0" y="272"/>
      <point x="325.0" y="285"/>
      <point x="293.0" y="285" type="curve" smooth="yes"/>
      <point x="91.0" y="285" type="line" smooth="yes"/>
      <point x="76.0" y="285"/>
      <point x="66.0" y="282"/>
      <point x="59.0" y="276" type="curve" smooth="yes"/>
      <point x="-71.0" y="167" type="line" smooth="yes"/>
      <point x="-79.0" y="160"/>
      <point x="-84.0" y="148"/>
      <point x="-84.0" y="130" type="curve" smooth="yes"/>
      <point x="-84.0" y="-73" type="line" smooth="yes"/>
      <point x="-84.0" y="-105"/>
      <point x="-70.0" y="-119"/>
      <point x="-38.0" y="-119" type="curve" smooth="yes"/>
      <point x="164.0" y="-119" type="line" smooth="yes"/>
      <point x="178.0" y="-119"/>
      <point x="189.0" y="-115"/>
      <point x="195.0" y="-109" type="curve"/>
    </contour>
  </outline>
</glyph>
<glyph name="minute" format="2">
  <advance width="356"/>
  <unicode hex="2032"/>
  <outline>
    <contour>
      <point x="111.0" y="226" type="line" smooth="yes"/>
      <point x="129.0" y="226"/>
      <point x="140.0" y="229"/>
      <point x="147.0" y="235" type="curve" smooth="yes"/>
      <point x="277.0" y="344" type="line" smooth="yes"/>
      <point x="286.0" y="352"/>
      <point x="290.0" y="363"/>
      <point x="292.0" y="385" type="curve" smooth="yes"/>
      <point x="320.0" y="678" type="line" smooth="yes"/>
      <point x="324.0" y="720"/>
      <point x="312.0" y="730"/>
      <point x="271.0" y="730" type="curve" smooth="yes"/>
      <point x="106.0" y="730" type="line" smooth="yes"/>
      <point x="88.0" y="730"/>
      <point x="76.0" y="726"/>
      <point x="69.0" y="721" type="curve"/>
      <point x="-60.0" y="613" type="line" smooth="yes"/>
      <point x="-69.0" y="605"/>
      <point x="-73.0" y="593"/>
      <point x="-73.0" y="570" type="curve"/>
      <point x="-85.0" y="277" type="line" smooth="yes"/>
      <point x="-86.0" y="236"/>
      <point x="-74.0" y="226"/>
      <point x="-33.0" y="226" type="curve" smooth="yes"/>
    </contour>
  </outline>
</glyph>
<glyph name="eight.sups" format="2">
  <advance width="538"/>
  <unicode hex="2078"/>
  <outline>
    <contour>
      <point x="140.0" y="72" type="curve" smooth="yes"/>
      <point x="241.0" y="72"/>
      <point x="300.0" y="89"/>
      <point x="333.0" y="117" type="curve" smooth="yes"/>
      <point x="462.0" y="226" type="line" smooth="yes"/>
      <point x="491.0" y="249"/>
      <point x="501.0" y="280"/>
      <point x="501.0" y="316" type="curve" smooth="yes"/>
      <point x="501.0" y="386" type="line" smooth="yes"/>
      <point x="501.0" y="449"/>
      <point x="475.0" y="485"/>
      <point x="439.0" y="501" type="curve"/>
      <point x="459.0" y="518"/>
      <point x="467.0" y="544"/>
      <point x="467.0" y="576" type="curve" smooth="yes"/>
      <point x="467.0" y="617" type="line" smooth="yes"/>
      <point x="467.0" y="692"/>
      <point x="428.0" y="741"/>
      <point x="270.0" y="741" type="curve" smooth="yes"/>
      <point x="186.0" y="741"/>
      <point x="136.0" y="727"/>
      <point x="106.0" y="702" type="curve" smooth="yes"/>
      <point x="-23.0" y="594" type="line" smooth="yes"/>
      <point x="-49.0" y="573"/>
      <point x="-58.0" y="543"/>
      <point x="-58.0" y="508" type="curve" smooth="yes"/>
      <point x="-58.0" y="467" type="line" smooth="yes"/>
      <point x="-58.0" y="436"/>
      <point x="-52.0" y="412"/>
      <point x="-33.0" y="395" type="curve"/>
      <point x="-53.0" y="378" type="line" smooth="yes"/>
      <point x="-76.0" y="358"/>
      <point x="-92" y="326"/>
      <point x="-92.0" y="277" type="curve" smooth="yes"/>
      <point x="-92" y="217" type="line" smooth="yes"/>
      <point x="-92" y="140"/>
      <point x="-47.0" y="72"/>
    </contour>
  </outline>
</glyph>
<glyph name="nine.sups" format="1">
  <advance width="528"/>
  <unicode hex="2079"/>
  <outline>
    <contour>
      <point x="-2.0" y="83" type="curve" smooth="yes"/>
      <point x="164.0" y="83" type="line" smooth="yes"/>
      <point x="230.0" y="83"/>
      <point x="275.0" y="98"/>
      <point x="304.0" y="122" type="curve" smooth="yes"/>
      <point x="433.0" y="230" type="line" smooth="yes"/>
      <point x="467.0" y="258"/>
      <point x="480.0" y="300"/>
      <point x="480.0" y="350" type="curve" smooth="yes"/>
      <point x="480.0" y="586" type="line" smooth="yes"/>
      <point x="480.0" y="678"/>
      <point x="443.0" y="741"/>
      <point x="254.0" y="741" type="curve" smooth="yes"/>
      <point x="167.0" y="741"/>
      <point x="113.0" y="725"/>
      <point x="81.0" y="698" type="curve" smooth="yes"/>
      <point x="-48.0" y="590" type="line" smooth="yes"/>
      <point x="-81.0" y="563"/>
      <point x="-92.0" y="524"/>
      <point x="-92.0" y="477" type="curve" smooth="yes"/>
      <point x="-92.0" y="408" type="line" smooth="yes"/>
      <point x="-92.0" y="333"/>
      <point x="-65.0" y="287"/>
      <point x="21.0" y="273" type="curve"/>
      <point x="-26.0" y="233" type="line" smooth="yes"/>
      <point x="-33.0" y="227"/>
      <point x="-37.0" y="218"/>
      <point x="-37.0" y="204" type="curve" smooth="yes"/>
      <point x="-37.0" y="119" type="line" smooth="yes"/>
      <point x="-37.0" y="94"/>
      <point x="-27.0" y="83"/>
    </contour>
  </outline>
</glyph>
<glyph name="Euro" format="2">
  <advance width="648"/>
  <unicode hex="20AC"/>
  <outline>
    <contour>
      <point x="439.0" y="-119" type="line" smooth="yes"/>
      <point x="453.0" y="-119"/>
      <point x="464.0" y="-115"/>
      <point x="470.0" y="-109" type="curve"/>
      <point x="600.0" y="-1" type="line" smooth="yes"/>
      <point x="609.0" y="7"/>
      <point x="614.0" y="18"/>
      <point x="614.0" y="36" type="curve" smooth="yes"/>
      <point x="614.0" y="145" type="line" smooth="yes"/>
      <point x="614.0" y="177"/>
      <point x="600.0" y="191"/>
      <point x="568.0" y="191" type="curve" smooth="yes"/>
      <point x="471.0" y="191" type="line"/>
      <point x="501.0" y="216" type="line" smooth="yes"/>
      <point x="507.0" y="221"/>
      <point x="510.0" y="228"/>
      <point x="510.0" y="242" type="curve" smooth="yes"/>
      <point x="510.0" y="314" type="line" smooth="yes"/>
      <point x="510.0" y="341"/>
      <point x="500.0" y="348"/>
      <point x="476.0" y="348" type="curve" smooth="yes"/>
      <point x="468.0" y="348" type="line"/>
      <point x="501.0" y="376" type="line" smooth="yes"/>
      <point x="507.0" y="381"/>
      <point x="510.0" y="388"/>
      <point x="510.0" y="402" type="curve" smooth="yes"/>
      <point x="510.0" y="460" type="line"/>
      <point x="600.0" y="536" type="line" smooth="yes"/>
      <point x="609.0" y="544"/>
      <point x="614.0" y="555"/>
      <point x="614.0" y="573" type="curve" smooth="yes"/>
      <point x="614.0" y="684" type="line" smooth="yes"/>
      <point x="614.0" y="716"/>
      <point x="600.0" y="730"/>
      <point x="568.0" y="730" type="curve" smooth="yes"/>
      <point x="324.0" y="730" type="line" smooth="yes"/>
      <point x="232.0" y="730"/>
      <point x="170.0" y="711"/>
      <point x="131.0" y="678" type="curve" smooth="yes"/>
      <point x="2.0" y="569" type="line" smooth="yes"/>
      <point x="-41.0" y="533"/>
      <point x="-59.0" y="480"/>
      <point x="-61.0" y="417" type="curve"/>
      <point x="-89.0" y="393" type="line" smooth="yes"/>
      <point x="-96.0" y="387"/>
      <point x="-99.0" y="380"/>
      <point x="-99.0" y="365" type="curve" smooth="yes"/>
      <point x="-99.0" y="293" type="line" smooth="yes"/>
      <point x="-99.0" y="266"/>
      <point x="-89.0" y="260"/>
      <point x="-65.0" y="260" type="curve" smooth="yes"/>
      <point x="-61.0" y="260" type="line"/>
      <point x="-61.0" y="257" type="line"/>
      <point x="-89.0" y="233" type="line" smooth="yes"/>
      <point x="-96.0" y="227"/>
      <point x="-99.0" y="220"/>
      <point x="-99.0" y="205" type="curve" smooth="yes"/>
      <point x="-99.0" y="133" type="line" smooth="yes"/>
      <point x="-99.0" y="106"/>
      <point x="-89.0" y="100"/>
      <point x="-65.0" y="100" type="curve" smooth="yes"/>
      <point x="-61.0" y="100" type="line"/>
      <point x="-61.0" y="95" type="line" smooth="yes"/>
      <point x="-61.0" y="-31"/>
      <point x="-3.0" y="-119"/>
      <point x="195.0" y="-119" type="curve" smooth="yes"/>
    </contour>
  </outline>
</glyph>
<glyph name="uni2120" format="2">
  <advance width="903"/>
  <unicode hex="2120"/>
  <outline>
    <contour>
      <point x="218.0" y="198" type="curve" smooth="yes"/>
      <point x="287.0" y="256" type="line"/>
      <point x="287.0" y="204" type="line" smooth="yes"/>
      <point x="287.0" y="180"/>
      <point x="299.0" y="168"/>
      <point x="323.0" y="168" type="curve" smooth="yes"/>
      <point x="412.0" y="168" type="line" smooth="yes"/>
      <point x="421.0" y="168"/>
      <point x="430.0" y="171"/>
      <point x="436.0" y="176" type="curve" smooth="yes"/>
      <point x="565.0" y="284" type="line"/>
      <point x="568.0" y="287" type="line"/>
      <point x="568.0" y="204" type="line" smooth="yes"/>
      <point x="568.0" y="180"/>
      <point x="578.0" y="168"/>
      <point x="604.0" y="168" type="curve" smooth="yes"/>
      <point x="699.0" y="168" type="line" smooth="yes"/>
      <point x="708.0" y="168"/>
      <point x="717.0" y="171"/>
      <point x="723.0" y="176" type="curve" smooth="yes"/>
      <point x="852.0" y="284" type="line"/>
      <point x="853.0" y="285" type="line" smooth="yes"/>
      <point x="860.0" y="292"/>
      <point x="864.0" y="301"/>
      <point x="864.0" y="313" type="curve" smooth="yes"/>
      <point x="864.0" y="694" type="line" smooth="yes"/>
      <point x="864.0" y="719"/>
      <point x="852.0" y="730"/>
      <point x="828.0" y="730" type="curve" smooth="yes"/>
      <point x="733.0" y="730" type="line" smooth="yes"/>
      <point x="721.0" y="730"/>
      <point x="712.0" y="727"/>
      <point x="705.0" y="721" type="curve" smooth="yes"/>
      <point x="618.0" y="647" type="line"/>
      <point x="607.0" y="667"/>
      <point x="597.0" y="686"/>
      <point x="587.0" y="705" type="curve"/>
      <point x="576.0" y="722"/>
      <point x="565.0" y="730"/>
      <point x="546.0" y="730" type="curve" smooth="yes"/>
      <point x="452.0" y="730" type="line" smooth="yes"/>
      <point x="441.0" y="730"/>
      <point x="433.0" y="727"/>
      <point x="428.0" y="723" type="curve"/>
      <point x="362.0" y="667" type="line"/>
      <point x="362.0" y="698" type="line" smooth="yes"/>
      <point x="362.0" y="720"/>
      <point x="352.0" y="730"/>
      <point x="330.0" y="730" type="curve" smooth="yes"/>
      <point x="163.0" y="730" type="line" smooth="yes"/>
      <point x="121.0" y="730"/>
      <point x="88.0" y="720"/>
      <point x="65.0" y="701" type="curve" smooth="yes"/>
      <point x="-63.0" y="592" type="line" smooth="yes"/>
      <point x="-87.0" y="572"/>
      <point x="-100.0" y="544"/>
      <point x="-100.0" y="505" type="curve" smooth="yes"/>
      <point x="-100.0" y="441" type="line" smooth="yes"/>
      <point x="-100.0" y="384"/>
      <point x="-78.0" y="355"/>
      <point x="-41.0" y="340" type="curve"/>
      <point x="-91.0" y="298" type="line"/>
      <point x="-97.0" y="294"/>
      <point x="-100.0" y="286"/>
      <point x="-100.0" y="273" type="curve" smooth="yes"/>
      <point x="-100.0" y="200" type="line" smooth="yes"/>
      <point x="-100.0" y="178"/>
      <point x="-91.0" y="168"/>
      <point x="-69.0" y="168" type="curve" smooth="yes"/>
      <point x="121.0" y="168" type="line" smooth="yes"/>
      <point x="162.0" y="168"/>
      <point x="195.0" y="179"/>
    </contour>
  </outline>
</glyph>
<glyph name="arrowright" format="1">
  <advance width="1000"/>
  <unicode hex="2192"/>
  <outline>
    <contour>
      <point x="326.0" y="-38" type="curve" smooth="yes"/>
      <point x="673.0" y="196" type="line" smooth="yes"/>
      <point x="677.0" y="199"/>
      <point x="681.0" y="202"/>
      <point x="685.0" y="205" type="curve"/>
      <point x="814.0" y="314" type="line" smooth="yes"/>
      <point x="829.0" y="326"/>
      <point x="837.0" y="340"/>
      <point x="837.0" y="359" type="curve" smooth="yes"/>
      <point x="837.0" y="385"/>
      <point x="824.0" y="400"/>
      <point x="801.0" y="414" type="curve" smooth="yes"/>
      <point x="455.0" y="648" type="line" smooth="yes"/>
      <point x="435.0" y="661"/>
      <point x="412.0" y="658"/>
      <point x="398.0" y="645" type="curve" smooth="yes"/>
      <point x="270.0" y="538" type="line" smooth="yes"/>
      <point x="261.0" y="531"/>
      <point x="257.0" y="522"/>
      <point x="257.0" y="511" type="curve" smooth="yes"/>
      <point x="257.0" y="467" type="line"/>
      <point x="217.0" y="469" type="line"/>
      <point x="204.0" y="469"/>
      <point x="194.0" y="466"/>
      <point x="188.0" y="461" type="curve" smooth="yes"/>
      <point x="59.0" y="353" type="line" smooth="yes"/>
      <point x="50.0" y="345"/>
      <point x="46.0" y="334"/>
      <point x="46.0" y="317" type="curve" smooth="yes"/>
      <point x="46.0" y="184" type="line" smooth="yes"/>
      <point x="46.0" y="155"/>
      <point x="59.0" y="140"/>
      <point x="87.0" y="141" type="curve" smooth="yes"/>
      <point x="257.0" y="151" type="line"/>
      <point x="257.0" y="-10" type="line" smooth="yes"/>
      <point x="257.0" y="-38"/>
      <point x="295.0" y="-59"/>
    </contour>
  </outline>
</glyph>
<glyph name="uni21AB" format="2">
  <advance width="1000"/>
  <unicode hex="21AB"/>
  <outline>
    <contour>
      <point x="433.0" y="-149" type="curve" smooth="yes"/>
      <point x="562.0" y="-40" type="line" smooth="yes"/>
      <point x="570.0" y="-34"/>
      <point x="575.0" y="-24"/>
      <point x="574.0" y="-14" type="curve" smooth="yes"/>
      <point x="574.0" y="-13" type="line"/>
      <point x="563.0" y="29" type="line"/>
      <point x="610.0" y="36"/>
      <point x="644.0" y="51"/>
      <point x="669.0" y="71" type="curve" smooth="yes"/>
      <point x="798.0" y="179" type="line" smooth="yes"/>
      <point x="838.0" y="213"/>
      <point x="853.0" y="262"/>
      <point x="853.0" y="321" type="curve" smooth="yes"/>
      <point x="853.0" y="582" type="line" smooth="yes"/>
      <point x="853.0" y="694"/>
      <point x="802.0" y="770"/>
      <point x="625.0" y="770" type="curve" smooth="yes"/>
      <point x="286.0" y="770" type="line" smooth="yes"/>
      <point x="274.0" y="770"/>
      <point x="265.0" y="767"/>
      <point x="259.0" y="762" type="curve" smooth="yes"/>
      <point x="130.0" y="653" type="line" smooth="yes"/>
      <point x="122.0" y="646"/>
      <point x="117.0" y="636"/>
      <point x="117.0" y="620" type="curve" smooth="yes"/>
      <point x="117.0" y="515" type="line" smooth="yes"/>
      <point x="117.0" y="484"/>
      <point x="130.0" y="475"/>
      <point x="157.0" y="475" type="curve" smooth="yes"/>
      <point x="476.0" y="475" type="line"/>
      <point x="182.0" y="277" type="line"/>
      <point x="178.0" y="274"/>
      <point x="173.0" y="271"/>
      <point x="169.0" y="268" type="curve"/>
      <point x="39.0" y="159" type="line" smooth="yes"/>
      <point x="26.0" y="147"/>
      <point x="19.0" y="135"/>
      <point x="19.0" y="117" type="curve"/>
      <point x="19.0" y="93"/>
      <point x="32.0" y="79"/>
      <point x="54.0" y="67" type="curve"/>
      <point x="377.0" y="-151" type="line" smooth="yes"/>
      <point x="395.0" y="-164"/>
      <point x="419.0" y="-160"/>
    </contour>
  </outline>
</glyph>
<glyph name="uni21B3" format="2">
  <advance width="1000"/>
  <unicode hex="21B3"/>
  <outline>
    <contour>
      <point x="356.0" y="-111" type="curve" smooth="yes"/>
      <point x="680.0" y="107" type="line"/>
      <point x="685.0" y="110"/>
      <point x="690.0" y="113"/>
      <point x="695.0" y="117" type="curve"/>
      <point x="823.0" y="226" type="line" smooth="yes"/>
      <point x="836.0" y="236"/>
      <point x="843.0" y="249"/>
      <point x="843.0" y="266" type="curve" smooth="yes"/>
      <point x="843.0" y="290"/>
      <point x="830.0" y="304"/>
      <point x="808.0" y="318" type="curve" smooth="yes"/>
      <point x="485.0" y="535" type="line"/>
      <point x="465.0" y="547"/>
      <point x="441.0" y="544"/>
      <point x="428.0" y="532" type="curve" smooth="yes"/>
      <point x="345.0" y="462" type="line"/>
      <point x="345.0" y="670" type="line"/>
      <point x="348.0" y="695"/>
      <point x="334.0" y="710"/>
      <point x="304.0" y="710" type="curve" smooth="yes"/>
      <point x="199.0" y="710" type="line" smooth="yes"/>
      <point x="186.0" y="710"/>
      <point x="177.0" y="707"/>
      <point x="171.0" y="702" type="curve" smooth="yes"/>
      <point x="41.0" y="593" type="line" smooth="yes"/>
      <point x="33.0" y="586"/>
      <point x="29.0" y="576"/>
      <point x="29.0" y="561" type="curve" smooth="yes"/>
      <point x="29.0" y="252" type="line"/>
      <point x="29.0" y="140"/>
      <point x="80.0" y="64"/>
      <point x="257.0" y="64" type="curve" smooth="yes"/>
      <point x="326.0" y="64" type="line"/>
      <point x="288.0" y="-82" type="line"/>
      <point x="288.0" y="-83" type="line" smooth="yes"/>
      <point x="286.0" y="-108"/>
      <point x="321.0" y="-135"/>
    </contour>
  </outline>
</glyph>
<glyph name="minus" format="1">
  <advance width="734"/>
  <unicode hex="2212"/>
  <outline>
    <contour>
      <point x="499.0" y="148" type="line" smooth="yes"/>
      <point x="512.0" y="148"/>
      <point x="523.0" y="152"/>
      <point x="531.0" y="157" type="curve" smooth="yes"/>
      <point x="660.0" y="266" type="line" smooth="yes"/>
      <point x="669.0" y="274"/>
      <point x="674.0" y="285"/>
      <point x="674.0" y="303" type="curve" smooth="yes"/>
      <point x="674.0" y="417" type="line" smooth="yes"/>
      <point x="674.0" y="450"/>
      <point x="660.0" y="463"/>
      <point x="628.0" y="463" type="curve" smooth="yes"/>
      <point x="106.0" y="463" type="line" smooth="yes"/>
      <point x="92.0" y="463"/>
      <point x="81.0" y="460"/>
      <point x="74.0" y="454" type="curve" smooth="yes"/>
      <point x="-55.0" y="345" type="line" smooth="yes"/>
      <point x="-64.0" y="337"/>
      <point x="-69.0" y="326"/>
      <point x="-69.0" y="308" type="curve" smooth="yes"/>
      <point x="-69.0" y="194" type="line" smooth="yes"/>
      <point x="-69.0" y="161"/>
      <point x="-55.0" y="148"/>
      <point x="-23.0" y="148" type="curve" smooth="yes"/>
    </contour>
  </outline>
</glyph>
<glyph name="integral" format="1">
  <advance width="474"/>
  <unicode hex="222B"/>
  <outline>
    <contour>
      <point x="-78.0" y="-209" type="curve" smooth="yes"/>
      <point x="-24.0" y="-209" type="line" smooth="yes"/>
      <point x="67.0" y="-209"/>
      <point x="129.0" y="-189"/>
      <point x="168.0" y="-156" type="curve" smooth="yes"/>
      <point x="298.0" y="-48" type="line" smooth="yes"/>
      <point x="344.0" y="-9"/>
      <point x="361.0" y="47"/>
      <point x="361.0" y="115" type="curve" smooth="yes"/>
      <point x="361.0" y="537" type="line"/>
      <point x="455.0" y="616" type="line" smooth="yes"/>
      <point x="464.0" y="624"/>
      <point x="469.0" y="635"/>
      <point x="469.0" y="653" type="curve" smooth="yes"/>
      <point x="469.0" y="774" type="line" smooth="yes"/>
      <point x="469.0" y="806"/>
      <point x="455.0" y="820"/>
      <point x="423.0" y="820" type="curve" smooth="yes"/>
      <point x="369.0" y="820" type="line" smooth="yes"/>
      <point x="277.0" y="820"/>
      <point x="215.0" y="801"/>
      <point x="176.0" y="768" type="curve" smooth="yes"/>
      <point x="47.0" y="659" type="line" smooth="yes"/>
      <point x="1.0" y="621"/>
      <point x="-16.0" y="564"/>
      <point x="-16.0" y="496" type="curve" smooth="yes"/>
      <point x="-16.0" y="74" type="line"/>
      <point x="-110.0" y="-5" type="line" smooth="yes"/>
      <point x="-119.0" y="-13"/>
      <point x="-124.0" y="-24"/>
      <point x="-124.0" y="-42" type="curve" smooth="yes"/>
      <point x="-124.0" y="-163" type="line" smooth="yes"/>
      <point x="-124.0" y="-195"/>
      <point x="-110.0" y="-209"/>
    </contour>
  </outline>
</glyph>
<glyph name="I.salt" format="2">
  <advance width="371"/>
  <unicode hex="E114"/>
  <anchor x="185.0" y="747.0" name="top"/>
  <anchor x="185.0" y="0.0" name="bottom"/>
  <outline>
    <contour>
      <point x="136.0" y="-119" type="line" smooth="yes"/>
      <point x="150.0" y="-119"/>
      <point x="161.0" y="-115"/>
      <point x="167.0" y="-109" type="curve"/>
      <point x="297.0" y="-1" type="line" smooth="yes"/>
      <point x="306.0" y="7"/>
      <point x="311.0" y="18"/>
      <point x="311.0" y="36" type="curve" smooth="yes"/>
      <point x="311.0" y="684" type="line" smooth="yes"/>
      <point x="311.0" y="716"/>
      <point x="297.0" y="730"/>
      <point x="265.0" y="730" type="curve" smooth="yes"/>
      <point x="106.0" y="730" type="line" smooth="yes"/>
      <point x="92.0" y="730"/>
      <point x="81.0" y="727"/>
      <point x="74.0" y="721" type="curve" smooth="yes"/>
      <point x="-55.0" y="612" type="line" smooth="yes"/>
      <point x="-64.0" y="604"/>
      <point x="-69.0" y="593"/>
      <point x="-69.0" y="575" type="curve" smooth="yes"/>
      <point x="-69.0" y="-73" type="line" smooth="yes"/>
      <point x="-69.0" y="-105"/>
      <point x="-55.0" y="-119"/>
      <point x="-23.0" y="-119" type="curve" smooth="yes"/>
    </contour>
  </outline>
</glyph>
<glyph name="Y.salt" format="2">
  <advance width="706"/>
  <unicode hex="E130"/>
  <anchor x="353.0" y="747.0" name="top"/>
  <anchor x="353.0" y="0.0" name="bottom"/>
  <outline>
    <contour>
      <point x="305.0" y="-119" type="line" smooth="yes"/>
      <point x="319.0" y="-119"/>
      <point x="330.0" y="-115"/>
      <point x="336.0" y="-109" type="curve"/>
      <point x="466.0" y="-1" type="line" smooth="yes"/>
      <point x="475.0" y="7"/>
      <point x="480.0" y="18"/>
      <point x="480.0" y="36" type="curve" smooth="yes"/>
      <point x="480.0" y="143" type="line"/>
      <point x="609.0" y="250" type="line" smooth="yes"/>
      <point x="654.0" y="288"/>
      <point x="669.0" y="340"/>
      <point x="669.0" y="402" type="curve" smooth="yes"/>
      <point x="669.0" y="683" type="line" smooth="yes"/>
      <point x="669.0" y="715"/>
      <point x="655.0" y="729"/>
      <point x="623.0" y="729" type="curve" smooth="yes"/>
      <point x="469.0" y="729" type="line" smooth="yes"/>
      <point x="455.0" y="729"/>
      <point x="444.0" y="726"/>
      <point x="437.0" y="720" type="curve" smooth="yes"/>
      <point x="308.0" y="611" type="line" smooth="yes"/>
      <point x="299.0" y="603"/>
      <point x="294.0" y="592"/>
      <point x="294.0" y="574" type="curve" smooth="yes"/>
      <point x="294.0" y="418" type="line"/>
      <point x="286.0" y="424"/>
      <point x="284.0" y="433"/>
      <point x="284.0" y="443" type="curve" smooth="yes"/>
      <point x="284.0" y="683" type="line" smooth="yes"/>
      <point x="284.0" y="715"/>
      <point x="270.0" y="729"/>
      <point x="238.0" y="729" type="curve" smooth="yes"/>
      <point x="83.0" y="729" type="line" smooth="yes"/>
      <point x="69.0" y="729"/>
      <point x="58.0" y="726"/>
      <point x="51.0" y="720" type="curve" smooth="yes"/>
      <point x="-78.0" y="611" type="line" smooth="yes"/>
      <point x="-87.0" y="603"/>
      <point x="-92" y="592"/>
      <point x="-92.0" y="574" type="curve" smooth="yes"/>
      <point x="-92" y="323" type="line" smooth="yes"/>
      <point x="-92" y="221"/>
      <point x="-53.0" y="115"/>
      <point x="97.0" y="89" type="curve"/>
      <point x="97.0" y="-73" type="line" smooth="yes"/>
      <point x="97.0" y="-105"/>
      <point x="111.0" y="-119"/>
      <point x="143.0" y="-119" type="curve" smooth="yes"/>
    </contour>
  </outline>
</glyph>
<glyph name="caron.2" format="2">
  <advance width="500"/>
  <unicode hex="E13B"/>
  <outline>
    <contour>
      <point x="150.0" y="333" type="line" smooth="yes"/>
      <point x="164.0" y="333"/>
      <point x="173.0" y="336"/>
      <point x="179.0" y="343" type="curve"/>
      <point x="179.0" y="342" type="line"/>
      <point x="308.0" y="450" type="line" smooth="yes"/>
      <point x="316.0" y="458"/>
      <point x="321.0" y="469"/>
      <point x="325.0" y="486" type="curve" smooth="yes"/>
      <point x="372.0" y="682" type="line" smooth="yes"/>
      <point x="379.0" y="712"/>
      <point x="360.0" y="730"/>
      <point x="326.0" y="730" type="curve" smooth="yes"/>
      <point x="188.0" y="730" type="line" smooth="yes"/>
      <point x="174.0" y="730"/>
      <point x="165.0" y="727"/>
      <point x="158.0" y="721" type="curve" smooth="yes"/>
      <point x="29.0" y="613" type="line" smooth="yes"/>
      <point x="20.0" y="605"/>
      <point x="16.0" y="594"/>
      <point x="13.0" y="576" type="curve" smooth="yes"/>
      <point x="-20.0" y="381" type="line" smooth="yes"/>
      <point x="-25.0" y="349"/>
      <point x="-7.0" y="333"/>
      <point x="26.0" y="333" type="curve" smooth="yes"/>
    </contour>
  </outline>
</glyph>
<glyph name="indexupleft" format="1">
  <advance width="1000"/>
  <unicode hex="E13E"/>
  <outline>
    <contour>
      <point x="352.0" y="-156" type="curve"/>
      <point x="480.0" y="-47" type="line"/>
      <point x="484.0" y="-45" type="line" smooth="yes"/>
      <point x="818.0" y="289" type="line"/>
      <point x="831.0" y="301"/>
      <point x="830.0" y="318"/>
      <point x="819.0" y="329" type="curve" smooth="yes"/>
      <point x="752.0" y="396" type="line" smooth="yes"/>
      <point x="741.0" y="407"/>
      <point x="726.0" y="409"/>
      <point x="714.0" y="399" type="curve" smooth="yes"/>
      <point x="674.0" y="365" type="line"/>
      <point x="565.0" y="526" type="line" smooth="yes"/>
      <point x="556.0" y="537"/>
      <point x="541.0" y="554"/>
      <point x="525.0" y="567" type="curve" smooth="yes"/>
      <point x="297.0" y="766" type="line" smooth="yes"/>
      <point x="287.0" y="774"/>
      <point x="268.0" y="779"/>
      <point x="254.0" y="766" type="curve" smooth="yes"/>
      <point x="125.0" y="659" type="line"/>
      <point x="122.0" y="656" type="line"/>
      <point x="122.0" y="654" type="line"/>
      <point x="88.0" y="620" type="line"/>
      <point x="74.0" y="608"/>
      <point x="76.0" y="589"/>
      <point x="92.0" y="574" type="curve" smooth="yes"/>
      <point x="200.0" y="465" type="line"/>
      <point x="190.0" y="456" type="line" smooth="yes"/>
      <point x="188.0" y="455"/>
      <point x="187.0" y="453"/>
      <point x="186.0" y="452" type="curve"/>
      <point x="156.0" y="423" type="line"/>
      <point x="156.0" y="422" type="line" smooth="yes"/>
      <point x="146.0" y="410"/>
      <point x="146.0" y="398"/>
      <point x="154.0" y="384" type="curve"/>
      <point x="134.0" y="368" type="line"/>
      <point x="134.0" y="366" type="line"/>
      <point x="105.0" y="337" type="line" smooth="yes"/>
      <point x="93.0" y="325"/>
      <point x="92.0" y="314"/>
      <point x="101.0" y="300" type="curve"/>
      <point x="88.0" y="289" type="line"/>
      <point x="89.0" y="289" type="line"/>
      <point x="87.0" y="288"/>
      <point x="86.0" y="287"/>
      <point x="86.0" y="286" type="curve"/>
      <point x="51.0" y="251" type="line"/>
      <point x="40.0" y="239"/>
      <point x="42.0" y="219"/>
      <point x="52.0" y="207" type="curve" smooth="yes"/>
      <point x="215.0" y="31" type="line" smooth="yes"/>
      <point x="230.0" y="17"/>
      <point x="246.0" y="9"/>
      <point x="257.0" y="6" type="curve"/>
      <point x="291.0" y="-5" type="line"/>
      <point x="249.0" y="-48" type="line"/>
      <point x="235.0" y="-60"/>
      <point x="236.0" y="-77"/>
      <point x="247.0" y="-88" type="curve" smooth="yes"/>
      <point x="315.0" y="-155" type="line" smooth="yes"/>
      <point x="324.0" y="-164"/>
      <point x="340.0" y="-167"/>
    </contour>
    <contour>
      <point x="121.0" y="650" type="curve"/>
      <point x="122.0" y="651" type="line"/>
      <point x="122.0" y="650"/>
      <point x="121.0" y="650"/>
    </contour>
  </outline>
</glyph>
<glyph name="indexdownright.salt" format="2">
  <advance width="1000"/>
  <unicode hex="E14A"/>
  <outline>
    <contour>
      <point x="235.0" y="-53" type="curve" smooth="yes"/>
      <point x="236.0" y="-53" type="line"/>
      <point x="329.0" y="26" type="line"/>
      <point x="350.0" y="18" type="line" smooth="yes"/>
      <point x="374.0" y="9"/>
      <point x="403.0" y="10"/>
      <point x="427.0" y="32" type="curve" smooth="yes"/>
      <point x="514.0" y="104" type="line"/>
      <point x="673.0" y="-43" type="line"/>
      <point x="682.0" y="-54"/>
      <point x="698.0" y="-55"/>
      <point x="710.0" y="-46" type="curve" smooth="yes"/>
      <point x="840.0" y="63" type="line"/>
      <point x="840.0" y="64" type="line"/>
      <point x="841.0" y="65" type="line"/>
      <point x="880.0" y="103" type="line" smooth="yes"/>
      <point x="891.0" y="114"/>
      <point x="891.0" y="128"/>
      <point x="883.0" y="139" type="curve" smooth="yes"/>
      <point x="677.0" y="410" type="line" smooth="yes"/>
      <point x="661.0" y="431"/>
      <point x="644.0" y="448"/>
      <point x="617.0" y="457" type="curve" smooth="yes"/>
      <point x="464.0" y="516" type="line"/>
      <point x="502.0" y="555" type="line" smooth="yes"/>
      <point x="515.0" y="567"/>
      <point x="515.0" y="582"/>
      <point x="502.0" y="594" type="curve" smooth="yes"/>
      <point x="435.0" y="662" type="line"/>
      <point x="423.0" y="673"/>
      <point x="409.0" y="673"/>
      <point x="396.0" y="663" type="curve" smooth="yes"/>
      <point x="267.0" y="554" type="line"/>
      <point x="-8.0" y="279" type="line"/>
      <point x="-21.0" y="265"/>
      <point x="-19.0" y="248"/>
      <point x="-9.0" y="238" type="curve" smooth="yes"/>
      <point x="60.0" y="169" type="line" smooth="yes"/>
      <point x="70.0" y="159"/>
      <point x="82.0" y="158"/>
      <point x="96.0" y="169" type="curve" smooth="yes"/>
      <point x="162.0" y="225" type="line"/>
      <point x="168.0" y="159" type="line" smooth="yes"/>
      <point x="171.0" y="130"/>
      <point x="167.0" y="111"/>
      <point x="159.0" y="71" type="curve" smooth="yes"/>
      <point x="145.0" y="-15" type="line" smooth="yes"/>
      <point x="142.0" y="-31"/>
      <point x="153.0" y="-45"/>
      <point x="167.0" y="-48" type="curve" smooth="yes"/>
      <point x="214.0" y="-59" type="line" smooth="yes"/>
      <point x="220.0" y="-60"/>
      <point x="228.0" y="-58"/>
    </contour>
  </outline>
</glyph>
<glyph name="Tcommaaccent.v" format="2">
  <advance width="1000"/>
  <unicode hex="E1C9"/>
  <outline>
    <contour>
      <point x="630.0" y="156" type="curve"/>
      <point x="630.0" y="408" type="line"/>
      <point x="635.0" y="408" type="line" smooth="yes"/>
      <point x="649.0" y="408"/>
      <point x="660.0" y="412"/>
      <point x="666.0" y="418" type="curve"/>
      <point x="796.0" y="526" type="line" smooth="yes"/>
      <point x="805.0" y="534"/>
      <point x="810.0" y="545"/>
      <point x="810.0" y="563" type="curve" smooth="yes"/>
      <point x="810.0" y="684" type="line" smooth="yes"/>
      <point x="810.0" y="716"/>
      <point x="796.0" y="730"/>
      <point x="764.0" y="730" type="curve" smooth="yes"/>
      <point x="236.0" y="730" type="line" smooth="yes"/>
      <point x="222.0" y="730"/>
      <point x="211.0" y="727"/>
      <point x="204.0" y="721" type="curve" smooth="yes"/>
      <point x="75.0" y="612" type="line" smooth="yes"/>
      <point x="66.0" y="604"/>
      <point x="61.0" y="593"/>
      <point x="61.0" y="575" type="curve" smooth="yes"/>
      <point x="61.0" y="454" type="line" smooth="yes"/>
      <point x="61.0" y="422"/>
      <point x="75.0" y="408"/>
      <point x="107.0" y="408" type="curve" smooth="yes"/>
      <point x="241.0" y="408" type="line"/>
      <point x="241.0" y="47" type="line"/>
      <point x="241.0" y="15"/>
      <point x="255.0" y="1"/>
      <point x="287.0" y="1" type="curve" smooth="yes"/>
      <point x="455.0" y="1" type="line" smooth="yes"/>
      <point x="469.0" y="1"/>
      <point x="480.0" y="5"/>
      <point x="486.0" y="11" type="curve"/>
      <point x="616.0" y="119" type="line" smooth="yes"/>
      <point x="625.0" y="127"/>
      <point x="630.0" y="138"/>
    </contour>
    <component base="commaaccent.v" xOffset="-1" yOffset="140"/>
  </outline>
</glyph>
<glyph name="IJ.v" format="2">
  <advance width="1000"/>
  <unicode hex="E1E6"/>
  <guideline x="833" y="498" angle="90.0" identifier="6TR2DrRjVQ"/>
  <outline>
    <contour>
      <point x="458.0" y="-119" type="line" smooth="yes"/>
      <point x="521.0" y="-119"/>
      <point x="573.0" y="-101"/>
      <point x="610.0" y="-70" type="curve" smooth="yes"/>
      <point x="739.0" y="39" type="line" smooth="yes"/>
      <point x="784.0" y="77"/>
      <point x="810.0" y="134"/>
      <point x="810.0" y="210" type="curve" smooth="yes"/>
      <point x="810.0" y="684" type="line" smooth="yes"/>
      <point x="810.0" y="716"/>
      <point x="796.0" y="730"/>
      <point x="764.0" y="730" type="curve" smooth="yes"/>
      <point x="609.0" y="730" type="line" smooth="yes"/>
      <point x="595.0" y="730"/>
      <point x="584.0" y="727"/>
      <point x="577.0" y="721" type="curve"/>
      <point x="448.0" y="612" type="line" smooth="yes"/>
      <point x="437.0" y="602" type="line"/>
      <point x="437.0" y="684" type="line" smooth="yes"/>
      <point x="437.0" y="716"/>
      <point x="423.0" y="730"/>
      <point x="391.0" y="730" type="curve" smooth="yes"/>
      <point x="236.0" y="730" type="line" smooth="yes"/>
      <point x="222.0" y="730"/>
      <point x="211.0" y="727"/>
      <point x="204.0" y="721" type="curve" smooth="yes"/>
      <point x="75.0" y="612" type="line" smooth="yes"/>
      <point x="66.0" y="604"/>
      <point x="61.0" y="593"/>
      <point x="61.0" y="575" type="curve" smooth="yes"/>
      <point x="61.0" y="257" type="line" smooth="yes"/>
      <point x="61.0" y="225"/>
      <point x="75.0" y="211"/>
      <point x="107.0" y="211" type="curve" smooth="yes"/>
      <point x="262.0" y="211" type="line" smooth="yes"/>
      <point x="276.0" y="211"/>
      <point x="287.0" y="215"/>
      <point x="293.0" y="221" type="curve"/>
      <point x="423.0" y="329" type="line" smooth="yes"/>
      <point x="428.0" y="333"/>
      <point x="432.0" y="338"/>
      <point x="434.0" y="345" type="curve"/>
      <point x="434.0" y="203" type="line"/>
      <point x="236.0" y="203" type="line" smooth="yes"/>
      <point x="222.0" y="203"/>
      <point x="211.0" y="200"/>
      <point x="204.0" y="194" type="curve" smooth="yes"/>
      <point x="75.0" y="85" type="line" smooth="yes"/>
      <point x="66.0" y="77"/>
      <point x="61.0" y="66"/>
      <point x="61.0" y="48" type="curve" smooth="yes"/>
      <point x="61.0" y="-73" type="line" smooth="yes"/>
      <point x="61.0" y="-105"/>
      <point x="75.0" y="-119"/>
      <point x="107.0" y="-119" type="curve" smooth="yes"/>
    </contour>
  </outline>
</glyph>
<glyph name="Eng.v" format="2">
  <advance width="1000"/>
  <unicode hex="E1E9"/>
  <outline>
    <contour>
      <point x="425.0" y="-209" type="line" smooth="yes"/>
      <point x="516.0" y="-209"/>
      <point x="578.0" y="-189"/>
      <point x="617.0" y="-156" type="curve" smooth="yes"/>
      <point x="747.0" y="-48" type="line" smooth="yes"/>
      <point x="793.0" y="-9"/>
      <point x="810.0" y="47"/>
      <point x="810.0" y="115" type="curve" smooth="yes"/>
      <point x="810.0" y="512" type="line" smooth="yes"/>
      <point x="810.0" y="638"/>
      <point x="751.0" y="726"/>
      <point x="500.0" y="726" type="curve" smooth="yes"/>
      <point x="374.0" y="726"/>
      <point x="297.0" y="703"/>
      <point x="251.0" y="665" type="curve" smooth="yes"/>
      <point x="121.0" y="556" type="line" smooth="yes"/>
      <point x="76.0" y="519"/>
      <point x="61.0" y="466"/>
      <point x="61.0" y="403" type="curve" smooth="yes"/>
      <point x="61.0" y="-73" type="line" smooth="yes"/>
      <point x="61.0" y="-105"/>
      <point x="75.0" y="-119"/>
      <point x="107.0" y="-119" type="curve" smooth="yes"/>
      <point x="259.0" y="-119" type="line" smooth="yes"/>
      <point x="272.0" y="-119"/>
      <point x="283.0" y="-115"/>
      <point x="291.0" y="-110" type="curve" smooth="yes"/>
      <point x="334.0" y="-74" type="line"/>
      <point x="334.0" y="-163" type="line" smooth="yes"/>
      <point x="334.0" y="-195"/>
      <point x="348.0" y="-209"/>
      <point x="380.0" y="-209" type="curve" smooth="yes"/>
    </contour>
  </outline>
</glyph>
<glyph name="Tbar.v" format="2">
  <advance width="1000"/>
  <unicode hex="E1EB"/>
  <outline>
    <contour>
      <point x="452.0" y="-119" type="line" smooth="yes"/>
      <point x="466.0" y="-119"/>
      <point x="477.0" y="-115"/>
      <point x="483.0" y="-109" type="curve"/>
      <point x="613.0" y="-1" type="line" smooth="yes"/>
      <point x="622.0" y="7"/>
      <point x="627.0" y="18"/>
      <point x="627.0" y="36" type="curve" smooth="yes"/>
      <point x="627.0" y="139" type="line"/>
      <point x="725.0" y="221" type="line" smooth="yes"/>
      <point x="734.0" y="229"/>
      <point x="739.0" y="240"/>
      <point x="739.0" y="258" type="curve" smooth="yes"/>
      <point x="739.0" y="365" type="line" smooth="yes"/>
      <point x="739.0" y="397"/>
      <point x="725.0" y="411"/>
      <point x="693.0" y="411" type="curve" smooth="yes"/>
      <point x="654.0" y="411" type="line"/>
      <point x="659.0" y="413"/>
      <point x="663.0" y="415"/>
      <point x="667.0" y="419" type="curve"/>
      <point x="796.0" y="526" type="line" smooth="yes"/>
      <point x="805.0" y="534"/>
      <point x="810.0" y="545"/>
      <point x="810.0" y="563" type="curve" smooth="yes"/>
      <point x="810.0" y="684" type="line" smooth="yes"/>
      <point x="810.0" y="716"/>
      <point x="796.0" y="730"/>
      <point x="764.0" y="730" type="curve" smooth="yes"/>
      <point x="236.0" y="730" type="line" smooth="yes"/>
      <point x="222.0" y="730"/>
      <point x="211.0" y="727"/>
      <point x="204.0" y="721" type="curve" smooth="yes"/>
      <point x="75.0" y="612" type="line" smooth="yes"/>
      <point x="66.0" y="604"/>
      <point x="61.0" y="593"/>
      <point x="61.0" y="575" type="curve" smooth="yes"/>
      <point x="61.0" y="454" type="line" smooth="yes"/>
      <point x="61.0" y="422"/>
      <point x="75.0" y="408"/>
      <point x="107.0" y="408" type="curve" smooth="yes"/>
      <point x="244.0" y="408" type="line"/>
      <point x="244.0" y="376" type="line"/>
      <point x="145.0" y="293" type="line" smooth="yes"/>
      <point x="136.0" y="285"/>
      <point x="131.0" y="274"/>
      <point x="131.0" y="256" type="curve" smooth="yes"/>
      <point x="131.0" y="149" type="line" smooth="yes"/>
      <point x="131.0" y="117"/>
      <point x="145.0" y="103"/>
      <point x="177.0" y="103" type="curve" smooth="yes"/>
      <point x="244.0" y="103" type="line"/>
      <point x="244.0" y="-73" type="line" smooth="yes"/>
      <point x="244.0" y="-105"/>
      <point x="258.0" y="-119"/>
      <point x="290.0" y="-119" type="curve" smooth="yes"/>
    </contour>
  </outline>
</glyph>
<glyph name="Germandbls.v" format="2">
  <advance width="1000"/>
  <unicode hex="E1EC"/>
  <outline>
    <contour>
      <point x="328.0" y="-80" type="line"/>
      <point x="330.0" y="-107"/>
      <point x="345.0" y="-119"/>
      <point x="374.0" y="-119" type="curve" smooth="yes"/>
      <point x="502.0" y="-119" type="line" smooth="yes"/>
      <point x="556.0" y="-119"/>
      <point x="602.0" y="-104"/>
      <point x="633.0" y="-77" type="curve" smooth="yes"/>
      <point x="762.0" y="32" type="line" smooth="yes"/>
      <point x="799.0" y="64"/>
      <point x="820.0" y="109"/>
      <point x="820.0" y="166" type="curve" smooth="yes"/>
      <point x="820.0" y="289" type="line" smooth="yes"/>
      <point x="820.0" y="379"/>
      <point x="780.0" y="431"/>
      <point x="730.0" y="445" type="curve"/>
      <point x="746.0" y="527" type="line" smooth="yes"/>
      <point x="770.0" y="650"/>
      <point x="717.0" y="730"/>
      <point x="592.0" y="730" type="curve" smooth="yes"/>
      <point x="236.0" y="730" type="line" smooth="yes"/>
      <point x="222.0" y="730"/>
      <point x="212.0" y="727"/>
      <point x="205.0" y="721" type="curve" smooth="yes"/>
      <point x="75.0" y="612" type="line" smooth="yes"/>
      <point x="66.0" y="604"/>
      <point x="61.0" y="592"/>
      <point x="61.0" y="575" type="curve" smooth="yes"/>
      <point x="61.0" y="-73" type="line" smooth="yes"/>
      <point x="61.0" y="-105"/>
      <point x="75.0" y="-119"/>
      <point x="107.0" y="-119" type="curve" smooth="yes"/>
      <point x="262.0" y="-119" type="line" smooth="yes"/>
      <point x="276.0" y="-119"/>
      <point x="287.0" y="-115"/>
      <point x="293.0" y="-109" type="curve"/>
    </contour>
  </outline>
</glyph>
<glyph name="Aring.salt_v" format="2">
  <advance width="1000"/>
  <unicode hex="E1F3"/>
  <outline>
    <contour>
      <point x="415.0" y="-1" type="line" smooth="yes"/>
      <point x="424.0" y="7"/>
      <point x="429.0" y="18"/>
      <point x="429.0" y="36" type="curve" smooth="yes"/>
      <point x="429.0" y="47" type="line"/>
      <point x="437.0" y="47" type="line"/>
      <point x="437.0" y="-73" type="line" smooth="yes"/>
      <point x="437.0" y="-105"/>
      <point x="451.0" y="-119"/>
      <point x="483.0" y="-119" type="curve" smooth="yes"/>
      <point x="635.0" y="-119" type="line" smooth="yes"/>
      <point x="649.0" y="-119"/>
      <point x="660.0" y="-115"/>
      <point x="666.0" y="-109" type="curve"/>
      <point x="796.0" y="-1" type="line" smooth="yes"/>
      <point x="805.0" y="7"/>
      <point x="810.0" y="18"/>
      <point x="810.0" y="36" type="curve" smooth="yes"/>
      <point x="810.0" y="492" type="line" smooth="yes"/>
      <point x="810.0" y="570"/>
      <point x="790.0" y="634"/>
      <point x="714.0" y="670" type="curve"/>
      <point x="721.0" y="689"/>
      <point x="724.0" y="709"/>
      <point x="724.0" y="732" type="curve" smooth="yes"/>
      <point x="724.0" y="790" type="line" smooth="yes"/>
      <point x="724.0" y="879"/>
      <point x="683.0" y="943"/>
      <point x="497.0" y="943" type="curve" smooth="yes"/>
      <point x="404.0" y="943"/>
      <point x="347.0" y="926"/>
      <point x="314.0" y="899" type="curve" smooth="yes"/>
      <point x="184.0" y="790" type="line" smooth="yes"/>
      <point x="151.0" y="763"/>
      <point x="141.0" y="725"/>
      <point x="141.0" y="681" type="curve" smooth="yes"/>
      <point x="141.0" y="623" type="line" smooth="yes"/>
      <point x="141.0" y="601"/>
      <point x="144.0" y="581"/>
      <point x="150.0" y="563" type="curve"/>
      <point x="119.0" y="538" type="line" smooth="yes"/>
      <point x="74.0" y="500"/>
      <point x="61.0" y="447"/>
      <point x="61.0" y="383" type="curve" smooth="yes"/>
      <point x="61.0" y="-73" type="line" smooth="yes"/>
      <point x="61.0" y="-105"/>
      <point x="75.0" y="-119"/>
      <point x="107.0" y="-119" type="curve" smooth="yes"/>
      <point x="254.0" y="-119" type="line" smooth="yes"/>
      <point x="268.0" y="-119"/>
      <point x="279.0" y="-115"/>
      <point x="285.0" y="-109" type="curve"/>
    </contour>
  </outline>
</glyph>
<glyph name="L.salt_v" format="1">
  <advance width="1000"/>
  <unicode hex="E20C"/>
  <outline>
    <contour>
      <point x="626" y="-119" type="line" smooth="yes"/>
      <point x="640" y="-119"/>
      <point x="651" y="-115"/>
      <point x="657" y="-109" type="curve"/>
      <point x="787" y="-1" type="line" smooth="yes"/>
      <point x="796" y="7"/>
      <point x="801" y="18"/>
      <point x="801" y="36" type="curve" smooth="yes"/>
      <point x="801" y="157" type="line"/>
      <point x="801" y="189"/>
      <point x="787" y="203"/>
      <point x="755" y="203" type="curve" smooth="yes"/>
      <point x="438" y="203" type="line"/>
      <point x="438" y="684" type="line" smooth="yes"/>
      <point x="438" y="716"/>
      <point x="424" y="730"/>
      <point x="392" y="730" type="curve" smooth="yes"/>
      <point x="237" y="730" type="line" smooth="yes"/>
      <point x="223" y="730"/>
      <point x="212" y="727"/>
      <point x="205" y="721" type="curve" smooth="yes"/>
      <point x="76" y="612" type="line" smooth="yes"/>
      <point x="67" y="604"/>
      <point x="62" y="593"/>
      <point x="62" y="575" type="curve" smooth="yes"/>
      <point x="62" y="-73" type="line" smooth="yes"/>
      <point x="62" y="-105"/>
      <point x="76" y="-119"/>
      <point x="108" y="-119" type="curve" smooth="yes"/>
    </contour>
  </outline>
</glyph>
<glyph name="Ncommaaccent.salt_v" format="2">
  <advance width="1000"/>
  <unicode hex="E217"/>
  <guideline x="742" y="355" angle="90.0" identifier="299s8Lv0Xp"/>
  <guideline x="441" y="120" angle="0" identifier="llfwh3p5wk"/>
  <outline>
    <contour>
      <point x="261.0" y="1" type="line" smooth="yes"/>
      <point x="275.0" y="1"/>
      <point x="286.0" y="5"/>
      <point x="292.0" y="11" type="curve"/>
      <point x="420.0" y="119" type="line" smooth="yes"/>
      <point x="426.0" y="124"/>
      <point x="430.0" y="130"/>
      <point x="432.0" y="138" type="curve"/>
      <point x="432.0" y="47" type="line" smooth="yes"/>
      <point x="432.0" y="15"/>
      <point x="446.0" y="1"/>
      <point x="478.0" y="1" type="curve" smooth="yes"/>
      <point x="635.0" y="1" type="line" smooth="yes"/>
      <point x="649.0" y="1"/>
      <point x="660.0" y="5"/>
      <point x="666.0" y="11" type="curve"/>
      <point x="796.0" y="119" type="line" smooth="yes"/>
      <point x="805.0" y="127"/>
      <point x="810.0" y="138"/>
      <point x="810.0" y="156" type="curve" smooth="yes"/>
      <point x="810.0" y="521" type="line" smooth="yes"/>
      <point x="810.0" y="647"/>
      <point x="760.0" y="735"/>
      <point x="500.0" y="735" type="curve" smooth="yes"/>
      <point x="370.0" y="735"/>
      <point x="294.0" y="713"/>
      <point x="249.0" y="675" type="curve" smooth="yes"/>
      <point x="120.0" y="567" type="line" smooth="yes"/>
      <point x="74.0" y="529"/>
      <point x="61.0" y="476"/>
      <point x="61.0" y="412" type="curve" smooth="yes"/>
      <point x="61.0" y="47" type="line" smooth="yes"/>
      <point x="61.0" y="15"/>
      <point x="75.0" y="1"/>
      <point x="107.0" y="1" type="curve" smooth="yes"/>
    </contour>
    <component base="commaaccent.v" yOffset="140"/>
  </outline>
</glyph>
<glyph name="W.salt_v" format="1">
  <advance width="1000"/>
  <unicode hex="E219"/>
  <outline>
    <contour>
      <point x="520.0" y="-134" type="curve" smooth="yes"/>
      <point x="586.0" y="-134"/>
      <point x="634.0" y="-118"/>
      <point x="666.0" y="-91" type="curve" smooth="yes"/>
      <point x="795.0" y="18" type="line" smooth="yes"/>
      <point x="840.0" y="56"/>
      <point x="858.0" y="115"/>
      <point x="858.0" y="189" type="curve" smooth="yes"/>
      <point x="858.0" y="684" type="line" smooth="yes"/>
      <point x="858.0" y="716"/>
      <point x="844.0" y="730"/>
      <point x="812.0" y="730" type="curve" smooth="yes"/>
      <point x="695.0" y="730" type="line" smooth="yes"/>
      <point x="680.0" y="730"/>
      <point x="670.0" y="727"/>
      <point x="663.0" y="721" type="curve" smooth="yes"/>
      <point x="604.0" y="671" type="line"/>
      <point x="604.0" y="684" type="line" smooth="yes"/>
      <point x="604.0" y="716"/>
      <point x="590.0" y="730"/>
      <point x="558.0" y="730" type="curve" smooth="yes"/>
      <point x="441.0" y="730" type="line" smooth="yes"/>
      <point x="427.0" y="730"/>
      <point x="416.0" y="727"/>
      <point x="409.0" y="721" type="curve" smooth="yes"/>
      <point x="350.0" y="671" type="line"/>
      <point x="350.0" y="684" type="line" smooth="yes"/>
      <point x="350.0" y="716"/>
      <point x="337.0" y="730"/>
      <point x="304.0" y="730" type="curve" smooth="yes"/>
      <point x="187.0" y="730" type="line" smooth="yes"/>
      <point x="173.0" y="730"/>
      <point x="162.0" y="727"/>
      <point x="155.0" y="721" type="curve" smooth="yes"/>
      <point x="26.0" y="612" type="line" smooth="yes"/>
      <point x="17.0" y="604"/>
      <point x="12.0" y="593"/>
      <point x="12.0" y="575" type="curve" smooth="yes"/>
      <point x="12.0" y="80" type="line"/>
      <point x="12.0" y="-48"/>
      <point x="63.0" y="-134"/>
      <point x="221.0" y="-134" type="curve" smooth="yes"/>
      <point x="288.0" y="-134"/>
      <point x="334.0" y="-119"/>
      <point x="364.0" y="-94" type="curve" smooth="yes"/>
      <point x="370.0" y="-89" type="line"/>
      <point x="399.0" y="-117"/>
      <point x="447.0" y="-134"/>
    </contour>
  </outline>
</glyph>
<glyph name="X.salt_v" format="2">
  <advance width="1000"/>
  <unicode hex="E21E"/>
  <outline>
    <contour>
      <point x="415.0" y="-1" type="line" smooth="yes"/>
      <point x="424.0" y="7"/>
      <point x="429.0" y="18"/>
      <point x="429.0" y="36" type="curve" smooth="yes"/>
      <point x="429.0" y="145" type="line"/>
      <point x="439.0" y="142"/>
      <point x="444.0" y="134"/>
      <point x="444.0" y="121" type="curve" smooth="yes"/>
      <point x="444.0" y="-73" type="line" smooth="yes"/>
      <point x="444.0" y="-105"/>
      <point x="458.0" y="-119"/>
      <point x="490.0" y="-119" type="curve" smooth="yes"/>
      <point x="644.0" y="-119" type="line" smooth="yes"/>
      <point x="658.0" y="-119"/>
      <point x="669.0" y="-115"/>
      <point x="675.0" y="-109" type="curve"/>
      <point x="805.0" y="-1" type="line" smooth="yes"/>
      <point x="814.0" y="7"/>
      <point x="819.0" y="18"/>
      <point x="819.0" y="36" type="curve" smooth="yes"/>
      <point x="819.0" y="317" type="line" smooth="yes"/>
      <point x="819.0" y="383"/>
      <point x="788.0" y="433"/>
      <point x="735.0" y="452" type="curve"/>
      <point x="798.0" y="682" type="line" smooth="yes"/>
      <point x="806.0" y="714"/>
      <point x="795.0" y="730"/>
      <point x="761.0" y="730" type="curve" smooth="yes"/>
      <point x="609.0" y="730" type="line" smooth="yes"/>
      <point x="593.0" y="730"/>
      <point x="583.0" y="726"/>
      <point x="574.0" y="720" type="curve"/>
      <point x="459.0" y="624" type="line"/>
      <point x="447.0" y="687" type="line" smooth="yes"/>
      <point x="439.0" y="718"/>
      <point x="425.0" y="730"/>
      <point x="393.0" y="730" type="curve" smooth="yes"/>
      <point x="242.0" y="730" type="line" smooth="yes"/>
      <point x="228.0" y="730"/>
      <point x="219.0" y="726"/>
      <point x="214.0" y="721" type="curve"/>
      <point x="215.0" y="722" type="line"/>
      <point x="85.0" y="614" type="line" smooth="yes"/>
      <point x="75.0" y="606"/>
      <point x="72.0" y="593"/>
      <point x="77.0" y="573" type="curve" smooth="yes"/>
      <point x="137.0" y="353" type="line"/>
      <point x="100.0" y="322" type="line" smooth="yes"/>
      <point x="70.0" y="297"/>
      <point x="53.0" y="258"/>
      <point x="53.0" y="208" type="curve" smooth="yes"/>
      <point x="53.0" y="-73" type="line" smooth="yes"/>
      <point x="53.0" y="-105"/>
      <point x="67.0" y="-119"/>
      <point x="99.0" y="-119" type="curve" smooth="yes"/>
      <point x="254.0" y="-119" type="line" smooth="yes"/>
      <point x="268.0" y="-119"/>
      <point x="279.0" y="-115"/>
      <point x="285.0" y="-109" type="curve"/>
    </contour>
  </outline>
</glyph>
<glyph name="commaaccent.v" format="1">
  <advance width="1000"/>
  <unicode hex="E227"/>
  <outline>
    <contour>
      <point x="363.0" y="-449" type="line" smooth="yes"/>
      <point x="400.0" y="-449"/>
      <point x="432.0" y="-439"/>
      <point x="455.0" y="-420" type="curve" smooth="yes"/>
      <point x="584.0" y="-311" type="line" smooth="yes"/>
      <point x="611.0" y="-288"/>
      <point x="627.0" y="-252"/>
      <point x="627.0" y="-202" type="curve" smooth="yes"/>
      <point x="627.0" y="-90" type="line" smooth="yes"/>
      <point x="627.0" y="-51"/>
      <point x="615.0" y="-40"/>
      <point x="580.0" y="-40" type="curve" smooth="yes"/>
      <point x="422.0" y="-40" type="line" smooth="yes"/>
      <point x="406.0" y="-40"/>
      <point x="396.0" y="-43"/>
      <point x="389.0" y="-49" type="curve" smooth="yes"/>
      <point x="259.0" y="-157" type="line" smooth="yes"/>
      <point x="250.0" y="-165"/>
      <point x="246.0" y="-178"/>
      <point x="246.0" y="-199" type="curve" smooth="yes"/>
      <point x="246.0" y="-278" type="line" smooth="yes"/>
      <point x="246.0" y="-316"/>
      <point x="258.0" y="-327"/>
      <point x="293.0" y="-327" type="curve" smooth="yes"/>
      <point x="299.0" y="-327" type="line"/>
      <point x="269.0" y="-352" type="line"/>
      <point x="261.0" y="-357"/>
      <point x="257.0" y="-367"/>
      <point x="257.0" y="-384" type="curve" smooth="yes"/>
      <point x="257.0" y="-408" type="line" smooth="yes"/>
      <point x="257.0" y="-437"/>
      <point x="269.0" y="-449"/>
      <point x="297.0" y="-449" type="curve" smooth="yes"/>
    </contour>
  </outline>
</glyph>
<glyph name="endash.v" format="2">
  <advance width="1000"/>
  <unicode hex="E229"/>
  <outline>
    <contour>
      <point x="438.0" y="-56" type="line" smooth="yes"/>
      <point x="451.0" y="-56"/>
      <point x="462.0" y="-52"/>
      <point x="470.0" y="-47" type="curve" smooth="yes"/>
      <point x="599.0" y="62" type="line" smooth="yes"/>
      <point x="608.0" y="70"/>
      <point x="613.0" y="81"/>
      <point x="613.0" y="99" type="curve" smooth="yes"/>
      <point x="613.0" y="621" type="line" smooth="yes"/>
      <point x="613.0" y="653"/>
      <point x="600.0" y="667"/>
      <point x="567.0" y="667" type="curve" smooth="yes"/>
      <point x="433.0" y="667" type="line" smooth="yes"/>
      <point x="418.0" y="667"/>
      <point x="408.0" y="664"/>
      <point x="401.0" y="658" type="curve" smooth="yes"/>
      <point x="271.0" y="549" type="line"/>
      <point x="270.0" y="548" type="line" smooth="yes"/>
      <point x="262.0" y="541"/>
      <point x="258.0" y="530"/>
      <point x="258.0" y="512" type="curve" smooth="yes"/>
      <point x="258.0" y="-10" type="line" smooth="yes"/>
      <point x="258.0" y="-42"/>
      <point x="272.0" y="-56"/>
      <point x="304.0" y="-56" type="curve" smooth="yes"/>
    </contour>
  </outline>
</glyph>
<glyph name="emdash.v" format="2">
  <advance width="1000"/>
  <unicode hex="E22A"/>
  <outline>
    <contour>
      <point x="438.0" y="-256" type="line" smooth="yes"/>
      <point x="451.0" y="-256"/>
      <point x="462.0" y="-252"/>
      <point x="470.0" y="-247" type="curve" smooth="yes"/>
      <point x="599.0" y="-138" type="line" smooth="yes"/>
      <point x="608.0" y="-130"/>
      <point x="613.0" y="-119"/>
      <point x="613.0" y="-101" type="curve" smooth="yes"/>
      <point x="613.0" y="821" type="line" smooth="yes"/>
      <point x="613.0" y="853"/>
      <point x="600.0" y="867"/>
      <point x="567.0" y="867" type="curve" smooth="yes"/>
      <point x="433.0" y="867" type="line" smooth="yes"/>
      <point x="418.0" y="867"/>
      <point x="408.0" y="864"/>
      <point x="401.0" y="858" type="curve" smooth="yes"/>
      <point x="271.0" y="749" type="line"/>
      <point x="270.0" y="748" type="line" smooth="yes"/>
      <point x="262.0" y="741"/>
      <point x="258.0" y="730"/>
      <point x="258.0" y="712" type="curve" smooth="yes"/>
      <point x="258.0" y="-210" type="line" smooth="yes"/>
      <point x="258.0" y="-242"/>
      <point x="272.0" y="-256"/>
      <point x="304.0" y="-256" type="curve" smooth="yes"/>
    </contour>
  </outline>
</glyph>
<glyph name="parenright.v" format="2">
  <advance width="1000"/>
  <unicode hex="E22C"/>
  <outline>
    <contour>
      <point x="137.0" y="73" type="curve" smooth="yes"/>
      <point x="608.0" y="73" type="line" smooth="yes"/>
      <point x="664.0" y="73"/>
      <point x="713.0" y="86"/>
      <point x="749.0" y="116" type="curve" smooth="yes"/>
      <point x="878.0" y="225" type="line" smooth="yes"/>
      <point x="923.0" y="263"/>
      <point x="951.0" y="329"/>
      <point x="951.0" y="438" type="curve" smooth="yes"/>
      <point x="951.0" y="492" type="line" smooth="yes"/>
      <point x="951.0" y="524"/>
      <point x="937.0" y="538"/>
      <point x="905.0" y="538" type="curve" smooth="yes"/>
      <point x="786.0" y="538" type="line" smooth="yes"/>
      <point x="772.0" y="538"/>
      <point x="761.0" y="535"/>
      <point x="754.0" y="529" type="curve" smooth="yes"/>
      <point x="636.0" y="430" type="line"/>
      <point x="304.0" y="430" type="line" smooth="yes"/>
      <point x="278.0" y="430"/>
      <point x="264.0" y="435"/>
      <point x="264.0" y="461" type="curve" smooth="yes"/>
      <point x="264.0" y="492" type="line" smooth="yes"/>
      <point x="264.0" y="524"/>
      <point x="250.0" y="538"/>
      <point x="218.0" y="538" type="curve" smooth="yes"/>
      <point x="96.0" y="538" type="line" smooth="yes"/>
      <point x="82.0" y="538"/>
      <point x="71.0" y="535"/>
      <point x="64.0" y="529" type="curve" smooth="yes"/>
      <point x="-65.0" y="420" type="line" smooth="yes"/>
      <point x="-74.0" y="412"/>
      <point x="-79.0" y="401"/>
      <point x="-79.0" y="383" type="curve" smooth="yes"/>
      <point x="-79.0" y="329" type="line" smooth="yes"/>
      <point x="-79.0" y="131"/>
      <point x="10.0" y="73"/>
    </contour>
  </outline>
</glyph>
<glyph name="braceleft.v" format="2">
  <advance width="1000"/>
  <unicode hex="E22F"/>
  <outline>
    <contour>
      <point x="227.0" y="144" type="line"/>
      <point x="292.0" y="144" type="line" smooth="yes"/>
      <point x="316.0" y="144"/>
      <point x="333.0" y="148"/>
      <point x="345.0" y="159" type="curve" smooth="yes"/>
      <point x="385.0" y="193" type="line"/>
      <point x="393.0" y="156"/>
      <point x="411.0" y="144"/>
      <point x="456.0" y="144" type="curve" smooth="yes"/>
      <point x="571.0" y="144" type="line" smooth="yes"/>
      <point x="597.0" y="144"/>
      <point x="611.0" y="139"/>
      <point x="611.0" y="113" type="curve" smooth="yes"/>
      <point x="611.0" y="92" type="line" smooth="yes"/>
      <point x="611.0" y="60"/>
      <point x="625.0" y="46"/>
      <point x="657.0" y="46" type="curve" smooth="yes"/>
      <point x="776.0" y="46" type="line" smooth="yes"/>
      <point x="790.0" y="46"/>
      <point x="801.0" y="50"/>
      <point x="807.0" y="56" type="curve"/>
      <point x="937.0" y="164" type="line" smooth="yes"/>
      <point x="946.0" y="172"/>
      <point x="951.0" y="183"/>
      <point x="951.0" y="201" type="curve" smooth="yes"/>
      <point x="951.0" y="245" type="line" smooth="yes"/>
      <point x="951.0" y="443"/>
      <point x="863.0" y="501"/>
      <point x="737.0" y="501" type="curve" smooth="yes"/>
      <point x="614.0" y="501" type="line"/>
      <point x="599.0" y="544"/>
      <point x="571.0" y="565"/>
      <point x="520.0" y="565" type="curve" smooth="yes"/>
      <point x="485.0" y="565" type="line" smooth="yes"/>
      <point x="457.0" y="565"/>
      <point x="436.0" y="558"/>
      <point x="420.0" y="545" type="curve" smooth="yes"/>
      <point x="367.0" y="501" type="line"/>
      <point x="266.0" y="501" type="line" smooth="yes"/>
      <point x="208.0" y="501"/>
      <point x="159.0" y="489"/>
      <point x="122.0" y="458" type="curve" smooth="yes"/>
      <point x="-6.0" y="349" type="line" smooth="yes"/>
      <point x="-52.0" y="311"/>
      <point x="-79.0" y="245"/>
      <point x="-79.0" y="136" type="curve" smooth="yes"/>
      <point x="-79.0" y="92" type="line" smooth="yes"/>
      <point x="-79.0" y="60"/>
      <point x="-65.0" y="46"/>
      <point x="-33.0" y="46" type="curve" smooth="yes"/>
      <point x="89.0" y="46" type="line" smooth="yes"/>
      <point x="103.0" y="46"/>
      <point x="114.0" y="50"/>
      <point x="120.0" y="56" type="curve"/>
    </contour>
  </outline>
</glyph>
<glyph name="guilsinglright.v" format="2">
  <advance width="1000"/>
  <unicode hex="E238"/>
  <outline>
    <contour>
      <point x="409.0" y="19" type="line" smooth="yes"/>
      <point x="460.0" y="19"/>
      <point x="496.0" y="30"/>
      <point x="522.0" y="52" type="curve" smooth="yes"/>
      <point x="652.0" y="160" type="line" smooth="yes"/>
      <point x="678.0" y="183"/>
      <point x="693.0" y="217"/>
      <point x="703.0" y="263" type="curve" smooth="yes"/>
      <point x="756.0" y="523" type="line" smooth="yes"/>
      <point x="763.0" y="556"/>
      <point x="750.0" y="571"/>
      <point x="715.0" y="571" type="curve" smooth="yes"/>
      <point x="588.0" y="571" type="line" smooth="yes"/>
      <point x="573.0" y="571"/>
      <point x="561.0" y="567"/>
      <point x="554.0" y="561" type="curve" smooth="yes"/>
      <point x="471.0" y="491" type="line"/>
      <point x="465.0" y="527" type="line" smooth="yes"/>
      <point x="460.0" y="558"/>
      <point x="446.0" y="571"/>
      <point x="414.0" y="571" type="curve" smooth="yes"/>
      <point x="287.0" y="571" type="line" smooth="yes"/>
      <point x="273.0" y="571"/>
      <point x="262.0" y="568"/>
      <point x="256.0" y="562" type="curve"/>
      <point x="125.0" y="453" type="line" smooth="yes"/>
      <point x="117.0" y="445"/>
      <point x="113.0" y="433"/>
      <point x="117.0" y="414" type="curve" smooth="yes"/>
      <point x="170.0" y="154" type="line" smooth="yes"/>
      <point x="188.0" y="64"/>
      <point x="230.0" y="19"/>
      <point x="335.0" y="19" type="curve" smooth="yes"/>
    </contour>
  </outline>
</glyph>
<glyph name="ampersand.salt_v" format="2">
  <advance width="1000"/>
  <unicode hex="E243"/>
  <outline>
    <contour>
      <point x="483.0" y="-209" type="line" smooth="yes"/>
      <point x="497.0" y="-209"/>
      <point x="508.0" y="-205"/>
      <point x="514.0" y="-199" type="curve"/>
      <point x="611.0" y="-119" type="line"/>
      <point x="636.0" y="-119" type="line" smooth="yes"/>
      <point x="650.0" y="-119"/>
      <point x="661.0" y="-115"/>
      <point x="667.0" y="-109" type="curve"/>
      <point x="797.0" y="-1" type="line" smooth="yes"/>
      <point x="806.0" y="7"/>
      <point x="811.0" y="18"/>
      <point x="811.0" y="36" type="curve" smooth="yes"/>
      <point x="811.0" y="153" type="line" smooth="yes"/>
      <point x="811.0" y="185"/>
      <point x="797.0" y="199"/>
      <point x="765.0" y="199" type="curve" smooth="yes"/>
      <point x="627.0" y="199" type="line"/>
      <point x="716.0" y="274" type="line" smooth="yes"/>
      <point x="725.0" y="282"/>
      <point x="730.0" y="293"/>
      <point x="730.0" y="311" type="curve" smooth="yes"/>
      <point x="730.0" y="418" type="line" smooth="yes"/>
      <point x="730.0" y="439"/>
      <point x="724.0" y="452"/>
      <point x="711.0" y="459" type="curve"/>
      <point x="797.0" y="530" type="line" smooth="yes"/>
      <point x="806.0" y="538"/>
      <point x="811.0" y="549"/>
      <point x="811.0" y="567" type="curve" smooth="yes"/>
      <point x="811.0" y="684" type="line" smooth="yes"/>
      <point x="811.0" y="716"/>
      <point x="797.0" y="730"/>
      <point x="765.0" y="730" type="curve" smooth="yes"/>
      <point x="658.0" y="730" type="line"/>
      <point x="658.0" y="774" type="line" smooth="yes"/>
      <point x="658.0" y="806"/>
      <point x="644.0" y="820"/>
      <point x="612.0" y="820" type="curve" smooth="yes"/>
      <point x="467.0" y="820" type="line" smooth="yes"/>
      <point x="453.0" y="820"/>
      <point x="442.0" y="817"/>
      <point x="435.0" y="811" type="curve" smooth="yes"/>
      <point x="306.0" y="702" type="line" smooth="yes"/>
      <point x="299.0" y="696"/>
      <point x="294.0" y="688"/>
      <point x="293.0" y="677" type="curve"/>
      <point x="175.0" y="578" type="line" smooth="yes"/>
      <point x="139.0" y="549"/>
      <point x="124.0" y="507"/>
      <point x="124.0" y="458" type="curve" smooth="yes"/>
      <point x="124.0" y="410" type="line" smooth="yes"/>
      <point x="124.0" y="371"/>
      <point x="132.0" y="339"/>
      <point x="155.0" y="316" type="curve"/>
      <point x="111.0" y="280" type="line" smooth="yes"/>
      <point x="78.0" y="252"/>
      <point x="57" y="208"/>
      <point x="57.0" y="147" type="curve" smooth="yes"/>
      <point x="57" y="59" type="line" smooth="yes"/>
      <point x="57" y="-30"/>
      <point x="124.0" y="-119"/>
      <point x="261.0" y="-119" type="curve" smooth="yes"/>
      <point x="292.0" y="-119" type="line"/>
      <point x="292.0" y="-163" type="line" smooth="yes"/>
      <point x="292.0" y="-195"/>
      <point x="306.0" y="-209"/>
      <point x="338.0" y="-209" type="curve" smooth="yes"/>
    </contour>
  </outline>
</glyph>
<glyph name="C.s_v" format="1">
  <advance width="1000"/>
  <unicode hex="E247"/>
  <outline>
    <contour>
      <point x="626.0" y="-119" type="line" smooth="yes"/>
      <point x="640.0" y="-119"/>
      <point x="651.0" y="-115"/>
      <point x="657.0" y="-109" type="curve"/>
      <point x="787.0" y="-1" type="line" smooth="yes"/>
      <point x="796.0" y="7"/>
      <point x="801.0" y="18"/>
      <point x="801.0" y="36" type="curve" smooth="yes"/>
      <point x="801.0" y="155" type="line" smooth="yes"/>
      <point x="801.0" y="187"/>
      <point x="787.0" y="201"/>
      <point x="755.0" y="201" type="curve" smooth="yes"/>
      <point x="485.0" y="201" type="line" smooth="yes"/>
      <point x="444.0" y="201"/>
      <point x="434.0" y="216"/>
      <point x="434.0" y="239" type="curve" smooth="yes"/>
      <point x="434.0" y="368" type="line"/>
      <point x="626.0" y="368" type="line" smooth="yes"/>
      <point x="640.0" y="368"/>
      <point x="651.0" y="372"/>
      <point x="657.0" y="378" type="curve"/>
      <point x="787.0" y="486" type="line" smooth="yes"/>
      <point x="796.0" y="494"/>
      <point x="801.0" y="505"/>
      <point x="801.0" y="523" type="curve" smooth="yes"/>
      <point x="801.0" y="644" type="line" smooth="yes"/>
      <point x="801.0" y="676"/>
      <point x="787.0" y="690"/>
      <point x="755.0" y="690" type="curve" smooth="yes"/>
      <point x="442.0" y="690" type="line" smooth="yes"/>
      <point x="350.0" y="690"/>
      <point x="288.0" y="671"/>
      <point x="249.0" y="638" type="curve" smooth="yes"/>
      <point x="120.0" y="529" type="line" smooth="yes"/>
      <point x="74.0" y="491"/>
      <point x="57.0" y="434"/>
      <point x="57.0" y="366" type="curve" smooth="yes"/>
      <point x="57.0" y="95" type="line" smooth="yes"/>
      <point x="57.0" y="-31"/>
      <point x="115.0" y="-119"/>
      <point x="313.0" y="-119" type="curve" smooth="yes"/>
    </contour>
  </outline>
</glyph>
<glyph name="G.s_v" format="1">
  <advance width="1000"/>
  <unicode hex="E24A"/>
  <outline>
    <contour>
      <point x="635.0" y="-119" type="line" smooth="yes"/>
      <point x="649.0" y="-119"/>
      <point x="660.0" y="-115"/>
      <point x="666.0" y="-109" type="curve"/>
      <point x="796.0" y="-1" type="line" smooth="yes"/>
      <point x="805.0" y="7"/>
      <point x="810.0" y="18"/>
      <point x="810.0" y="36" type="curve" smooth="yes"/>
      <point x="810.0" y="325" type="line" smooth="yes"/>
      <point x="810.0" y="357"/>
      <point x="796.0" y="371"/>
      <point x="764.0" y="371" type="curve" smooth="yes"/>
      <point x="609.0" y="371" type="line" smooth="yes"/>
      <point x="595.0" y="371"/>
      <point x="584.0" y="368"/>
      <point x="577.0" y="362" type="curve" smooth="yes"/>
      <point x="448.0" y="253" type="line" smooth="yes"/>
      <point x="439.0" y="246"/>
      <point x="435.0" y="235"/>
      <point x="434.0" y="218" type="curve"/>
      <point x="432.0" y="224"/>
      <point x="432.0" y="231"/>
      <point x="432.0" y="238" type="curve" smooth="yes"/>
      <point x="432.0" y="368" type="line"/>
      <point x="570.0" y="368" type="line" smooth="yes"/>
      <point x="584.0" y="368"/>
      <point x="595.0" y="372"/>
      <point x="601.0" y="378" type="curve"/>
      <point x="731.0" y="486" type="line" smooth="yes"/>
      <point x="740.0" y="494"/>
      <point x="745.0" y="505"/>
      <point x="745.0" y="523" type="curve" smooth="yes"/>
      <point x="745.0" y="644" type="line" smooth="yes"/>
      <point x="745.0" y="676"/>
      <point x="731.0" y="690"/>
      <point x="699.0" y="690" type="curve" smooth="yes"/>
      <point x="441.0" y="690" type="line" smooth="yes"/>
      <point x="349.0" y="690"/>
      <point x="287.0" y="671"/>
      <point x="247.0" y="637" type="curve" smooth="yes"/>
      <point x="118.0" y="529" type="line" smooth="yes"/>
      <point x="72.0" y="491"/>
      <point x="56.0" y="434"/>
      <point x="56.0" y="367" type="curve" smooth="yes"/>
      <point x="56.0" y="95" type="line" smooth="yes"/>
      <point x="56.0" y="-31"/>
      <point x="114.0" y="-119"/>
      <point x="312.0" y="-119" type="curve" smooth="yes"/>
    </contour>
  </outline>
</glyph>
<glyph name="J.s_v" format="1">
  <advance width="1000"/>
  <unicode hex="E24D"/>
  <outline>
    <contour>
      <point x="368.0" y="-134" type="curve" smooth="yes"/>
      <point x="497.0" y="-134"/>
      <point x="574.0" y="-111"/>
      <point x="620.0" y="-72" type="curve" smooth="yes"/>
      <point x="749.0" y="36" type="line" smooth="yes"/>
      <point x="795.0" y="74"/>
      <point x="810.0" y="127"/>
      <point x="810.0" y="189" type="curve" smooth="yes"/>
      <point x="810.0" y="644" type="line" smooth="yes"/>
      <point x="810.0" y="676"/>
      <point x="796.0" y="690"/>
      <point x="764.0" y="690" type="curve" smooth="yes"/>
      <point x="607.0" y="690" type="line" smooth="yes"/>
      <point x="593.0" y="690"/>
      <point x="582.0" y="687"/>
      <point x="575.0" y="681" type="curve" smooth="yes"/>
      <point x="441.0" y="567" type="line" smooth="yes"/>
      <point x="432.0" y="559"/>
      <point x="427.0" y="548"/>
      <point x="427.0" y="530" type="curve"/>
      <point x="427.0" y="351" type="line" smooth="yes"/>
      <point x="427.0" y="384"/>
      <point x="413.0" y="397"/>
      <point x="381.0" y="397" type="curve" smooth="yes"/>
      <point x="236.0" y="397" type="line" smooth="yes"/>
      <point x="221.0" y="397"/>
      <point x="211.0" y="394"/>
      <point x="204.0" y="388" type="curve" smooth="yes"/>
      <point x="74.0" y="279" type="line" smooth="yes"/>
      <point x="66.0" y="272"/>
      <point x="61" y="260"/>
      <point x="61.0" y="242" type="curve" smooth="yes"/>
      <point x="61" y="110" type="line" smooth="yes"/>
      <point x="61" y="-16"/>
      <point x="115.0" y="-134"/>
    </contour>
  </outline>
</glyph>
<glyph name="O.s_v" format="2">
  <advance width="1000"/>
  <unicode hex="E251"/>
  <outline>
    <contour>
      <point x="624.0" y="-72" type="curve" smooth="yes"/>
      <point x="754.0" y="36" type="line" smooth="yes"/>
      <point x="799.0" y="74"/>
      <point x="814.0" y="127"/>
      <point x="814.0" y="189" type="curve" smooth="yes"/>
      <point x="814.0" y="490" type="line" smooth="yes"/>
      <point x="814.0" y="616"/>
      <point x="757.0" y="705"/>
      <point x="500.0" y="705" type="curve" smooth="yes"/>
      <point x="370.0" y="705"/>
      <point x="293.0" y="682"/>
      <point x="247.0" y="643" type="curve" smooth="yes"/>
      <point x="117.0" y="535" type="line" smooth="yes"/>
      <point x="72.0" y="497"/>
      <point x="57" y="444"/>
      <point x="57.0" y="381" type="curve" smooth="yes"/>
      <point x="57" y="110" type="line" smooth="yes"/>
      <point x="57" y="-16"/>
      <point x="114.0" y="-134"/>
      <point x="371.0" y="-134" type="curve" smooth="yes"/>
      <point x="501.0" y="-134"/>
      <point x="578.0" y="-111"/>
    </contour>
    <contour>
      <point x="433.0" y="225" type="curve" smooth="yes"/>
      <point x="433.0" y="374" type="line"/>
      <point x="448.0" y="368"/>
      <point x="452.0" y="358"/>
      <point x="452.0" y="345" type="curve" smooth="yes"/>
      <point x="452.0" y="195" type="line"/>
      <point x="437.0" y="202"/>
      <point x="433.0" y="212"/>
    </contour>
  </outline>
</glyph>
<glyph name="S.s_v" format="1">
  <advance width="1000"/>
  <unicode hex="E253"/>
  <outline>
    <contour>
      <point x="107.0" y="-119" type="curve" smooth="yes"/>
      <point x="465.0" y="-119" type="line" smooth="yes"/>
      <point x="532.0" y="-119"/>
      <point x="586.0" y="-102"/>
      <point x="623.0" y="-71" type="curve" smooth="yes"/>
      <point x="752.0" y="37" type="line" smooth="yes"/>
      <point x="791.0" y="69"/>
      <point x="811.0" y="116"/>
      <point x="811.0" y="176" type="curve" smooth="yes"/>
      <point x="811.0" y="271" type="line" smooth="yes"/>
      <point x="811.0" y="370"/>
      <point x="765.0" y="413"/>
      <point x="693.0" y="432" type="curve"/>
      <point x="771.0" y="498" type="line" smooth="yes"/>
      <point x="780.0" y="506"/>
      <point x="785.0" y="517"/>
      <point x="785.0" y="535" type="curve" smooth="yes"/>
      <point x="785.0" y="644" type="line" smooth="yes"/>
      <point x="785.0" y="676"/>
      <point x="771.0" y="690"/>
      <point x="739.0" y="690" type="curve" smooth="yes"/>
      <point x="407.0" y="690" type="line" smooth="yes"/>
      <point x="339.0" y="690"/>
      <point x="285.0" y="673"/>
      <point x="249.0" y="643" type="curve" smooth="yes"/>
      <point x="119.0" y="534" type="line" smooth="yes"/>
      <point x="81.0" y="502"/>
      <point x="61.0" y="455"/>
      <point x="61.0" y="395" type="curve" smooth="yes"/>
      <point x="61.0" y="300" type="line" smooth="yes"/>
      <point x="61.0" y="209"/>
      <point x="99.0" y="166"/>
      <point x="162.0" y="144" type="curve"/>
      <point x="75.0" y="71" type="line" smooth="yes"/>
      <point x="66.0" y="63"/>
      <point x="61.0" y="52"/>
      <point x="61.0" y="34" type="curve" smooth="yes"/>
      <point x="61.0" y="-73" type="line" smooth="yes"/>
      <point x="61.0" y="-105"/>
      <point x="75.0" y="-119"/>
    </contour>
  </outline>
</glyph>
<glyph name="T.s_v" format="2">
  <advance width="1000"/>
  <unicode hex="E254"/>
  <outline>
    <contour>
      <point x="455.0" y="-119" type="line" smooth="yes"/>
      <point x="469.0" y="-119"/>
      <point x="480.0" y="-115"/>
      <point x="486.0" y="-109" type="curve"/>
      <point x="616.0" y="-1" type="line" smooth="yes"/>
      <point x="625.0" y="7"/>
      <point x="630.0" y="18"/>
      <point x="630.0" y="36" type="curve" smooth="yes"/>
      <point x="630.0" y="368" type="line"/>
      <point x="635.0" y="368" type="line" smooth="yes"/>
      <point x="649.0" y="368"/>
      <point x="660.0" y="372"/>
      <point x="666.0" y="378" type="curve"/>
      <point x="796.0" y="486" type="line" smooth="yes"/>
      <point x="805.0" y="494"/>
      <point x="810.0" y="505"/>
      <point x="810.0" y="523" type="curve" smooth="yes"/>
      <point x="810.0" y="644" type="line" smooth="yes"/>
      <point x="810.0" y="676"/>
      <point x="796.0" y="690"/>
      <point x="764.0" y="690" type="curve" smooth="yes"/>
      <point x="236.0" y="690" type="line" smooth="yes"/>
      <point x="222.0" y="690"/>
      <point x="211.0" y="687"/>
      <point x="204.0" y="681" type="curve" smooth="yes"/>
      <point x="75.0" y="572" type="line" smooth="yes"/>
      <point x="66.0" y="564"/>
      <point x="61.0" y="553"/>
      <point x="61.0" y="535" type="curve" smooth="yes"/>
      <point x="61.0" y="414" type="line" smooth="yes"/>
      <point x="61.0" y="382"/>
      <point x="75.0" y="368"/>
      <point x="107.0" y="368" type="curve" smooth="yes"/>
      <point x="241.0" y="368" type="line"/>
      <point x="241.0" y="-73" type="line" smooth="yes"/>
      <point x="241.0" y="-105"/>
      <point x="255.0" y="-119"/>
      <point x="287.0" y="-119" type="curve" smooth="yes"/>
    </contour>
  </outline>
</glyph>
<glyph name="U.s_v" format="1">
  <advance width="1000"/>
  <unicode hex="E255"/>
  <outline>
    <contour>
      <point x="371.0" y="-134" type="curve" smooth="yes"/>
      <point x="497.0" y="-134"/>
      <point x="574.0" y="-111"/>
      <point x="620.0" y="-73" type="curve" smooth="yes"/>
      <point x="749.0" y="36" type="line" smooth="yes"/>
      <point x="795.0" y="74"/>
      <point x="810.0" y="127"/>
      <point x="810.0" y="189" type="curve" smooth="yes"/>
      <point x="810.0" y="644" type="line" smooth="yes"/>
      <point x="810.0" y="676"/>
      <point x="796.0" y="690"/>
      <point x="764.0" y="690" type="curve" smooth="yes"/>
      <point x="612.0" y="690" type="line" smooth="yes"/>
      <point x="597.0" y="690"/>
      <point x="587.0" y="687"/>
      <point x="580.0" y="681" type="curve" smooth="yes"/>
      <point x="450.0" y="572" type="line"/>
      <point x="449.0" y="571" type="line" smooth="yes"/>
      <point x="444.0" y="567"/>
      <point x="441.0" y="561"/>
      <point x="439.0" y="553" type="curve"/>
      <point x="439.0" y="644" type="line" smooth="yes"/>
      <point x="439.0" y="676"/>
      <point x="425.0" y="690"/>
      <point x="393.0" y="690" type="curve" smooth="yes"/>
      <point x="236.0" y="690" type="line" smooth="yes"/>
      <point x="222.0" y="690"/>
      <point x="211.0" y="687"/>
      <point x="204.0" y="681" type="curve" smooth="yes"/>
      <point x="75.0" y="572" type="line" smooth="yes"/>
      <point x="66.0" y="564"/>
      <point x="61.0" y="553"/>
      <point x="61.0" y="535" type="curve" smooth="yes"/>
      <point x="61.0" y="80" type="line" smooth="yes"/>
      <point x="61.0" y="-46"/>
      <point x="119.0" y="-134"/>
    </contour>
  </outline>
</glyph>
<glyph name="W.s_v" format="2">
  <advance width="1000"/>
  <unicode hex="E256"/>
  <outline>
    <contour>
      <point x="261.0" y="-119" type="line" smooth="yes"/>
      <point x="282.0" y="-119"/>
      <point x="295.0" y="-114"/>
      <point x="304.0" y="-107" type="curve"/>
      <point x="412.0" y="-16" type="line"/>
      <point x="431.0" y="-82" type="line" smooth="yes"/>
      <point x="439.0" y="-107"/>
      <point x="453.0" y="-119"/>
      <point x="491.0" y="-119" type="curve" smooth="yes"/>
      <point x="591.0" y="-119" type="line" smooth="yes"/>
      <point x="606.0" y="-119"/>
      <point x="616.0" y="-115"/>
      <point x="626.0" y="-108" type="curve"/>
      <point x="755.0" y="1" type="line" smooth="yes"/>
      <point x="764.0" y="9"/>
      <point x="770.0" y="19"/>
      <point x="774.0" y="34" type="curve" smooth="yes"/>
      <point x="810.0" y="169" type="line" smooth="yes"/>
      <point x="828.0" y="239"/>
      <point x="828.0" y="254"/>
      <point x="828.0" y="316" type="curve" smooth="yes"/>
      <point x="832.0" y="644" type="line" smooth="yes"/>
      <point x="832.0" y="676"/>
      <point x="819.0" y="690"/>
      <point x="786.0" y="690" type="curve" smooth="yes"/>
      <point x="653.0" y="690" type="line" smooth="yes"/>
      <point x="640.0" y="690"/>
      <point x="631.0" y="687"/>
      <point x="625.0" y="682" type="curve" smooth="yes"/>
      <point x="495.0" y="573" type="line" smooth="yes"/>
      <point x="487.0" y="566"/>
      <point x="483.0" y="555"/>
      <point x="483.0" y="535" type="curve"/>
      <point x="482.0" y="499" type="line"/>
      <point x="470.0" y="498"/>
      <point x="460.0" y="493"/>
      <point x="451.0" y="485" type="curve" smooth="yes"/>
      <point x="411.0" y="452" type="line"/>
      <point x="408.0" y="644" type="line" smooth="yes"/>
      <point x="408.0" y="676"/>
      <point x="394.0" y="690"/>
      <point x="362.0" y="690" type="curve" smooth="yes"/>
      <point x="214.0" y="690" type="line" smooth="yes"/>
      <point x="200.0" y="690"/>
      <point x="189.0" y="687"/>
      <point x="182.0" y="681" type="curve" smooth="yes"/>
      <point x="53.0" y="572" type="line" smooth="yes"/>
      <point x="44.0" y="564"/>
      <point x="39.0" y="553"/>
      <point x="39.0" y="535" type="curve" smooth="yes"/>
      <point x="43.0" y="209" type="line"/>
      <point x="43.0" y="146"/>
      <point x="43.0" y="132"/>
      <point x="61.0" y="62" type="curve" smooth="yes"/>
      <point x="97.0" y="-76" type="line" smooth="yes"/>
      <point x="105.0" y="-104"/>
      <point x="123.0" y="-119"/>
      <point x="153.0" y="-119" type="curve" smooth="yes"/>
    </contour>
  </outline>
</glyph>
<glyph name="Y.s_v" format="1">
  <advance width="1000"/>
  <unicode hex="E257"/>
  <outline>
    <contour>
      <point x="452.0" y="-119" type="line" smooth="yes"/>
      <point x="466.0" y="-119"/>
      <point x="477.0" y="-115"/>
      <point x="483.0" y="-109" type="curve"/>
      <point x="613.0" y="-1" type="line" smooth="yes"/>
      <point x="622.0" y="7"/>
      <point x="627.0" y="18"/>
      <point x="627.0" y="36" type="curve" smooth="yes"/>
      <point x="627.0" y="151" type="line"/>
      <point x="771.0" y="353" type="line" smooth="yes"/>
      <point x="803.0" y="396"/>
      <point x="811.0" y="427"/>
      <point x="811.0" y="482" type="curve" smooth="yes"/>
      <point x="811.0" y="644" type="line" smooth="yes"/>
      <point x="811.0" y="676"/>
      <point x="797.0" y="690"/>
      <point x="765.0" y="690" type="curve" smooth="yes"/>
      <point x="616.0" y="690" type="line" smooth="yes"/>
      <point x="602.0" y="690"/>
      <point x="591.0" y="687"/>
      <point x="584.0" y="681" type="curve" smooth="yes"/>
      <point x="458.0" y="576" type="line" smooth="yes"/>
      <point x="449.0" y="568"/>
      <point x="444.0" y="557"/>
      <point x="444.0" y="539" type="curve" smooth="yes"/>
      <point x="444.0" y="471" type="line"/>
      <point x="438.0" y="483"/>
      <point x="435.0" y="487"/>
      <point x="435.0" y="510" type="curve" smooth="yes"/>
      <point x="435.0" y="644" type="line" smooth="yes"/>
      <point x="435.0" y="676"/>
      <point x="421.0" y="690"/>
      <point x="389.0" y="690" type="curve" smooth="yes"/>
      <point x="235.0" y="690" type="line" smooth="yes"/>
      <point x="221.0" y="690"/>
      <point x="210.0" y="687"/>
      <point x="203.0" y="681" type="curve" smooth="yes"/>
      <point x="74.0" y="572" type="line" smooth="yes"/>
      <point x="65.0" y="564"/>
      <point x="60.0" y="553"/>
      <point x="60.0" y="535" type="curve" smooth="yes"/>
      <point x="60.0" y="373" type="line" smooth="yes"/>
      <point x="60.0" y="318"/>
      <point x="68.0" y="287"/>
      <point x="100.0" y="244" type="curve" smooth="yes"/>
      <point x="244.0" y="43" type="line"/>
      <point x="244.0" y="-73" type="line" smooth="yes"/>
      <point x="244.0" y="-105"/>
      <point x="257.0" y="-119"/>
      <point x="290.0" y="-119" type="curve" smooth="yes"/>
    </contour>
  </outline>
</glyph>
<glyph name="Z.s_v" format="2">
  <advance width="1000"/>
  <unicode hex="E258"/>
  <outline>
    <contour>
      <point x="635.0" y="-119" type="line" smooth="yes"/>
      <point x="649.0" y="-119"/>
      <point x="660.0" y="-115"/>
      <point x="666.0" y="-109" type="curve"/>
      <point x="796.0" y="-1" type="line" smooth="yes"/>
      <point x="805.0" y="7"/>
      <point x="810.0" y="18"/>
      <point x="810.0" y="36" type="curve" smooth="yes"/>
      <point x="810.0" y="155" type="line" smooth="yes"/>
      <point x="810.0" y="187"/>
      <point x="796.0" y="201"/>
      <point x="764.0" y="201" type="curve" smooth="yes"/>
      <point x="520.0" y="201" type="line"/>
      <point x="774.0" y="425" type="line" smooth="yes"/>
      <point x="794.0" y="446"/>
      <point x="802.0" y="465"/>
      <point x="802.0" y="495" type="curve" smooth="yes"/>
      <point x="802.0" y="644" type="line" smooth="yes"/>
      <point x="802.0" y="676"/>
      <point x="788.0" y="690"/>
      <point x="756.0" y="690" type="curve" smooth="yes"/>
      <point x="244.0" y="690" type="line" smooth="yes"/>
      <point x="230.0" y="690"/>
      <point x="219.0" y="687"/>
      <point x="212.0" y="681" type="curve" smooth="yes"/>
      <point x="83.0" y="572" type="line" smooth="yes"/>
      <point x="74.0" y="564"/>
      <point x="69.0" y="553"/>
      <point x="69.0" y="535" type="curve" smooth="yes"/>
      <point x="69.0" y="414" type="line" smooth="yes"/>
      <point x="69.0" y="382"/>
      <point x="83.0" y="368"/>
      <point x="115.0" y="368" type="curve" smooth="yes"/>
      <point x="355.0" y="368" type="line"/>
      <point x="89.0" y="130" type="line" smooth="yes"/>
      <point x="69.0" y="109"/>
      <point x="61.0" y="90"/>
      <point x="61.0" y="61" type="curve" smooth="yes"/>
      <point x="61.0" y="-73" type="line" smooth="yes"/>
      <point x="61.0" y="-105"/>
      <point x="75.0" y="-119"/>
      <point x="107.0" y="-119" type="curve" smooth="yes"/>
    </contour>
  </outline>
</glyph>
<glyph name="I.salt_s_v" format="1">
  <advance width="1000"/>
  <unicode hex="E25B"/>
  <outline>
    <contour>
      <point x="450.0" y="-119" type="line" smooth="yes"/>
      <point x="464.0" y="-119"/>
      <point x="475.0" y="-115"/>
      <point x="481.0" y="-109" type="curve"/>
      <point x="611.0" y="-1" type="line" smooth="yes"/>
      <point x="620.0" y="7"/>
      <point x="625.0" y="18"/>
      <point x="625.0" y="36" type="curve" smooth="yes"/>
      <point x="625.0" y="644" type="line" smooth="yes"/>
      <point x="625.0" y="676"/>
      <point x="611.0" y="690"/>
      <point x="579.0" y="690" type="curve" smooth="yes"/>
      <point x="420.0" y="690" type="line" smooth="yes"/>
      <point x="406.0" y="690"/>
      <point x="395.0" y="687"/>
      <point x="388.0" y="681" type="curve" smooth="yes"/>
      <point x="259.0" y="572" type="line" smooth="yes"/>
      <point x="250.0" y="564"/>
      <point x="245.0" y="553"/>
      <point x="245.0" y="535" type="curve" smooth="yes"/>
      <point x="245.0" y="-73" type="line" smooth="yes"/>
      <point x="245.0" y="-105"/>
      <point x="259.0" y="-119"/>
      <point x="291.0" y="-119" type="curve" smooth="yes"/>
    </contour>
  </outline>
</glyph>
<glyph name="zero.v" format="2">
  <advance width="1000"/>
  <unicode hex="FF10"/>
  <anchor x="505.0" y="747.0" name="top"/>
  <anchor x="505.0" y="0.0" name="bottom"/>
  <outline>
    <contour>
      <point x="620.0" y="-72" type="curve" smooth="yes"/>
      <point x="749.0" y="36" type="line" smooth="yes"/>
      <point x="794.0" y="74"/>
      <point x="810.0" y="127"/>
      <point x="810.0" y="189" type="curve" smooth="yes"/>
      <point x="810.0" y="530" type="line" smooth="yes"/>
      <point x="810.0" y="656"/>
      <point x="750.0" y="745"/>
      <point x="500.0" y="745" type="curve" smooth="yes"/>
      <point x="375.0" y="745"/>
      <point x="297.0" y="722"/>
      <point x="251.0" y="684" type="curve" smooth="yes"/>
      <point x="122.0" y="575" type="line" smooth="yes"/>
      <point x="76.0" y="537"/>
      <point x="61" y="484"/>
      <point x="61.0" y="421" type="curve" smooth="yes"/>
      <point x="61" y="110" type="line" smooth="yes"/>
      <point x="61" y="-16"/>
      <point x="121.0" y="-134"/>
      <point x="371.0" y="-134" type="curve" smooth="yes"/>
      <point x="497.0" y="-134"/>
      <point x="574.0" y="-111"/>
    </contour>
  </outline>
</glyph>
<glyph name="two.v" format="2">
  <advance width="1000"/>
  <unicode hex="FF12"/>
  <outline>
    <contour>
      <point x="635.0" y="-119" type="line" smooth="yes"/>
      <point x="649.0" y="-119"/>
      <point x="660.0" y="-115"/>
      <point x="666.0" y="-109" type="curve"/>
      <point x="796.0" y="-1" type="line" smooth="yes"/>
      <point x="805.0" y="7"/>
      <point x="810.0" y="18"/>
      <point x="810.0" y="36" type="curve" smooth="yes"/>
      <point x="810.0" y="153" type="line" smooth="yes"/>
      <point x="810.0" y="185"/>
      <point x="796.0" y="199"/>
      <point x="764.0" y="199" type="curve" smooth="yes"/>
      <point x="595.0" y="199" type="line"/>
      <point x="604.0" y="205"/>
      <point x="613.0" y="211"/>
      <point x="621.0" y="217" type="curve" smooth="yes"/>
      <point x="750.0" y="325" type="line" smooth="yes"/>
      <point x="788.0" y="357"/>
      <point x="809.0" y="402"/>
      <point x="809.0" y="465" type="curve" smooth="yes"/>
      <point x="809.0" y="554" type="line" smooth="yes"/>
      <point x="809.0" y="668"/>
      <point x="744.0" y="730"/>
      <point x="623.0" y="730" type="curve" smooth="yes"/>
      <point x="256.0" y="730" type="line" smooth="yes"/>
      <point x="242.0" y="730"/>
      <point x="231.0" y="727"/>
      <point x="224.0" y="721" type="curve" smooth="yes"/>
      <point x="95.0" y="612" type="line" smooth="yes"/>
      <point x="86.0" y="604"/>
      <point x="81.0" y="593"/>
      <point x="81.0" y="575" type="curve" smooth="yes"/>
      <point x="81.0" y="456" type="line" smooth="yes"/>
      <point x="81.0" y="424"/>
      <point x="95.0" y="410"/>
      <point x="127.0" y="410" type="curve" smooth="yes"/>
      <point x="277.0" y="410" type="line"/>
      <point x="269.0" y="405"/>
      <point x="261.0" y="400"/>
      <point x="254.0" y="394" type="curve" smooth="yes"/>
      <point x="125.0" y="285" type="line" smooth="yes"/>
      <point x="85.0" y="252"/>
      <point x="61.0" y="201"/>
      <point x="61.0" y="104" type="curve" smooth="yes"/>
      <point x="61.0" y="-73" type="line" smooth="yes"/>
      <point x="61.0" y="-105"/>
      <point x="75.0" y="-119"/>
      <point x="107.0" y="-119" type="curve" smooth="yes"/>
    </contour>
  </outline>
</glyph>
<glyph name="three.v" format="2">
  <advance width="1000"/>
  <unicode hex="FF13"/>
  <outline>
    <contour>
      <point x="107.0" y="-119" type="curve" smooth="yes"/>
      <point x="479.0" y="-119" type="line" smooth="yes"/>
      <point x="544.0" y="-119"/>
      <point x="594.0" y="-103"/>
      <point x="628.0" y="-74" type="curve" smooth="yes"/>
      <point x="756.0" y="34" type="line" smooth="yes"/>
      <point x="794.0" y="65"/>
      <point x="812.0" y="110"/>
      <point x="812.0" y="166" type="curve" smooth="yes"/>
      <point x="812.0" y="266" type="line" smooth="yes"/>
      <point x="812.0" y="351"/>
      <point x="784.0" y="399"/>
      <point x="705.0" y="416" type="curve"/>
      <point x="707.0" y="418" type="line" smooth="yes"/>
      <point x="734.0" y="441"/>
      <point x="745.0" y="475"/>
      <point x="745.0" y="519" type="curve" smooth="yes"/>
      <point x="745.0" y="577" type="line" smooth="yes"/>
      <point x="745.0" y="670"/>
      <point x="690.0" y="730"/>
      <point x="571.0" y="730" type="curve" smooth="yes"/>
      <point x="236.0" y="730" type="line" smooth="yes"/>
      <point x="222.0" y="730"/>
      <point x="211.0" y="727"/>
      <point x="204.0" y="721" type="curve" smooth="yes"/>
      <point x="75.0" y="612" type="line" smooth="yes"/>
      <point x="66.0" y="604"/>
      <point x="61.0" y="593"/>
      <point x="61.0" y="575" type="curve" smooth="yes"/>
      <point x="61.0" y="456" type="line" smooth="yes"/>
      <point x="61.0" y="424"/>
      <point x="75.0" y="410"/>
      <point x="107.0" y="410" type="curve" smooth="yes"/>
      <point x="232.0" y="410" type="line"/>
      <point x="156.0" y="346" type="line" smooth="yes"/>
      <point x="147.0" y="338"/>
      <point x="142.0" y="327"/>
      <point x="142.0" y="309" type="curve" smooth="yes"/>
      <point x="142.0" y="202" type="line" smooth="yes"/>
      <point x="142.0" y="178"/>
      <point x="150.0" y="164"/>
      <point x="168.0" y="159" type="curve"/>
      <point x="75.0" y="81" type="line" smooth="yes"/>
      <point x="66.0" y="73"/>
      <point x="61.0" y="62"/>
      <point x="61.0" y="44" type="curve" smooth="yes"/>
      <point x="61.0" y="-73" type="line" smooth="yes"/>
      <point x="61.0" y="-105"/>
      <point x="75.0" y="-119"/>
    </contour>
  </outline>
</glyph>
<glyph name="six.v" format="2">
  <advance width="1000"/>
  <unicode hex="FF16"/>
  <outline>
    <contour>
      <point x="373.0" y="-134" type="curve" smooth="yes"/>
      <point x="497.0" y="-134"/>
      <point x="576.0" y="-110"/>
      <point x="624.0" y="-71" type="curve" smooth="yes"/>
      <point x="753.0" y="38" type="line" smooth="yes"/>
      <point x="798.0" y="75"/>
      <point x="815.0" y="126"/>
      <point x="815.0" y="187" type="curve" smooth="yes"/>
      <point x="815.0" y="283" type="line" smooth="yes"/>
      <point x="815.0" y="388"/>
      <point x="776.0" y="450"/>
      <point x="652.0" y="468" type="curve"/>
      <point x="725.0" y="529" type="line" smooth="yes"/>
      <point x="734.0" y="537"/>
      <point x="739.0" y="548"/>
      <point x="739.0" y="566" type="curve" smooth="yes"/>
      <point x="739.0" y="684" type="line" smooth="yes"/>
      <point x="739.0" y="716"/>
      <point x="726.0" y="730"/>
      <point x="693.0" y="730" type="curve" smooth="yes"/>
      <point x="441.0" y="730" type="line" smooth="yes"/>
      <point x="349.0" y="730"/>
      <point x="287.0" y="711"/>
      <point x="248.0" y="678" type="curve" smooth="yes"/>
      <point x="119.0" y="569" type="line" smooth="yes"/>
      <point x="73.0" y="531"/>
      <point x="56" y="474"/>
      <point x="56.0" y="406" type="curve" smooth="yes"/>
      <point x="56" y="108" type="line" smooth="yes"/>
      <point x="56" y="-18"/>
      <point x="115.0" y="-134"/>
    </contour>
  </outline>
</glyph>
<glyph name="nine.v" format="2">
  <advance width="1000"/>
  <unicode hex="FF19"/>
  <outline>
    <contour>
      <point x="178.0" y="-119" type="curve" smooth="yes"/>
      <point x="430.0" y="-119" type="line" smooth="yes"/>
      <point x="521.0" y="-119"/>
      <point x="583.0" y="-99"/>
      <point x="622.0" y="-66" type="curve" smooth="yes"/>
      <point x="751.0" y="43" type="line" smooth="yes"/>
      <point x="798.0" y="81"/>
      <point x="815.0" y="138"/>
      <point x="815.0" y="206" type="curve" smooth="yes"/>
      <point x="815.0" y="534" type="line" smooth="yes"/>
      <point x="815.0" y="660"/>
      <point x="756.0" y="746"/>
      <point x="498.0" y="746" type="curve" smooth="yes"/>
      <point x="374.0" y="746"/>
      <point x="294.0" y="723"/>
      <point x="247.0" y="683" type="curve" smooth="yes"/>
      <point x="117.0" y="574" type="line" smooth="yes"/>
      <point x="73.0" y="537"/>
      <point x="56.0" y="486"/>
      <point x="56.0" y="425" type="curve" smooth="yes"/>
      <point x="56.0" y="329" type="line" smooth="yes"/>
      <point x="56.0" y="225"/>
      <point x="94.0" y="162"/>
      <point x="219.0" y="145" type="curve"/>
      <point x="146.0" y="83" type="line" smooth="yes"/>
      <point x="137.0" y="75"/>
      <point x="132.0" y="64"/>
      <point x="132.0" y="46" type="curve" smooth="yes"/>
      <point x="132.0" y="-72" type="line" smooth="yes"/>
      <point x="132.0" y="-104"/>
      <point x="145.0" y="-119"/>
    </contour>
  </outline>
</glyph>
<glyph name="A.v" format="1">
  <advance width="1000"/>
  <unicode hex="FF21"/>
  <outline>
    <contour>
      <point x="414.0" y="-1" type="line" smooth="yes"/>
      <point x="423.0" y="7"/>
      <point x="428.0" y="18"/>
      <point x="428.0" y="36" type="curve" smooth="yes"/>
      <point x="428.0" y="57" type="line"/>
      <point x="436.0" y="57" type="line"/>
      <point x="436.0" y="-73" type="line" smooth="yes"/>
      <point x="436.0" y="-104"/>
      <point x="453.0" y="-119"/>
      <point x="485.0" y="-119" type="curve" smooth="yes"/>
      <point x="636.0" y="-119" type="line" smooth="yes"/>
      <point x="650.0" y="-119"/>
      <point x="661.0" y="-115"/>
      <point x="667.0" y="-109" type="curve"/>
      <point x="797.0" y="-1" type="line" smooth="yes"/>
      <point x="806.0" y="7"/>
      <point x="811.0" y="18"/>
      <point x="811.0" y="36" type="curve" smooth="yes"/>
      <point x="811.0" y="300" type="line" smooth="yes"/>
      <point x="811.0" y="371"/>
      <point x="801.0" y="386"/>
      <point x="771.0" y="464" type="curve" smooth="yes"/>
      <point x="684.0" y="691" type="line" smooth="yes"/>
      <point x="674.0" y="720"/>
      <point x="656.0" y="730"/>
      <point x="625.0" y="730" type="curve" smooth="yes"/>
      <point x="366.0" y="730" type="line" smooth="yes"/>
      <point x="348.0" y="730"/>
      <point x="334.0" y="726"/>
      <point x="324.0" y="718" type="curve" smooth="yes"/>
      <point x="194.0" y="609" type="line" smooth="yes"/>
      <point x="186.0" y="603"/>
      <point x="180.0" y="593"/>
      <point x="176.0" y="581" type="curve" smooth="yes"/>
      <point x="100.0" y="354" type="line" smooth="yes"/>
      <point x="70.0" y="277"/>
      <point x="60.0" y="262"/>
      <point x="60.0" y="191" type="curve" smooth="yes"/>
      <point x="60.0" y="-73" type="line" smooth="yes"/>
      <point x="60.0" y="-105"/>
      <point x="73.0" y="-119"/>
      <point x="106.0" y="-119" type="curve" smooth="yes"/>
      <point x="253.0" y="-119" type="line" smooth="yes"/>
      <point x="267.0" y="-119"/>
      <point x="278.0" y="-115"/>
      <point x="284.0" y="-109" type="curve"/>
    </contour>
  </outline>
</glyph>
<glyph name="B.v" format="1">
  <advance width="1000"/>
  <unicode hex="FF22"/>
  <outline>
    <contour>
      <point x="108.0" y="-118" type="curve" smooth="yes"/>
      <point x="483.0" y="-118" type="line" smooth="yes"/>
      <point x="548.0" y="-118"/>
      <point x="598.0" y="-102"/>
      <point x="632.0" y="-73" type="curve" smooth="yes"/>
      <point x="761.0" y="35" type="line" smooth="yes"/>
      <point x="798.0" y="66"/>
      <point x="816.0" y="110"/>
      <point x="816.0" y="165" type="curve" smooth="yes"/>
      <point x="816.0" y="257" type="line" smooth="yes"/>
      <point x="816.0" y="345"/>
      <point x="771.0" y="400"/>
      <point x="708.0" y="417" type="curve"/>
      <point x="711.0" y="419" type="line" smooth="yes"/>
      <point x="738.0" y="442"/>
      <point x="749.0" y="476"/>
      <point x="749.0" y="520" type="curve" smooth="yes"/>
      <point x="749.0" y="568" type="line" smooth="yes"/>
      <point x="749.0" y="661"/>
      <point x="692.0" y="731"/>
      <point x="547.0" y="731" type="curve" smooth="yes"/>
      <point x="237.0" y="731" type="line" smooth="yes"/>
      <point x="223.0" y="731"/>
      <point x="212.0" y="728"/>
      <point x="205.0" y="722" type="curve" smooth="yes"/>
      <point x="76.0" y="613" type="line" smooth="yes"/>
      <point x="67.0" y="605"/>
      <point x="62.0" y="594"/>
      <point x="62.0" y="576" type="curve" smooth="yes"/>
      <point x="62.0" y="-72" type="line" smooth="yes"/>
      <point x="62.0" y="-104"/>
      <point x="76.0" y="-118"/>
    </contour>
  </outline>
</glyph>
<glyph name="C.v" format="1">
  <advance width="1000"/>
  <unicode hex="FF23"/>
  <outline>
    <contour>
      <point x="626.0" y="-119" type="line" smooth="yes"/>
      <point x="640.0" y="-119"/>
      <point x="651.0" y="-115"/>
      <point x="657.0" y="-109" type="curve"/>
      <point x="787.0" y="-1" type="line" smooth="yes"/>
      <point x="796.0" y="7"/>
      <point x="801.0" y="18"/>
      <point x="801.0" y="36" type="curve" smooth="yes"/>
      <point x="801.0" y="155" type="line" smooth="yes"/>
      <point x="801.0" y="187"/>
      <point x="787.0" y="201"/>
      <point x="755.0" y="201" type="curve" smooth="yes"/>
      <point x="485.0" y="201" type="line" smooth="yes"/>
      <point x="444.0" y="201"/>
      <point x="434.0" y="216"/>
      <point x="434.0" y="239" type="curve" smooth="yes"/>
      <point x="434.0" y="408" type="line"/>
      <point x="626.0" y="408" type="line" smooth="yes"/>
      <point x="640.0" y="408"/>
      <point x="651.0" y="412"/>
      <point x="657.0" y="418" type="curve"/>
      <point x="787.0" y="526" type="line" smooth="yes"/>
      <point x="796.0" y="534"/>
      <point x="801.0" y="545"/>
      <point x="801.0" y="563" type="curve" smooth="yes"/>
      <point x="801.0" y="684" type="line" smooth="yes"/>
      <point x="801.0" y="716"/>
      <point x="787.0" y="730"/>
      <point x="755.0" y="730" type="curve" smooth="yes"/>
      <point x="442.0" y="730" type="line" smooth="yes"/>
      <point x="350.0" y="730"/>
      <point x="288.0" y="711"/>
      <point x="249.0" y="678" type="curve" smooth="yes"/>
      <point x="120.0" y="569" type="line" smooth="yes"/>
      <point x="74.0" y="531"/>
      <point x="57" y="474"/>
      <point x="57.0" y="406" type="curve" smooth="yes"/>
      <point x="57" y="125" type="line" smooth="yes"/>
      <point x="57" y="-1"/>
      <point x="115.0" y="-119"/>
      <point x="313.0" y="-119" type="curve" smooth="yes"/>
    </contour>
  </outline>
</glyph>
<glyph name="F.v" format="2">
  <advance width="1000"/>
  <unicode hex="FF26"/>
  <outline>
    <contour>
      <point x="263.0" y="-119" type="line" smooth="yes"/>
      <point x="277.0" y="-119"/>
      <point x="287.0" y="-115"/>
      <point x="294.0" y="-109" type="curve" smooth="yes"/>
      <point x="423.0" y="-1" type="line"/>
      <point x="433.0" y="7"/>
      <point x="438.0" y="19"/>
      <point x="438.0" y="37" type="curve" smooth="yes"/>
      <point x="438.0" y="115" type="line"/>
      <point x="545.0" y="115" type="line" smooth="yes"/>
      <point x="559.0" y="115"/>
      <point x="570.0" y="119"/>
      <point x="576.0" y="125" type="curve"/>
      <point x="706.0" y="233" type="line" smooth="yes"/>
      <point x="715.0" y="241"/>
      <point x="720.0" y="252"/>
      <point x="720.0" y="270" type="curve" smooth="yes"/>
      <point x="720.0" y="390" type="line" smooth="yes"/>
      <point x="720.0" y="422"/>
      <point x="706.0" y="436"/>
      <point x="675.0" y="436" type="curve"/>
      <point x="787.0" y="529" type="line" smooth="yes"/>
      <point x="796.0" y="537"/>
      <point x="801.0" y="548"/>
      <point x="801.0" y="566" type="curve" smooth="yes"/>
      <point x="801.0" y="685" type="line" smooth="yes"/>
      <point x="801.0" y="717"/>
      <point x="787.0" y="731"/>
      <point x="755.0" y="731" type="curve" smooth="yes"/>
      <point x="237.0" y="731" type="line" smooth="yes"/>
      <point x="223.0" y="731"/>
      <point x="212.0" y="728"/>
      <point x="205.0" y="722" type="curve" smooth="yes"/>
      <point x="76.0" y="613" type="line" smooth="yes"/>
      <point x="67.0" y="605"/>
      <point x="62.0" y="594"/>
      <point x="62.0" y="576" type="curve" smooth="yes"/>
      <point x="62.0" y="-72" type="line" smooth="yes"/>
      <point x="62.0" y="-104"/>
      <point x="76.0" y="-119"/>
      <point x="108.0" y="-119" type="curve" smooth="yes"/>
    </contour>
  </outline>
</glyph>
<glyph name="K.v" format="2">
  <advance width="1000"/>
  <unicode hex="FF2B"/>
  <outline>
    <contour>
      <point x="424.0" y="-1" type="line" smooth="yes"/>
      <point x="430.0" y="4"/>
      <point x="434.0" y="10"/>
      <point x="436.0" y="18" type="curve"/>
      <point x="436.0" y="-73" type="line" smooth="yes"/>
      <point x="436.0" y="-105"/>
      <point x="450.0" y="-119"/>
      <point x="482.0" y="-119" type="curve" smooth="yes"/>
      <point x="636.0" y="-119" type="line" smooth="yes"/>
      <point x="650.0" y="-119"/>
      <point x="661.0" y="-115"/>
      <point x="667.0" y="-109" type="curve"/>
      <point x="797.0" y="-1" type="line" smooth="yes"/>
      <point x="806.0" y="7"/>
      <point x="811.0" y="18"/>
      <point x="811.0" y="36" type="curve" smooth="yes"/>
      <point x="811.0" y="318" type="line" smooth="yes"/>
      <point x="811.0" y="399"/>
      <point x="765.0" y="453"/>
      <point x="693.0" y="463" type="curve"/>
      <point x="789.0" y="683" type="line" smooth="yes"/>
      <point x="802.0" y="713"/>
      <point x="791.0" y="730"/>
      <point x="758.0" y="730" type="curve" smooth="yes"/>
      <point x="604.0" y="730" type="line" smooth="yes"/>
      <point x="586.0" y="730"/>
      <point x="573.0" y="726"/>
      <point x="563.0" y="718" type="curve" smooth="yes"/>
      <point x="438.0" y="612" type="line"/>
      <point x="438.0" y="684" type="line" smooth="yes"/>
      <point x="438.0" y="716"/>
      <point x="424.0" y="730"/>
      <point x="392.0" y="730" type="curve" smooth="yes"/>
      <point x="237.0" y="730" type="line" smooth="yes"/>
      <point x="223.0" y="730"/>
      <point x="212.0" y="727"/>
      <point x="205.0" y="721" type="curve" smooth="yes"/>
      <point x="76.0" y="612" type="line" smooth="yes"/>
      <point x="67.0" y="604"/>
      <point x="62.0" y="593"/>
      <point x="62.0" y="575" type="curve" smooth="yes"/>
      <point x="62.0" y="-73" type="line" smooth="yes"/>
      <point x="62.0" y="-105"/>
      <point x="76.0" y="-119"/>
      <point x="108.0" y="-119" type="curve" smooth="yes"/>
      <point x="263.0" y="-119" type="line" smooth="yes"/>
      <point x="277.0" y="-119"/>
      <point x="288.0" y="-115"/>
      <point x="294.0" y="-109" type="curve"/>
    </contour>
  </outline>
</glyph>
<glyph name="L.v" format="2">
  <advance width="1000"/>
  <unicode hex="FF2C"/>
  <outline>
    <contour>
      <point x="636.0" y="-119" type="line" smooth="yes"/>
      <point x="650.0" y="-119"/>
      <point x="661.0" y="-115"/>
      <point x="667.0" y="-109" type="curve"/>
      <point x="797.0" y="-1" type="line" smooth="yes"/>
      <point x="806.0" y="7"/>
      <point x="811.0" y="18"/>
      <point x="811.0" y="36" type="curve" smooth="yes"/>
      <point x="811.0" y="351" type="line" smooth="yes"/>
      <point x="811.0" y="383"/>
      <point x="797.0" y="397"/>
      <point x="765.0" y="397" type="curve" smooth="yes"/>
      <point x="620.0" y="397" type="line" smooth="yes"/>
      <point x="606.0" y="397"/>
      <point x="595.0" y="394"/>
      <point x="588.0" y="388" type="curve" smooth="yes"/>
      <point x="462.0" y="280" type="line" smooth="yes"/>
      <point x="453.0" y="272"/>
      <point x="448.0" y="261"/>
      <point x="448.0" y="243" type="curve" smooth="yes"/>
      <point x="448.0" y="199" type="line"/>
      <point x="438.0" y="199" type="line"/>
      <point x="438.0" y="684" type="line" smooth="yes"/>
      <point x="438.0" y="716"/>
      <point x="424.0" y="730"/>
      <point x="392.0" y="730" type="curve" smooth="yes"/>
      <point x="237.0" y="730" type="line" smooth="yes"/>
      <point x="223.0" y="730"/>
      <point x="212.0" y="727"/>
      <point x="205.0" y="721" type="curve" smooth="yes"/>
      <point x="76.0" y="612" type="line" smooth="yes"/>
      <point x="67.0" y="604"/>
      <point x="62.0" y="593"/>
      <point x="62.0" y="575" type="curve" smooth="yes"/>
      <point x="62.0" y="-73" type="line" smooth="yes"/>
      <point x="62.0" y="-105"/>
      <point x="76.0" y="-119"/>
      <point x="108.0" y="-119" type="curve" smooth="yes"/>
    </contour>
  </outline>
</glyph>
<glyph name="N.v" format="2">
  <advance width="1000"/>
  <unicode hex="FF2E"/>
  <outline>
    <contour>
      <point x="418.0" y="-1" type="line" smooth="yes"/>
      <point x="427.0" y="7"/>
      <point x="432.0" y="18"/>
      <point x="432.0" y="36" type="curve" smooth="yes"/>
      <point x="432.0" y="57" type="line"/>
      <point x="440.0" y="47" type="line"/>
      <point x="440.0" y="-73" type="line" smooth="yes"/>
      <point x="440.0" y="-105"/>
      <point x="454.0" y="-119"/>
      <point x="486.0" y="-119" type="curve" smooth="yes"/>
      <point x="636.0" y="-119" type="line" smooth="yes"/>
      <point x="650.0" y="-119"/>
      <point x="661.0" y="-115"/>
      <point x="667.0" y="-109" type="curve"/>
      <point x="797.0" y="-1" type="line" smooth="yes"/>
      <point x="806.0" y="7"/>
      <point x="811.0" y="18"/>
      <point x="811.0" y="36" type="curve" smooth="yes"/>
      <point x="811.0" y="684" type="line" smooth="yes"/>
      <point x="811.0" y="716"/>
      <point x="797.0" y="730"/>
      <point x="765.0" y="730" type="curve" smooth="yes"/>
      <point x="615.0" y="730" type="line" smooth="yes"/>
      <point x="601.0" y="730"/>
      <point x="590.0" y="727"/>
      <point x="583.0" y="721" type="curve" smooth="yes"/>
      <point x="467.0" y="624" type="line"/>
      <point x="407.0" y="699" type="line" smooth="yes"/>
      <point x="387.0" y="722"/>
      <point x="369.0" y="730"/>
      <point x="340.0" y="730" type="curve" smooth="yes"/>
      <point x="236.0" y="730" type="line" smooth="yes"/>
      <point x="222.0" y="730"/>
      <point x="211.0" y="727"/>
      <point x="204.0" y="721" type="curve" smooth="yes"/>
      <point x="75.0" y="612" type="line" smooth="yes"/>
      <point x="66.0" y="604"/>
      <point x="61.0" y="593"/>
      <point x="61.0" y="575" type="curve" smooth="yes"/>
      <point x="61.0" y="-73" type="line" smooth="yes"/>
      <point x="61.0" y="-105"/>
      <point x="75.0" y="-119"/>
      <point x="107.0" y="-119" type="curve" smooth="yes"/>
      <point x="257.0" y="-119" type="line" smooth="yes"/>
      <point x="271.0" y="-119"/>
      <point x="282.0" y="-115"/>
      <point x="288.0" y="-109" type="curve"/>
    </contour>
  </outline>
</glyph>
<glyph name="O.v" format="1">
  <advance width="1000"/>
  <unicode hex="FF2F"/>
  <outline>
    <contour>
      <point x="624.0" y="-72" type="curve" smooth="yes"/>
      <point x="754.0" y="36" type="line" smooth="yes"/>
      <point x="799.0" y="74"/>
      <point x="814.0" y="127"/>
      <point x="814.0" y="189" type="curve" smooth="yes"/>
      <point x="814.0" y="530" type="line" smooth="yes"/>
      <point x="814.0" y="656"/>
      <point x="757.0" y="745"/>
      <point x="500.0" y="745" type="curve" smooth="yes"/>
      <point x="370.0" y="745"/>
      <point x="293.0" y="722"/>
      <point x="247.0" y="683" type="curve" smooth="yes"/>
      <point x="117.0" y="575" type="line" smooth="yes"/>
      <point x="72.0" y="537"/>
      <point x="57.0" y="484"/>
      <point x="57.0" y="421" type="curve" smooth="yes"/>
      <point x="57.0" y="80" type="line" smooth="yes"/>
      <point x="57.0" y="-46"/>
      <point x="114.0" y="-134"/>
      <point x="371.0" y="-134" type="curve" smooth="yes"/>
      <point x="501.0" y="-134"/>
      <point x="578.0" y="-111"/>
    </contour>
    <contour>
      <point x="433.0" y="225" type="curve" smooth="yes"/>
      <point x="433.0" y="414" type="line"/>
      <point x="448.0" y="408"/>
      <point x="452.0" y="398"/>
      <point x="452.0" y="385" type="curve" smooth="yes"/>
      <point x="452.0" y="195" type="line"/>
      <point x="437.0" y="202"/>
      <point x="433.0" y="212"/>
    </contour>
  </outline>
</glyph>
<glyph name="U.v" format="2">
  <advance width="1000"/>
  <unicode hex="FF35"/>
  <outline>
    <contour>
      <point x="371.0" y="-134" type="curve" smooth="yes"/>
      <point x="497.0" y="-134"/>
      <point x="574.0" y="-111"/>
      <point x="620.0" y="-73" type="curve" smooth="yes"/>
      <point x="749.0" y="36" type="line" smooth="yes"/>
      <point x="795.0" y="74"/>
      <point x="810.0" y="127"/>
      <point x="810.0" y="189" type="curve" smooth="yes"/>
      <point x="810.0" y="684" type="line" smooth="yes"/>
      <point x="810.0" y="716"/>
      <point x="796.0" y="730"/>
      <point x="764.0" y="730" type="curve" smooth="yes"/>
      <point x="612.0" y="730" type="line" smooth="yes"/>
      <point x="597.0" y="730"/>
      <point x="587.0" y="727"/>
      <point x="580.0" y="721" type="curve" smooth="yes"/>
      <point x="450.0" y="612" type="line"/>
      <point x="449.0" y="611" type="line" smooth="yes"/>
      <point x="444.0" y="607"/>
      <point x="441.0" y="601"/>
      <point x="439.0" y="593" type="curve"/>
      <point x="439.0" y="684" type="line" smooth="yes"/>
      <point x="439.0" y="716"/>
      <point x="425.0" y="730"/>
      <point x="393.0" y="730" type="curve" smooth="yes"/>
      <point x="236.0" y="730" type="line" smooth="yes"/>
      <point x="222.0" y="730"/>
      <point x="211.0" y="727"/>
      <point x="204.0" y="721" type="curve" smooth="yes"/>
      <point x="75.0" y="612" type="line" smooth="yes"/>
      <point x="66.0" y="604"/>
      <point x="61" y="593"/>
      <point x="61.0" y="575" type="curve" smooth="yes"/>
      <point x="61" y="110" type="line" smooth="yes"/>
      <point x="61" y="-16"/>
      <point x="119.0" y="-134"/>
    </contour>
  </outline>
</glyph>
<glyph name="X.v" format="2">
  <advance width="1000"/>
  <unicode hex="FF38"/>
  <anchor x="508.0" y="747.0" name="top"/>
  <anchor x="508.0" y="0.0" name="bottom"/>
  <outline>
    <contour>
      <point x="290.0" y="-109" type="curve"/>
      <point x="420.0" y="-1" type="line" smooth="yes"/>
      <point x="429.0" y="7"/>
      <point x="434.0" y="18"/>
      <point x="434.0" y="36" type="curve"/>
      <point x="434.0" y="-73" type="line" smooth="yes"/>
      <point x="434.0" y="-105"/>
      <point x="448.0" y="-119"/>
      <point x="480.0" y="-119" type="curve" smooth="yes"/>
      <point x="635.0" y="-119" type="line" smooth="yes"/>
      <point x="649.0" y="-119"/>
      <point x="660.0" y="-115"/>
      <point x="666.0" y="-109" type="curve"/>
      <point x="796.0" y="-1" type="line" smooth="yes"/>
      <point x="805.0" y="7"/>
      <point x="810.0" y="18"/>
      <point x="810.0" y="36" type="curve" smooth="yes"/>
      <point x="810.0" y="143" type="line" smooth="yes"/>
      <point x="810.0" y="208"/>
      <point x="798.0" y="227"/>
      <point x="770.0" y="272" type="curve" smooth="yes"/>
      <point x="708.0" y="374" type="line"/>
      <point x="770.0" y="478" type="line" smooth="yes"/>
      <point x="797.0" y="524"/>
      <point x="810.0" y="542"/>
      <point x="810.0" y="607" type="curve" smooth="yes"/>
      <point x="810.0" y="684" type="line" smooth="yes"/>
      <point x="810.0" y="716"/>
      <point x="796.0" y="730"/>
      <point x="764.0" y="730" type="curve" smooth="yes"/>
      <point x="612.0" y="730" type="line" smooth="yes"/>
      <point x="598.0" y="730"/>
      <point x="587.0" y="727"/>
      <point x="580.0" y="721" type="curve" smooth="yes"/>
      <point x="451.0" y="612" type="line" smooth="yes"/>
      <point x="445.0" y="607"/>
      <point x="441.0" y="600"/>
      <point x="438.0" y="590" type="curve"/>
      <point x="436.0" y="598"/>
      <point x="436.0" y="607"/>
      <point x="436.0" y="615" type="curve" smooth="yes"/>
      <point x="436.0" y="684" type="line" smooth="yes"/>
      <point x="436.0" y="716"/>
      <point x="422.0" y="730"/>
      <point x="390.0" y="730" type="curve" smooth="yes"/>
      <point x="236.0" y="730" type="line" smooth="yes"/>
      <point x="222.0" y="730"/>
      <point x="211.0" y="727"/>
      <point x="204.0" y="721" type="curve" smooth="yes"/>
      <point x="75.0" y="612" type="line" smooth="yes"/>
      <point x="66.0" y="604"/>
      <point x="61.0" y="593"/>
      <point x="61.0" y="575" type="curve" smooth="yes"/>
      <point x="61.0" y="498" type="line" smooth="yes"/>
      <point x="61.0" y="433"/>
      <point x="70.0" y="412"/>
      <point x="101.0" y="369" type="curve" smooth="yes"/>
      <point x="173.0" y="266" type="line"/>
      <point x="101.0" y="163" type="line" smooth="yes"/>
      <point x="70.0" y="120"/>
      <point x="61.0" y="99"/>
      <point x="61.0" y="34" type="curve" smooth="yes"/>
      <point x="61.0" y="-73" type="line" smooth="yes"/>
      <point x="61.0" y="-105"/>
      <point x="75.0" y="-119"/>
      <point x="107.0" y="-119" type="curve" smooth="yes"/>
      <point x="259.0" y="-119" type="line" smooth="yes"/>
      <point x="273.0" y="-119"/>
      <point x="284.0" y="-115"/>
    </contour>
  </outline>
</glyph>
<glyph name="A.s_v" format="1">
  <advance width="1000"/>
  <outline>
    <contour>
      <point x="416.0" y="-1" type="line" smooth="yes"/>
      <point x="425.0" y="7"/>
      <point x="430.0" y="18"/>
      <point x="430.0" y="36" type="curve" smooth="yes"/>
      <point x="430.0" y="37" type="line"/>
      <point x="438.0" y="37" type="line"/>
      <point x="438.0" y="-73" type="line" smooth="yes"/>
      <point x="438.0" y="-104"/>
      <point x="455.0" y="-119"/>
      <point x="487.0" y="-119" type="curve" smooth="yes"/>
      <point x="638.0" y="-119" type="line" smooth="yes"/>
      <point x="652.0" y="-119"/>
      <point x="663.0" y="-115"/>
      <point x="669.0" y="-109" type="curve"/>
      <point x="799.0" y="-1" type="line" smooth="yes"/>
      <point x="808.0" y="7"/>
      <point x="813.0" y="18"/>
      <point x="813.0" y="36" type="curve" smooth="yes"/>
      <point x="813.0" y="280" type="line" smooth="yes"/>
      <point x="813.0" y="351"/>
      <point x="803.0" y="366"/>
      <point x="773.0" y="444" type="curve" smooth="yes"/>
      <point x="686.0" y="651" type="line"/>
      <point x="676.0" y="680"/>
      <point x="658.0" y="690"/>
      <point x="627.0" y="690" type="curve" smooth="yes"/>
      <point x="368.0" y="690" type="line" smooth="yes"/>
      <point x="350.0" y="690"/>
      <point x="336.0" y="686"/>
      <point x="326.0" y="678" type="curve" smooth="yes"/>
      <point x="196.0" y="569" type="line" smooth="yes"/>
      <point x="188.0" y="563"/>
      <point x="182.0" y="553"/>
      <point x="178.0" y="541" type="curve"/>
      <point x="102.0" y="334" type="line" smooth="yes"/>
      <point x="72.0" y="257"/>
      <point x="62.0" y="242"/>
      <point x="62.0" y="171" type="curve" smooth="yes"/>
      <point x="62.0" y="-73" type="line" smooth="yes"/>
      <point x="62.0" y="-105"/>
      <point x="75.0" y="-119"/>
      <point x="108.0" y="-119" type="curve" smooth="yes"/>
      <point x="255.0" y="-119" type="line" smooth="yes"/>
      <point x="269.0" y="-119"/>
      <point x="280.0" y="-115"/>
      <point x="286.0" y="-109" type="curve"/>
    </contour>
  </outline>
</glyph>
<glyph name="A.salt_s_v" format="1">
  <advance width="1000"/>
  <outline>
    <contour>
      <point x="438.0" y="368" type="curve" smooth="yes"/>
      <point x="438.0" y="358" type="line"/>
      <point x="428.0" y="358" type="line"/>
      <point x="428.0" y="393" type="line"/>
      <point x="436.0" y="387"/>
      <point x="438.0" y="378"/>
    </contour>
    <contour>
      <point x="414.0" y="-1" type="line" smooth="yes"/>
      <point x="423.0" y="7"/>
      <point x="428.0" y="18"/>
      <point x="428.0" y="36" type="curve" smooth="yes"/>
      <point x="428.0" y="46" type="line"/>
      <point x="438.0" y="46" type="line"/>
      <point x="438.0" y="-73" type="line" smooth="yes"/>
      <point x="438.0" y="-105"/>
      <point x="452.0" y="-119"/>
      <point x="484.0" y="-119" type="curve" smooth="yes"/>
      <point x="636.0" y="-119" type="line" smooth="yes"/>
      <point x="650.0" y="-119"/>
      <point x="661.0" y="-115"/>
      <point x="667.0" y="-109" type="curve"/>
      <point x="797.0" y="-1" type="line" smooth="yes"/>
      <point x="806.0" y="7"/>
      <point x="811.0" y="18"/>
      <point x="811.0" y="36" type="curve" smooth="yes"/>
      <point x="811.0" y="491" type="line" smooth="yes"/>
      <point x="811.0" y="616"/>
      <point x="760.0" y="705"/>
      <point x="499.0" y="705" type="curve" smooth="yes"/>
      <point x="369.0" y="705"/>
      <point x="293.0" y="683"/>
      <point x="248.0" y="645" type="curve" smooth="yes"/>
      <point x="119.0" y="536" type="line" smooth="yes"/>
      <point x="73.0" y="499"/>
      <point x="60.0" y="445"/>
      <point x="60.0" y="382" type="curve" smooth="yes"/>
      <point x="60.0" y="-73" type="line" smooth="yes"/>
      <point x="60.0" y="-105"/>
      <point x="74.0" y="-119"/>
      <point x="106.0" y="-119" type="curve" smooth="yes"/>
      <point x="253.0" y="-119" type="line" smooth="yes"/>
      <point x="267.0" y="-119"/>
      <point x="278.0" y="-115"/>
      <point x="284.0" y="-109" type="curve"/>
    </contour>
  </outline>
</glyph>
<glyph name="E.s_v" format="1">
  <advance width="1000"/>
  <outline>
    <contour>
      <point x="625.0" y="-119" type="line" smooth="yes"/>
      <point x="639.0" y="-119"/>
      <point x="650.0" y="-115"/>
      <point x="656.0" y="-109" type="curve"/>
      <point x="786.0" y="-1" type="line" smooth="yes"/>
      <point x="795.0" y="7"/>
      <point x="800.0" y="18"/>
      <point x="800.0" y="36" type="curve" smooth="yes"/>
      <point x="800.0" y="149" type="line" smooth="yes"/>
      <point x="800.0" y="181"/>
      <point x="786.0" y="195"/>
      <point x="754.0" y="195" type="curve" smooth="yes"/>
      <point x="627.0" y="195" type="line"/>
      <point x="705.0" y="260" type="line" smooth="yes"/>
      <point x="714.0" y="268"/>
      <point x="719.0" y="279"/>
      <point x="719.0" y="297" type="curve" smooth="yes"/>
      <point x="719.0" y="392" type="line" smooth="yes"/>
      <point x="719.0" y="410"/>
      <point x="715.0" y="421"/>
      <point x="707.0" y="428" type="curve"/>
      <point x="786.0" y="494" type="line" smooth="yes"/>
      <point x="795.0" y="502"/>
      <point x="800.0" y="513"/>
      <point x="800.0" y="531" type="curve" smooth="yes"/>
      <point x="800.0" y="644" type="line" smooth="yes"/>
      <point x="800.0" y="676"/>
      <point x="786.0" y="690"/>
      <point x="754.0" y="690" type="curve" smooth="yes"/>
      <point x="236.0" y="690" type="line" smooth="yes"/>
      <point x="222.0" y="690"/>
      <point x="211.0" y="687"/>
      <point x="204.0" y="681" type="curve" smooth="yes"/>
      <point x="75.0" y="572" type="line" smooth="yes"/>
      <point x="66.0" y="564"/>
      <point x="61.0" y="553"/>
      <point x="61.0" y="535" type="curve" smooth="yes"/>
      <point x="61.0" y="-73" type="line" smooth="yes"/>
      <point x="61.0" y="-105"/>
      <point x="75.0" y="-119"/>
      <point x="107.0" y="-119" type="curve" smooth="yes"/>
    </contour>
  </outline>
</glyph>
<glyph name="E.salt_s_v" format="1">
  <advance width="824"/>
  <outline>
    <contour>
      <point x="625.0" y="-119" type="line" smooth="yes"/>
      <point x="639.0" y="-119"/>
      <point x="650.0" y="-115"/>
      <point x="656.0" y="-109" type="curve"/>
      <point x="786.0" y="-1" type="line" smooth="yes"/>
      <point x="795.0" y="7"/>
      <point x="800.0" y="18"/>
      <point x="800.0" y="36" type="curve" smooth="yes"/>
      <point x="800.0" y="149" type="line" smooth="yes"/>
      <point x="800.0" y="181"/>
      <point x="786.0" y="195"/>
      <point x="754.0" y="195" type="curve" smooth="yes"/>
      <point x="627.0" y="195" type="line"/>
      <point x="705.0" y="260" type="line" smooth="yes"/>
      <point x="714.0" y="268"/>
      <point x="719.0" y="279"/>
      <point x="719.0" y="297" type="curve" smooth="yes"/>
      <point x="719.0" y="392" type="line" smooth="yes"/>
      <point x="719.0" y="410"/>
      <point x="715.0" y="421"/>
      <point x="707.0" y="428" type="curve"/>
      <point x="786.0" y="494" type="line" smooth="yes"/>
      <point x="795.0" y="502"/>
      <point x="800.0" y="513"/>
      <point x="800.0" y="531" type="curve" smooth="yes"/>
      <point x="800.0" y="644" type="line" smooth="yes"/>
      <point x="800.0" y="676"/>
      <point x="786.0" y="690"/>
      <point x="754.0" y="690" type="curve" smooth="yes"/>
      <point x="442.0" y="690" type="line" smooth="yes"/>
      <point x="350.0" y="690"/>
      <point x="288.0" y="671"/>
      <point x="249.0" y="638" type="curve" smooth="yes"/>
      <point x="120.0" y="529" type="line" smooth="yes"/>
      <point x="74.0" y="491"/>
      <point x="57.0" y="434"/>
      <point x="57.0" y="366" type="curve" smooth="yes"/>
      <point x="57.0" y="95" type="line" smooth="yes"/>
      <point x="57.0" y="-31"/>
      <point x="115.0" y="-119"/>
      <point x="313.0" y="-119" type="curve" smooth="yes"/>
    </contour>
  </outline>
</glyph>
<glyph name="E.salt_v" format="1">
  <advance width="864"/>
  <outline>
    <contour>
      <point x="626.0" y="-119" type="line" smooth="yes"/>
      <point x="640.0" y="-119"/>
      <point x="651.0" y="-115"/>
      <point x="657.0" y="-109" type="curve"/>
      <point x="787.0" y="-1" type="line" smooth="yes"/>
      <point x="796.0" y="7"/>
      <point x="801.0" y="18"/>
      <point x="801.0" y="36" type="curve" smooth="yes"/>
      <point x="801.0" y="153" type="line" smooth="yes"/>
      <point x="801.0" y="185"/>
      <point x="787.0" y="199"/>
      <point x="755.0" y="199" type="curve" smooth="yes"/>
      <point x="617.0" y="199" type="line"/>
      <point x="706.0" y="274" type="line" smooth="yes"/>
      <point x="715.0" y="282"/>
      <point x="720.0" y="293"/>
      <point x="720.0" y="311" type="curve" smooth="yes"/>
      <point x="720.0" y="418" type="line" smooth="yes"/>
      <point x="720.0" y="440"/>
      <point x="714.0" y="452"/>
      <point x="701.0" y="459" type="curve"/>
      <point x="787.0" y="530" type="line" smooth="yes"/>
      <point x="796.0" y="538"/>
      <point x="801.0" y="549"/>
      <point x="801.0" y="567" type="curve" smooth="yes"/>
      <point x="801.0" y="684" type="line" smooth="yes"/>
      <point x="801.0" y="716"/>
      <point x="787.0" y="730"/>
      <point x="755.0" y="730" type="curve" smooth="yes"/>
      <point x="442.0" y="730" type="line" smooth="yes"/>
      <point x="350.0" y="730"/>
      <point x="288.0" y="711"/>
      <point x="249.0" y="678" type="curve" smooth="yes"/>
      <point x="120.0" y="569" type="line" smooth="yes"/>
      <point x="74.0" y="531"/>
      <point x="57.0" y="474"/>
      <point x="57.0" y="406" type="curve" smooth="yes"/>
      <point x="57.0" y="115" type="line" smooth="yes"/>
      <point x="57.0" y="-11"/>
      <point x="115.0" y="-119"/>
      <point x="313.0" y="-119" type="curve" smooth="yes"/>
    </contour>
  </outline>
</glyph>
<glyph name="Eth.v" format="1">
  <advance width="1000"/>
  <outline>
    <contour>
      <point x="107.0" y="-119" type="curve" smooth="yes"/>
      <point x="425.0" y="-119" type="line" smooth="yes"/>
      <point x="517.0" y="-119"/>
      <point x="578.0" y="-99"/>
      <point x="618.0" y="-66" type="curve" smooth="yes"/>
      <point x="747.0" y="43" type="line" smooth="yes"/>
      <point x="793.0" y="81"/>
      <point x="810.0" y="137"/>
      <point x="810.0" y="204" type="curve" smooth="yes"/>
      <point x="810.0" y="516" type="line" smooth="yes"/>
      <point x="810.0" y="642"/>
      <point x="752.0" y="730"/>
      <point x="554.0" y="730" type="curve" smooth="yes"/>
      <point x="236.0" y="730" type="line" smooth="yes"/>
      <point x="222.0" y="730"/>
      <point x="211.0" y="727"/>
      <point x="204.0" y="721" type="curve" smooth="yes"/>
      <point x="75.0" y="612" type="line" smooth="yes"/>
      <point x="66.0" y="604"/>
      <point x="61.0" y="593"/>
      <point x="61.0" y="575" type="curve" smooth="yes"/>
      <point x="61.0" y="374" type="line"/>
      <point x="16.0" y="336" type="line" smooth="yes"/>
      <point x="7.0" y="328"/>
      <point x="2.0" y="317"/>
      <point x="2.0" y="299" type="curve"/>
      <point x="2.0" y="192" type="line"/>
      <point x="2.0" y="159"/>
      <point x="16.0" y="146"/>
      <point x="48.0" y="146" type="curve" smooth="yes"/>
      <point x="61.0" y="146" type="line"/>
      <point x="61.0" y="-73" type="line" smooth="yes"/>
      <point x="61.0" y="-105"/>
      <point x="75.0" y="-119"/>
    </contour>
  </outline>
</glyph>
<glyph name="L.s_v" format="1">
  <advance width="1000"/>
  <outline>
    <contour>
      <point x="635.0" y="-119" type="line" smooth="yes"/>
      <point x="649.0" y="-119"/>
      <point x="660.0" y="-115"/>
      <point x="666.0" y="-109" type="curve"/>
      <point x="796.0" y="-1" type="line" smooth="yes"/>
      <point x="805.0" y="7"/>
      <point x="810.0" y="18"/>
      <point x="810.0" y="36" type="curve" smooth="yes"/>
      <point x="810.0" y="341" type="line" smooth="yes"/>
      <point x="810.0" y="373"/>
      <point x="796.0" y="387"/>
      <point x="764.0" y="387" type="curve" smooth="yes"/>
      <point x="619.0" y="387" type="line" smooth="yes"/>
      <point x="605.0" y="387"/>
      <point x="594.0" y="384"/>
      <point x="587.0" y="378" type="curve" smooth="yes"/>
      <point x="461.0" y="272" type="line" smooth="yes"/>
      <point x="452.0" y="264"/>
      <point x="447.0" y="253"/>
      <point x="447.0" y="235" type="curve" smooth="yes"/>
      <point x="447.0" y="199" type="line"/>
      <point x="437.0" y="199" type="line"/>
      <point x="437.0" y="644" type="line" smooth="yes"/>
      <point x="437.0" y="676"/>
      <point x="423.0" y="690"/>
      <point x="391.0" y="690" type="curve" smooth="yes"/>
      <point x="236.0" y="690" type="line" smooth="yes"/>
      <point x="222.0" y="690"/>
      <point x="211.0" y="687"/>
      <point x="204.0" y="681" type="curve" smooth="yes"/>
      <point x="75.0" y="572" type="line" smooth="yes"/>
      <point x="66.0" y="564"/>
      <point x="61.0" y="553"/>
      <point x="61.0" y="535" type="curve" smooth="yes"/>
      <point x="61.0" y="-73" type="line" smooth="yes"/>
      <point x="61.0" y="-105"/>
      <point x="75.0" y="-119"/>
      <point x="107.0" y="-119" type="curve" smooth="yes"/>
    </contour>
  </outline>
</glyph>
<glyph name="Lslash.v" format="1">
  <advance width="1000"/>
  <outline>
    <contour>
      <point x="359.0" y="216" type="line" smooth="yes"/>
      <point x="377.0" y="219"/>
      <point x="384.0" y="221"/>
      <point x="393.0" y="229" type="curve" smooth="yes"/>
      <point x="520.0" y="335" type="line" smooth="yes"/>
      <point x="530.0" y="343"/>
      <point x="532.0" y="357"/>
      <point x="532.0" y="371" type="curve" smooth="yes"/>
      <point x="532.0" y="476" type="line" smooth="yes"/>
      <point x="532.0" y="511"/>
      <point x="516.0" y="527"/>
      <point x="484.0" y="522" type="curve" smooth="yes"/>
      <point x="176.0" y="472" type="line" smooth="yes"/>
      <point x="158.0" y="469"/>
      <point x="151.0" y="466"/>
      <point x="142.0" y="458" type="curve" smooth="yes"/>
      <point x="16.0" y="354" type="line" smooth="yes"/>
      <point x="6.0" y="346"/>
      <point x="3.0" y="333"/>
      <point x="3.0" y="319" type="curve" smooth="yes"/>
      <point x="3.0" y="212" type="line"/>
      <point x="3.0" y="177"/>
      <point x="19.0" y="161"/>
      <point x="51.0" y="166" type="curve" smooth="yes"/>
    </contour>
    <component base="L.v"/>
  </outline>
</glyph>
<glyph name="Ncommaaccent.salt_v" format="1">
  <advance width="1000"/>
  <outline>
    <contour>
      <point x="261.0" y="1" type="line" smooth="yes"/>
      <point x="275.0" y="1"/>
      <point x="286.0" y="5"/>
      <point x="292.0" y="11" type="curve"/>
      <point x="420.0" y="119" type="line" smooth="yes"/>
      <point x="426.0" y="124"/>
      <point x="430.0" y="130"/>
      <point x="432.0" y="138" type="curve"/>
      <point x="432.0" y="47" type="line" smooth="yes"/>
      <point x="432.0" y="15"/>
      <point x="446.0" y="1"/>
      <point x="478.0" y="1" type="curve" smooth="yes"/>
      <point x="635.0" y="1" type="line" smooth="yes"/>
      <point x="649.0" y="1"/>
      <point x="660.0" y="5"/>
      <point x="666.0" y="11" type="curve"/>
      <point x="796.0" y="119" type="line" smooth="yes"/>
      <point x="805.0" y="127"/>
      <point x="810.0" y="138"/>
      <point x="810.0" y="156" type="curve" smooth="yes"/>
      <point x="810.0" y="521" type="line" smooth="yes"/>
      <point x="810.0" y="647"/>
      <point x="760.0" y="735"/>
      <point x="500.0" y="735" type="curve" smooth="yes"/>
      <point x="370.0" y="735"/>
      <point x="294.0" y="713"/>
      <point x="249.0" y="675" type="curve" smooth="yes"/>
      <point x="120.0" y="567" type="line" smooth="yes"/>
      <point x="74.0" y="529"/>
      <point x="61.0" y="476"/>
      <point x="61.0" y="412" type="curve" smooth="yes"/>
      <point x="61.0" y="47" type="line" smooth="yes"/>
      <point x="61.0" y="15"/>
      <point x="75.0" y="1"/>
      <point x="107.0" y="1" type="curve" smooth="yes"/>
    </contour>
    <component base="commaaccent.v" yOffset="140"/>
  </outline>
</glyph>
